M48
; DRILL file {KiCad 5.1.6+dfsg1-1~bpo10+1} date Mon May 25 22:11:29 2020
; FORMAT={-:-/ absolute / inch / decimal}
; #@! TF.CreationDate,2020-05-25T22:11:29+02:00
; #@! TF.GenerationSoftware,Kicad,Pcbnew,5.1.6+dfsg1-1~bpo10+1
; #@! TF.FileFunction,Plated,1,2,PTH
FMAT,2
INCH
T1C0.0157
T2C0.0315
T3C0.0354
T4C0.0394
T5C0.1260
%
G90
G05
T1
X6.6Y-2.35
X6.6Y-4.025
X6.65Y-2.65
X6.65Y-2.9
X6.7Y-3.225
X6.8Y-2.65
X6.85Y-2.95
X6.9Y-2.1
X6.9Y-3.675
X6.9Y-4.325
X7.0236Y-3.9063
X7.025Y-3.325
X7.375Y-2.1
X7.375Y-2.475
X7.375Y-3.225
X7.375Y-4.325
X7.85Y-3.35
X7.85Y-3.55
X7.9Y-2.75
X7.925Y-2.1
X7.975Y-4.325
X7.9937Y-2.4642
X8.425Y-2.1
X8.45Y-4.325
X8.5Y-3.25
X8.8Y-2.1
X8.825Y-2.625
X8.875Y-3.475
X8.9Y-4.325
X9.3Y-2.925
X9.375Y-2.1
X9.65Y-4.325
X9.675Y-3.0
X10.15Y-2.1
X10.15Y-2.65
X10.15Y-3.975
X10.15Y-4.325
T2
X7.4Y-3.4031
X7.4Y-3.6
X9.65Y-2.3531
X9.65Y-2.55
X8.45Y-3.65
X8.85Y-3.65
X8.0Y-3.9
X8.0Y-4.2
X6.6Y-2.8
X6.6Y-3.1
X6.7Y-2.8
X6.7Y-3.1
X6.8Y-2.8
X6.8Y-3.1
X6.9Y-2.8
X6.9Y-3.1
X7.0Y-2.8
X7.0Y-3.1
X7.1Y-2.8
X7.1Y-3.1
X7.2Y-2.8
X7.2Y-3.1
X9.2Y-3.9
X9.6Y-3.9
X8.95Y-2.65
X8.95Y-2.8469
X8.0Y-3.45
X8.0Y-3.75
X9.2Y-3.4
X9.6Y-3.4
X6.85Y-3.25
X7.15Y-3.25
X8.95Y-2.95
X8.95Y-3.1469
X6.65Y-3.4
X6.65Y-3.8
X8.7Y-2.35
X8.7Y-2.5469
X8.45Y-3.9
X8.85Y-3.9
X8.95Y-2.35
X8.95Y-2.5469
X9.2Y-3.65
X9.6Y-3.65
X8.45Y-4.15
X8.85Y-4.15
X8.7Y-2.65
X8.7Y-2.8469
X6.9Y-3.4
X6.9Y-3.8
X9.2Y-4.15
X9.6Y-4.15
X7.9Y-2.6531
X7.9Y-2.85
X7.15Y-3.4
X7.15Y-3.8
X9.15Y-2.4
X9.15Y-2.5
X9.15Y-2.6
X9.15Y-2.7
X9.15Y-2.8
X9.15Y-2.9
X9.15Y-3.0
X9.15Y-3.1
X9.45Y-2.4
X9.45Y-2.5
X9.45Y-2.6
X9.45Y-2.7
X9.45Y-2.8
X9.45Y-2.9
X9.45Y-3.0
X9.45Y-3.1
X8.2Y-2.4
X8.2Y-2.5
X8.2Y-2.6
X8.2Y-2.7
X8.2Y-2.8
X8.2Y-2.9
X8.2Y-3.0
X8.5Y-2.4
X8.5Y-2.5
X8.5Y-2.6
X8.5Y-2.7
X8.5Y-2.8
X8.5Y-2.9
X8.5Y-3.0
T3
X8.7Y-3.35
X8.7Y-3.45
X8.4Y-3.35
X8.4Y-3.45
T4
X9.8Y-3.1
X9.8Y-3.2091
X9.8Y-3.3181
X9.8Y-3.4272
X9.8Y-3.5362
X9.9118Y-3.1545
X9.9118Y-3.2636
X9.9118Y-3.3726
X9.9118Y-3.4817
X6.6Y-2.545
X6.7Y-2.545
X6.8Y-2.545
X6.9Y-2.545
X7.0Y-2.545
X9.9Y-2.4
X9.9Y-2.5
T5
X9.8559Y-2.826
X9.8559Y-3.8102
T0
M30
