%TF.GenerationSoftware,KiCad,Pcbnew,5.1.6+dfsg1-1~bpo10+1*%
%TF.CreationDate,2020-05-25T22:11:19+02:00*%
%TF.ProjectId,rs232 uart programmer,72733233-3220-4756-9172-742070726f67,rev?*%
%TF.SameCoordinates,Original*%
%TF.FileFunction,Soldermask,Bot*%
%TF.FilePolarity,Negative*%
%FSLAX46Y46*%
G04 Gerber Fmt 4.6, Leading zero omitted, Abs format (unit mm)*
G04 Created by KiCad (PCBNEW 5.1.6+dfsg1-1~bpo10+1) date 2020-05-25 22:11:19*
%MOMM*%
%LPD*%
G01*
G04 APERTURE LIST*
%ADD10O,1.700000X1.700000*%
%ADD11C,1.700000*%
%ADD12C,1.900000*%
%ADD13R,1.900000X1.900000*%
%ADD14C,3.300000*%
%ADD15R,1.700000X1.700000*%
%ADD16O,1.800000X1.800000*%
%ADD17R,1.800000X1.800000*%
%ADD18C,4.100000*%
G04 APERTURE END LIST*
D10*
%TO.C,R10*%
X243840000Y-99060000D03*
D11*
X233680000Y-99060000D03*
%TD*%
D10*
%TO.C,R9*%
X233680000Y-105410000D03*
D11*
X243840000Y-105410000D03*
%TD*%
D10*
%TO.C,R8*%
X214630000Y-105410000D03*
D11*
X224790000Y-105410000D03*
%TD*%
D10*
%TO.C,R7*%
X214630000Y-92710000D03*
D11*
X224790000Y-92710000D03*
%TD*%
D10*
%TO.C,R6*%
X214630000Y-99060000D03*
D11*
X224790000Y-99060000D03*
%TD*%
D10*
%TO.C,R5*%
X181610000Y-96520000D03*
D11*
X181610000Y-86360000D03*
%TD*%
D10*
%TO.C,R4*%
X175260000Y-96520000D03*
D11*
X175260000Y-86360000D03*
%TD*%
D10*
%TO.C,R3*%
X168910000Y-96520000D03*
D11*
X168910000Y-86360000D03*
%TD*%
D10*
%TO.C,R2*%
X233680000Y-92710000D03*
D11*
X243840000Y-92710000D03*
%TD*%
D10*
%TO.C,R1*%
X233680000Y-86360000D03*
D11*
X243840000Y-86360000D03*
%TD*%
D12*
%TO.C,LED2*%
X220980000Y-85090000D03*
D13*
X220980000Y-87630000D03*
%TD*%
D14*
%TO.C,REF\u002A\u002A*%
X250190000Y-109220000D03*
%TD*%
%TO.C,REF\u002A\u002A*%
X250190000Y-54610000D03*
%TD*%
%TO.C,REF\u002A\u002A*%
X168910000Y-54610000D03*
%TD*%
%TO.C,REF\u002A\u002A*%
X168910000Y-109220000D03*
%TD*%
D10*
%TO.C,U7*%
X240030000Y-60960000D03*
X232410000Y-78740000D03*
X240030000Y-63500000D03*
X232410000Y-76200000D03*
X240030000Y-66040000D03*
X232410000Y-73660000D03*
X240030000Y-68580000D03*
X232410000Y-71120000D03*
X240030000Y-71120000D03*
X232410000Y-68580000D03*
X240030000Y-73660000D03*
X232410000Y-66040000D03*
X240030000Y-76200000D03*
X232410000Y-63500000D03*
X240030000Y-78740000D03*
D15*
X232410000Y-60960000D03*
%TD*%
D10*
%TO.C,U2*%
X215900000Y-60960000D03*
X208280000Y-76200000D03*
X215900000Y-63500000D03*
X208280000Y-73660000D03*
X215900000Y-66040000D03*
X208280000Y-71120000D03*
X215900000Y-68580000D03*
X208280000Y-68580000D03*
X215900000Y-71120000D03*
X208280000Y-66040000D03*
X215900000Y-73660000D03*
X208280000Y-63500000D03*
X215900000Y-76200000D03*
D15*
X208280000Y-60960000D03*
%TD*%
%TO.C,U1*%
X167640000Y-78740000D03*
D10*
X182880000Y-71120000D03*
X170180000Y-78740000D03*
X180340000Y-71120000D03*
X172720000Y-78740000D03*
X177800000Y-71120000D03*
X175260000Y-78740000D03*
X175260000Y-71120000D03*
X177800000Y-78740000D03*
X172720000Y-71120000D03*
X180340000Y-78740000D03*
X170180000Y-71120000D03*
X182880000Y-78740000D03*
X167640000Y-71120000D03*
%TD*%
D16*
%TO.C,J3*%
X251460000Y-63500000D03*
D17*
X251460000Y-60960000D03*
%TD*%
D18*
%TO.C,J2*%
X250340000Y-71780000D03*
X250340000Y-96780000D03*
D11*
X251760000Y-88435000D03*
X251760000Y-85665000D03*
X251760000Y-82895000D03*
X251760000Y-80125000D03*
X248920000Y-89820000D03*
X248920000Y-87050000D03*
X248920000Y-84280000D03*
X248920000Y-81510000D03*
D15*
X248920000Y-78740000D03*
%TD*%
D17*
%TO.C,J1*%
X177800000Y-64643000D03*
D16*
X175260000Y-64643000D03*
X172720000Y-64643000D03*
X170180000Y-64643000D03*
X167640000Y-64643000D03*
%TD*%
D10*
%TO.C,D5*%
X203200000Y-95250000D03*
D15*
X203200000Y-87630000D03*
%TD*%
D10*
%TO.C,D4*%
X203200000Y-106680000D03*
D15*
X203200000Y-99060000D03*
%TD*%
%TO.C,D3*%
X173990000Y-82550000D03*
D10*
X181610000Y-82550000D03*
%TD*%
D12*
%TO.C,LED1*%
X213360000Y-85090000D03*
D13*
X213360000Y-87630000D03*
%TD*%
D11*
%TO.C,C8*%
X200660000Y-72390000D03*
X200660000Y-67390000D03*
%TD*%
%TO.C,C7*%
X187960000Y-91440000D03*
X187960000Y-86440000D03*
%TD*%
%TO.C,C6*%
X220980000Y-64690000D03*
X220980000Y-59690000D03*
%TD*%
%TO.C,C5*%
X227330000Y-79930000D03*
X227330000Y-74930000D03*
%TD*%
%TO.C,C4*%
X227330000Y-72310000D03*
X227330000Y-67310000D03*
%TD*%
%TO.C,C3*%
X245110000Y-59770000D03*
X245110000Y-64770000D03*
%TD*%
%TO.C,C2*%
X227330000Y-64690000D03*
X227330000Y-59690000D03*
%TD*%
%TO.C,C1*%
X220980000Y-72310000D03*
X220980000Y-67310000D03*
%TD*%
M02*
