%TF.GenerationSoftware,KiCad,Pcbnew,5.1.6+dfsg1-1~bpo10+1*%
%TF.CreationDate,2020-05-25T22:11:19+02:00*%
%TF.ProjectId,rs232 uart programmer,72733233-3220-4756-9172-742070726f67,rev?*%
%TF.SameCoordinates,Original*%
%TF.FileFunction,Copper,L2,Bot*%
%TF.FilePolarity,Positive*%
%FSLAX46Y46*%
G04 Gerber Fmt 4.6, Leading zero omitted, Abs format (unit mm)*
G04 Created by KiCad (PCBNEW 5.1.6+dfsg1-1~bpo10+1) date 2020-05-25 22:11:19*
%MOMM*%
%LPD*%
G01*
G04 APERTURE LIST*
%TA.AperFunction,ComponentPad*%
%ADD10O,1.600000X1.600000*%
%TD*%
%TA.AperFunction,ComponentPad*%
%ADD11C,1.600000*%
%TD*%
%TA.AperFunction,ComponentPad*%
%ADD12C,1.800000*%
%TD*%
%TA.AperFunction,ComponentPad*%
%ADD13R,1.800000X1.800000*%
%TD*%
%TA.AperFunction,ComponentPad*%
%ADD14R,1.600000X1.600000*%
%TD*%
%TA.AperFunction,ComponentPad*%
%ADD15O,1.700000X1.700000*%
%TD*%
%TA.AperFunction,ComponentPad*%
%ADD16R,1.700000X1.700000*%
%TD*%
%TA.AperFunction,ComponentPad*%
%ADD17C,4.000000*%
%TD*%
%TA.AperFunction,ViaPad*%
%ADD18C,0.800000*%
%TD*%
%TA.AperFunction,Conductor*%
%ADD19C,0.400000*%
%TD*%
%TA.AperFunction,Conductor*%
%ADD20C,0.300000*%
%TD*%
%TA.AperFunction,Conductor*%
%ADD21C,0.254000*%
%TD*%
G04 APERTURE END LIST*
D10*
%TO.P,R10,2*%
%TO.N,GND*%
X243840000Y-99060000D03*
D11*
%TO.P,R10,1*%
%TO.N,Net-(LED2-Pad1)*%
X233680000Y-99060000D03*
%TD*%
D10*
%TO.P,R9,2*%
%TO.N,Net-(LED1-Pad1)*%
X233680000Y-105410000D03*
D11*
%TO.P,R9,1*%
%TO.N,GND*%
X243840000Y-105410000D03*
%TD*%
D10*
%TO.P,R8,2*%
%TO.N,Net-(R8-Pad2)*%
X214630000Y-105410000D03*
D11*
%TO.P,R8,1*%
%TO.N,+5V*%
X224790000Y-105410000D03*
%TD*%
D10*
%TO.P,R7,2*%
%TO.N,Net-(D5-Pad2)*%
X214630000Y-92710000D03*
D11*
%TO.P,R7,1*%
%TO.N,+5V*%
X224790000Y-92710000D03*
%TD*%
D10*
%TO.P,R6,2*%
%TO.N,Net-(D4-Pad2)*%
X214630000Y-99060000D03*
D11*
%TO.P,R6,1*%
%TO.N,+5V*%
X224790000Y-99060000D03*
%TD*%
D10*
%TO.P,R5,2*%
%TO.N,+5VA*%
X181610000Y-96520000D03*
D11*
%TO.P,R5,1*%
%TO.N,Net-(D3-Pad2)*%
X181610000Y-86360000D03*
%TD*%
D10*
%TO.P,R4,2*%
%TO.N,+5VA*%
X175260000Y-96520000D03*
D11*
%TO.P,R4,1*%
%TO.N,Net-(R4-Pad1)*%
X175260000Y-86360000D03*
%TD*%
D10*
%TO.P,R3,2*%
%TO.N,+5VA*%
X168910000Y-96520000D03*
D11*
%TO.P,R3,1*%
%TO.N,Net-(R3-Pad1)*%
X168910000Y-86360000D03*
%TD*%
D10*
%TO.P,R2,2*%
%TO.N,Net-(LED2-Pad2)*%
X233680000Y-92710000D03*
D11*
%TO.P,R2,1*%
%TO.N,Net-(R2-Pad1)*%
X243840000Y-92710000D03*
%TD*%
D10*
%TO.P,R1,2*%
%TO.N,Net-(LED1-Pad2)*%
X233680000Y-86360000D03*
D11*
%TO.P,R1,1*%
%TO.N,Net-(R1-Pad1)*%
X243840000Y-86360000D03*
%TD*%
D12*
%TO.P,LED2,2*%
%TO.N,Net-(LED2-Pad2)*%
X220980000Y-85090000D03*
D13*
%TO.P,LED2,1*%
%TO.N,Net-(LED2-Pad1)*%
X220980000Y-87630000D03*
%TD*%
D10*
%TO.P,U7,16*%
%TO.N,+5V*%
X240030000Y-60960000D03*
%TO.P,U7,8*%
%TO.N,Net-(J2-Pad3)*%
X232410000Y-78740000D03*
%TO.P,U7,15*%
%TO.N,GND*%
X240030000Y-63500000D03*
%TO.P,U7,7*%
%TO.N,Net-(J2-Pad2)*%
X232410000Y-76200000D03*
%TO.P,U7,14*%
%TO.N,Net-(U7-Pad14)*%
X240030000Y-66040000D03*
%TO.P,U7,6*%
%TO.N,Net-(C5-Pad2)*%
X232410000Y-73660000D03*
%TO.P,U7,13*%
%TO.N,Net-(J2-Pad4)*%
X240030000Y-68580000D03*
%TO.P,U7,5*%
%TO.N,Net-(C4-Pad2)*%
X232410000Y-71120000D03*
%TO.P,U7,12*%
%TO.N,Net-(C1-Pad1)*%
X240030000Y-71120000D03*
%TO.P,U7,4*%
%TO.N,Net-(C4-Pad1)*%
X232410000Y-68580000D03*
%TO.P,U7,11*%
%TO.N,Net-(U7-Pad11)*%
X240030000Y-73660000D03*
%TO.P,U7,3*%
%TO.N,Net-(C2-Pad2)*%
X232410000Y-66040000D03*
%TO.P,U7,10*%
%TO.N,Net-(R1-Pad1)*%
X240030000Y-76200000D03*
%TO.P,U7,2*%
%TO.N,Net-(C6-Pad2)*%
X232410000Y-63500000D03*
%TO.P,U7,9*%
%TO.N,Net-(R2-Pad1)*%
X240030000Y-78740000D03*
D14*
%TO.P,U7,1*%
%TO.N,Net-(C2-Pad1)*%
X232410000Y-60960000D03*
%TD*%
D10*
%TO.P,U2,14*%
%TO.N,+5V*%
X215900000Y-60960000D03*
%TO.P,U2,7*%
%TO.N,GND*%
X208280000Y-76200000D03*
%TO.P,U2,13*%
%TO.N,N/C*%
X215900000Y-63500000D03*
%TO.P,U2,6*%
%TO.N,Net-(D5-Pad1)*%
X208280000Y-73660000D03*
%TO.P,U2,12*%
%TO.N,N/C*%
X215900000Y-66040000D03*
%TO.P,U2,5*%
%TO.N,Net-(LED2-Pad2)*%
X208280000Y-71120000D03*
%TO.P,U2,11*%
%TO.N,N/C*%
X215900000Y-68580000D03*
%TO.P,U2,4*%
%TO.N,Net-(D4-Pad1)*%
X208280000Y-68580000D03*
%TO.P,U2,10*%
%TO.N,N/C*%
X215900000Y-71120000D03*
%TO.P,U2,3*%
%TO.N,Net-(C1-Pad2)*%
X208280000Y-66040000D03*
%TO.P,U2,9*%
%TO.N,N/C*%
X215900000Y-73660000D03*
%TO.P,U2,2*%
%TO.N,Net-(LED1-Pad2)*%
X208280000Y-63500000D03*
%TO.P,U2,8*%
%TO.N,N/C*%
X215900000Y-76200000D03*
D14*
%TO.P,U2,1*%
%TO.N,Net-(R8-Pad2)*%
X208280000Y-60960000D03*
%TD*%
%TO.P,U1,1*%
%TO.N,Net-(R3-Pad1)*%
X167640000Y-78740000D03*
D10*
%TO.P,U1,8*%
%TO.N,N/C*%
X182880000Y-71120000D03*
%TO.P,U1,2*%
%TO.N,Net-(J1-Pad4)*%
X170180000Y-78740000D03*
%TO.P,U1,9*%
%TO.N,N/C*%
X180340000Y-71120000D03*
%TO.P,U1,3*%
%TO.N,Net-(R4-Pad1)*%
X172720000Y-78740000D03*
%TO.P,U1,10*%
%TO.N,N/C*%
X177800000Y-71120000D03*
%TO.P,U1,4*%
%TO.N,Net-(J1-Pad5)*%
X175260000Y-78740000D03*
%TO.P,U1,11*%
%TO.N,N/C*%
X175260000Y-71120000D03*
%TO.P,U1,5*%
%TO.N,Net-(J1-Pad3)*%
X177800000Y-78740000D03*
%TO.P,U1,12*%
%TO.N,N/C*%
X172720000Y-71120000D03*
%TO.P,U1,6*%
%TO.N,Net-(D3-Pad1)*%
X180340000Y-78740000D03*
%TO.P,U1,13*%
%TO.N,N/C*%
X170180000Y-71120000D03*
%TO.P,U1,7*%
%TO.N,GNDA*%
X182880000Y-78740000D03*
%TO.P,U1,14*%
%TO.N,+5VA*%
X167640000Y-71120000D03*
%TD*%
D15*
%TO.P,J3,2*%
%TO.N,GND*%
X251460000Y-63500000D03*
D16*
%TO.P,J3,1*%
%TO.N,+5V*%
X251460000Y-60960000D03*
%TD*%
D17*
%TO.P,J2,0*%
%TO.N,Net-(J2-Pad0)*%
X250340000Y-71780000D03*
X250340000Y-96780000D03*
D11*
%TO.P,J2,9*%
%TO.N,Net-(J2-Pad9)*%
X251760000Y-88435000D03*
%TO.P,J2,8*%
%TO.N,Net-(J2-Pad8)*%
X251760000Y-85665000D03*
%TO.P,J2,7*%
%TO.N,Net-(J2-Pad7)*%
X251760000Y-82895000D03*
%TO.P,J2,6*%
%TO.N,Net-(J2-Pad6)*%
X251760000Y-80125000D03*
%TO.P,J2,5*%
%TO.N,GND*%
X248920000Y-89820000D03*
%TO.P,J2,4*%
%TO.N,Net-(J2-Pad4)*%
X248920000Y-87050000D03*
%TO.P,J2,3*%
%TO.N,Net-(J2-Pad3)*%
X248920000Y-84280000D03*
%TO.P,J2,2*%
%TO.N,Net-(J2-Pad2)*%
X248920000Y-81510000D03*
D14*
%TO.P,J2,1*%
%TO.N,Net-(J2-Pad1)*%
X248920000Y-78740000D03*
%TD*%
D16*
%TO.P,J1,1*%
%TO.N,+5VA*%
X177800000Y-64643000D03*
D15*
%TO.P,J1,2*%
%TO.N,GNDA*%
X175260000Y-64643000D03*
%TO.P,J1,3*%
%TO.N,Net-(J1-Pad3)*%
X172720000Y-64643000D03*
%TO.P,J1,4*%
%TO.N,Net-(J1-Pad4)*%
X170180000Y-64643000D03*
%TO.P,J1,5*%
%TO.N,Net-(J1-Pad5)*%
X167640000Y-64643000D03*
%TD*%
D10*
%TO.P,D5,2*%
%TO.N,Net-(D5-Pad2)*%
X203200000Y-95250000D03*
D14*
%TO.P,D5,1*%
%TO.N,Net-(D5-Pad1)*%
X203200000Y-87630000D03*
%TD*%
D10*
%TO.P,D4,2*%
%TO.N,Net-(D4-Pad2)*%
X203200000Y-106680000D03*
D14*
%TO.P,D4,1*%
%TO.N,Net-(D4-Pad1)*%
X203200000Y-99060000D03*
%TD*%
%TO.P,D3,1*%
%TO.N,Net-(D3-Pad1)*%
X173990000Y-82550000D03*
D10*
%TO.P,D3,2*%
%TO.N,Net-(D3-Pad2)*%
X181610000Y-82550000D03*
%TD*%
D12*
%TO.P,LED1,2*%
%TO.N,Net-(LED1-Pad2)*%
X213360000Y-85090000D03*
D13*
%TO.P,LED1,1*%
%TO.N,Net-(LED1-Pad1)*%
X213360000Y-87630000D03*
%TD*%
D11*
%TO.P,C8,1*%
%TO.N,GND*%
X200660000Y-72390000D03*
%TO.P,C8,2*%
%TO.N,+5V*%
X200660000Y-67390000D03*
%TD*%
%TO.P,C7,1*%
%TO.N,+5VA*%
X187960000Y-91440000D03*
%TO.P,C7,2*%
%TO.N,GNDA*%
X187960000Y-86440000D03*
%TD*%
%TO.P,C6,2*%
%TO.N,Net-(C6-Pad2)*%
X220980000Y-64690000D03*
%TO.P,C6,1*%
%TO.N,+5V*%
X220980000Y-59690000D03*
%TD*%
%TO.P,C5,2*%
%TO.N,Net-(C5-Pad2)*%
X227330000Y-79930000D03*
%TO.P,C5,1*%
%TO.N,GND*%
X227330000Y-74930000D03*
%TD*%
%TO.P,C4,2*%
%TO.N,Net-(C4-Pad2)*%
X227330000Y-72310000D03*
%TO.P,C4,1*%
%TO.N,Net-(C4-Pad1)*%
X227330000Y-67310000D03*
%TD*%
%TO.P,C3,2*%
%TO.N,+5V*%
X245110000Y-59770000D03*
%TO.P,C3,1*%
%TO.N,GND*%
X245110000Y-64770000D03*
%TD*%
%TO.P,C2,2*%
%TO.N,Net-(C2-Pad2)*%
X227330000Y-64690000D03*
%TO.P,C2,1*%
%TO.N,Net-(C2-Pad1)*%
X227330000Y-59690000D03*
%TD*%
%TO.P,C1,2*%
%TO.N,Net-(C1-Pad2)*%
X220980000Y-72310000D03*
%TO.P,C1,1*%
%TO.N,Net-(C1-Pad1)*%
X220980000Y-67310000D03*
%TD*%
D18*
%TO.N,GND*%
X199390000Y-85090000D03*
X199390000Y-90170000D03*
X203040000Y-62590000D03*
X224155000Y-66675000D03*
X236220000Y-74295000D03*
X245745000Y-76200000D03*
X225425000Y-88265000D03*
X215900000Y-82550000D03*
X202565000Y-109855000D03*
X214630000Y-109855000D03*
X245110000Y-109855000D03*
X257810000Y-109855000D03*
X257810000Y-100965000D03*
X257810000Y-67310000D03*
X257810000Y-53340000D03*
X238125000Y-53340000D03*
X223520000Y-53340000D03*
X213995000Y-53340000D03*
X201295000Y-53340000D03*
X226060000Y-109855000D03*
%TO.N,GNDA*%
X178400000Y-99220000D03*
X187325000Y-81915000D03*
X175260000Y-93345000D03*
X178435000Y-84455000D03*
X170180000Y-81915000D03*
X173990000Y-74930000D03*
X172720000Y-67310000D03*
X187325000Y-53340000D03*
X175260000Y-53340000D03*
X167640000Y-59690000D03*
X167640000Y-102235000D03*
X175260000Y-109855000D03*
X187325000Y-109855000D03*
X187325000Y-62865000D03*
%TO.N,Net-(J1-Pad5)*%
X168910000Y-67310000D03*
X168910000Y-73660000D03*
%TO.N,Net-(R8-Pad2)*%
X200660000Y-69850000D03*
%TD*%
D19*
%TO.N,+5V*%
X251460000Y-60960000D02*
X254000000Y-60960000D01*
X254000000Y-60960000D02*
X255270000Y-62230000D01*
X255270000Y-96348002D02*
X241128002Y-110490000D01*
X255270000Y-62230000D02*
X255270000Y-96348002D01*
X229870000Y-110490000D02*
X229552500Y-110172500D01*
X241128002Y-110490000D02*
X229870000Y-110490000D01*
X229552500Y-110172500D02*
X224790000Y-105410000D01*
D20*
%TO.N,Net-(J1-Pad5)*%
X168910000Y-67310000D02*
X168910000Y-71552002D01*
X168910000Y-71552002D02*
X168910000Y-73660000D01*
%TO.N,Net-(J1-Pad4)*%
X171450000Y-65913000D02*
X170180000Y-64643000D01*
X171450000Y-71552002D02*
X171450000Y-65913000D01*
X170180000Y-78740000D02*
X170180000Y-72822002D01*
X170180000Y-72822002D02*
X171450000Y-71552002D01*
%TO.N,Net-(J1-Pad3)*%
X177800000Y-75362002D02*
X177800000Y-78740000D01*
X173990000Y-71552002D02*
X177800000Y-75362002D01*
X173990000Y-65913000D02*
X172720000Y-64643000D01*
X173990000Y-71552002D02*
X173990000Y-65913000D01*
%TO.N,Net-(R1-Pad1)*%
X243840000Y-80010000D02*
X240030000Y-76200000D01*
X243840000Y-86360000D02*
X243840000Y-80010000D01*
%TO.N,Net-(R2-Pad1)*%
X240030000Y-88900000D02*
X240030000Y-78740000D01*
X243840000Y-92710000D02*
X240030000Y-88900000D01*
%TO.N,Net-(R8-Pad2)*%
X207129999Y-102989999D02*
X207129999Y-80129999D01*
X209550000Y-105410000D02*
X207129999Y-102989999D01*
X207129999Y-80129999D02*
X204470000Y-77470000D01*
X204470000Y-77470000D02*
X204470000Y-73660000D01*
X204470000Y-73660000D02*
X200660000Y-69850000D01*
X209550000Y-105410000D02*
X214630000Y-105410000D01*
%TO.N,Net-(LED1-Pad2)*%
X213360000Y-68580000D02*
X208280000Y-63500000D01*
X213360000Y-85090000D02*
X213360000Y-68580000D01*
D19*
%TO.N,Net-(LED2-Pad1)*%
X220980000Y-91440000D02*
X220980000Y-87630000D01*
X228600000Y-99060000D02*
X220980000Y-91440000D01*
D20*
X228600000Y-99060000D02*
X233680000Y-99060000D01*
%TD*%
D21*
%TO.N,GND*%
G36*
X260960000Y-112370000D02*
G01*
X198882000Y-112370000D01*
X198882000Y-106538665D01*
X201765000Y-106538665D01*
X201765000Y-106821335D01*
X201820147Y-107098574D01*
X201928320Y-107359727D01*
X202085363Y-107594759D01*
X202285241Y-107794637D01*
X202520273Y-107951680D01*
X202781426Y-108059853D01*
X203058665Y-108115000D01*
X203341335Y-108115000D01*
X203618574Y-108059853D01*
X203879727Y-107951680D01*
X204114759Y-107794637D01*
X204314637Y-107594759D01*
X204471680Y-107359727D01*
X204579853Y-107098574D01*
X204635000Y-106821335D01*
X204635000Y-106538665D01*
X204579853Y-106261426D01*
X204471680Y-106000273D01*
X204314637Y-105765241D01*
X204114759Y-105565363D01*
X203879727Y-105408320D01*
X203618574Y-105300147D01*
X203341335Y-105245000D01*
X203058665Y-105245000D01*
X202781426Y-105300147D01*
X202520273Y-105408320D01*
X202285241Y-105565363D01*
X202085363Y-105765241D01*
X201928320Y-106000273D01*
X201820147Y-106261426D01*
X201765000Y-106538665D01*
X198882000Y-106538665D01*
X198882000Y-98260000D01*
X201761928Y-98260000D01*
X201761928Y-99860000D01*
X201774188Y-99984482D01*
X201810498Y-100104180D01*
X201869463Y-100214494D01*
X201948815Y-100311185D01*
X202045506Y-100390537D01*
X202155820Y-100449502D01*
X202275518Y-100485812D01*
X202400000Y-100498072D01*
X204000000Y-100498072D01*
X204124482Y-100485812D01*
X204244180Y-100449502D01*
X204354494Y-100390537D01*
X204451185Y-100311185D01*
X204530537Y-100214494D01*
X204589502Y-100104180D01*
X204625812Y-99984482D01*
X204638072Y-99860000D01*
X204638072Y-98260000D01*
X204625812Y-98135518D01*
X204589502Y-98015820D01*
X204530537Y-97905506D01*
X204451185Y-97808815D01*
X204354494Y-97729463D01*
X204244180Y-97670498D01*
X204124482Y-97634188D01*
X204000000Y-97621928D01*
X202400000Y-97621928D01*
X202275518Y-97634188D01*
X202155820Y-97670498D01*
X202045506Y-97729463D01*
X201948815Y-97808815D01*
X201869463Y-97905506D01*
X201810498Y-98015820D01*
X201774188Y-98135518D01*
X201761928Y-98260000D01*
X198882000Y-98260000D01*
X198882000Y-95108665D01*
X201765000Y-95108665D01*
X201765000Y-95391335D01*
X201820147Y-95668574D01*
X201928320Y-95929727D01*
X202085363Y-96164759D01*
X202285241Y-96364637D01*
X202520273Y-96521680D01*
X202781426Y-96629853D01*
X203058665Y-96685000D01*
X203341335Y-96685000D01*
X203618574Y-96629853D01*
X203879727Y-96521680D01*
X204114759Y-96364637D01*
X204314637Y-96164759D01*
X204471680Y-95929727D01*
X204579853Y-95668574D01*
X204635000Y-95391335D01*
X204635000Y-95108665D01*
X204579853Y-94831426D01*
X204471680Y-94570273D01*
X204314637Y-94335241D01*
X204114759Y-94135363D01*
X203879727Y-93978320D01*
X203618574Y-93870147D01*
X203341335Y-93815000D01*
X203058665Y-93815000D01*
X202781426Y-93870147D01*
X202520273Y-93978320D01*
X202285241Y-94135363D01*
X202085363Y-94335241D01*
X201928320Y-94570273D01*
X201820147Y-94831426D01*
X201765000Y-95108665D01*
X198882000Y-95108665D01*
X198882000Y-86830000D01*
X201761928Y-86830000D01*
X201761928Y-88430000D01*
X201774188Y-88554482D01*
X201810498Y-88674180D01*
X201869463Y-88784494D01*
X201948815Y-88881185D01*
X202045506Y-88960537D01*
X202155820Y-89019502D01*
X202275518Y-89055812D01*
X202400000Y-89068072D01*
X204000000Y-89068072D01*
X204124482Y-89055812D01*
X204244180Y-89019502D01*
X204354494Y-88960537D01*
X204451185Y-88881185D01*
X204530537Y-88784494D01*
X204589502Y-88674180D01*
X204625812Y-88554482D01*
X204638072Y-88430000D01*
X204638072Y-86830000D01*
X204625812Y-86705518D01*
X204589502Y-86585820D01*
X204530537Y-86475506D01*
X204451185Y-86378815D01*
X204354494Y-86299463D01*
X204244180Y-86240498D01*
X204124482Y-86204188D01*
X204000000Y-86191928D01*
X202400000Y-86191928D01*
X202275518Y-86204188D01*
X202155820Y-86240498D01*
X202045506Y-86299463D01*
X201948815Y-86378815D01*
X201869463Y-86475506D01*
X201810498Y-86585820D01*
X201774188Y-86705518D01*
X201761928Y-86830000D01*
X198882000Y-86830000D01*
X198882000Y-73382702D01*
X199846903Y-73382702D01*
X199918486Y-73626671D01*
X200173996Y-73747571D01*
X200448184Y-73816300D01*
X200730512Y-73830217D01*
X201010130Y-73788787D01*
X201276292Y-73693603D01*
X201401514Y-73626671D01*
X201473097Y-73382702D01*
X200660000Y-72569605D01*
X199846903Y-73382702D01*
X198882000Y-73382702D01*
X198882000Y-72460512D01*
X199219783Y-72460512D01*
X199261213Y-72740130D01*
X199356397Y-73006292D01*
X199423329Y-73131514D01*
X199667298Y-73203097D01*
X200480395Y-72390000D01*
X199667298Y-71576903D01*
X199423329Y-71648486D01*
X199302429Y-71903996D01*
X199233700Y-72178184D01*
X199219783Y-72460512D01*
X198882000Y-72460512D01*
X198882000Y-67248665D01*
X199225000Y-67248665D01*
X199225000Y-67531335D01*
X199280147Y-67808574D01*
X199388320Y-68069727D01*
X199545363Y-68304759D01*
X199745241Y-68504637D01*
X199980273Y-68661680D01*
X200241426Y-68769853D01*
X200513226Y-68823918D01*
X200358102Y-68854774D01*
X200169744Y-68932795D01*
X200000226Y-69046063D01*
X199856063Y-69190226D01*
X199742795Y-69359744D01*
X199664774Y-69548102D01*
X199625000Y-69748061D01*
X199625000Y-69951939D01*
X199664774Y-70151898D01*
X199742795Y-70340256D01*
X199856063Y-70509774D01*
X200000226Y-70653937D01*
X200169744Y-70767205D01*
X200358102Y-70845226D01*
X200558061Y-70885000D01*
X200584843Y-70885000D01*
X200652744Y-70952901D01*
X200589488Y-70949783D01*
X200309870Y-70991213D01*
X200043708Y-71086397D01*
X199918486Y-71153329D01*
X199846903Y-71397298D01*
X200660000Y-72210395D01*
X200674143Y-72196253D01*
X200853748Y-72375858D01*
X200839605Y-72390000D01*
X201652702Y-73203097D01*
X201896671Y-73131514D01*
X202017571Y-72876004D01*
X202086300Y-72601816D01*
X202096417Y-72396574D01*
X203685001Y-73985158D01*
X203685000Y-77431447D01*
X203681203Y-77470000D01*
X203685000Y-77508553D01*
X203685000Y-77508560D01*
X203696359Y-77623886D01*
X203741246Y-77771859D01*
X203814138Y-77908232D01*
X203912236Y-78027764D01*
X203942190Y-78052347D01*
X206345000Y-80455157D01*
X206344999Y-102951446D01*
X206341202Y-102989999D01*
X206344999Y-103028552D01*
X206344999Y-103028559D01*
X206356358Y-103143885D01*
X206401245Y-103291858D01*
X206474137Y-103428231D01*
X206572235Y-103547763D01*
X206602189Y-103572346D01*
X208967658Y-105937816D01*
X208992236Y-105967764D01*
X209022184Y-105992342D01*
X209022187Y-105992345D01*
X209051559Y-106016450D01*
X209111767Y-106065862D01*
X209248140Y-106138754D01*
X209361672Y-106173194D01*
X209396112Y-106183641D01*
X209410490Y-106185057D01*
X209511439Y-106195000D01*
X209511446Y-106195000D01*
X209549999Y-106198797D01*
X209588552Y-106195000D01*
X213428661Y-106195000D01*
X213515363Y-106324759D01*
X213715241Y-106524637D01*
X213950273Y-106681680D01*
X214211426Y-106789853D01*
X214488665Y-106845000D01*
X214771335Y-106845000D01*
X215048574Y-106789853D01*
X215309727Y-106681680D01*
X215544759Y-106524637D01*
X215744637Y-106324759D01*
X215901680Y-106089727D01*
X216009853Y-105828574D01*
X216065000Y-105551335D01*
X216065000Y-105268665D01*
X223355000Y-105268665D01*
X223355000Y-105551335D01*
X223410147Y-105828574D01*
X223518320Y-106089727D01*
X223675363Y-106324759D01*
X223875241Y-106524637D01*
X224110273Y-106681680D01*
X224371426Y-106789853D01*
X224648665Y-106845000D01*
X224931335Y-106845000D01*
X225025418Y-106826285D01*
X228991070Y-110791938D01*
X228991075Y-110791942D01*
X229250558Y-111051426D01*
X229276709Y-111083291D01*
X229403854Y-111187636D01*
X229548913Y-111265172D01*
X229706311Y-111312918D01*
X229870000Y-111329040D01*
X229911018Y-111325000D01*
X241086984Y-111325000D01*
X241128002Y-111329040D01*
X241169020Y-111325000D01*
X241169021Y-111325000D01*
X241291691Y-111312918D01*
X241449089Y-111265172D01*
X241594148Y-111187636D01*
X241721293Y-111083291D01*
X241747448Y-111051421D01*
X243798997Y-108999872D01*
X247955000Y-108999872D01*
X247955000Y-109440128D01*
X248040890Y-109871925D01*
X248209369Y-110278669D01*
X248453962Y-110644729D01*
X248765271Y-110956038D01*
X249131331Y-111200631D01*
X249538075Y-111369110D01*
X249969872Y-111455000D01*
X250410128Y-111455000D01*
X250841925Y-111369110D01*
X251248669Y-111200631D01*
X251614729Y-110956038D01*
X251926038Y-110644729D01*
X252170631Y-110278669D01*
X252339110Y-109871925D01*
X252425000Y-109440128D01*
X252425000Y-108999872D01*
X252339110Y-108568075D01*
X252170631Y-108161331D01*
X251926038Y-107795271D01*
X251614729Y-107483962D01*
X251248669Y-107239369D01*
X250841925Y-107070890D01*
X250410128Y-106985000D01*
X249969872Y-106985000D01*
X249538075Y-107070890D01*
X249131331Y-107239369D01*
X248765271Y-107483962D01*
X248453962Y-107795271D01*
X248209369Y-108161331D01*
X248040890Y-108568075D01*
X247955000Y-108999872D01*
X243798997Y-108999872D01*
X255831427Y-96967443D01*
X255863291Y-96941293D01*
X255967636Y-96814148D01*
X256045172Y-96669089D01*
X256092918Y-96511691D01*
X256105000Y-96389021D01*
X256105000Y-96389011D01*
X256109039Y-96348003D01*
X256105000Y-96306995D01*
X256105000Y-62271015D01*
X256109040Y-62229999D01*
X256098220Y-62120147D01*
X256092918Y-62066311D01*
X256045172Y-61908913D01*
X255967636Y-61763854D01*
X255863291Y-61636709D01*
X255831428Y-61610560D01*
X254619446Y-60398579D01*
X254593291Y-60366709D01*
X254466146Y-60262364D01*
X254321087Y-60184828D01*
X254163689Y-60137082D01*
X254041019Y-60125000D01*
X254041018Y-60125000D01*
X254000000Y-60120960D01*
X253958982Y-60125000D01*
X252948072Y-60125000D01*
X252948072Y-60110000D01*
X252935812Y-59985518D01*
X252899502Y-59865820D01*
X252840537Y-59755506D01*
X252761185Y-59658815D01*
X252664494Y-59579463D01*
X252554180Y-59520498D01*
X252434482Y-59484188D01*
X252310000Y-59471928D01*
X250610000Y-59471928D01*
X250485518Y-59484188D01*
X250365820Y-59520498D01*
X250255506Y-59579463D01*
X250158815Y-59658815D01*
X250079463Y-59755506D01*
X250020498Y-59865820D01*
X249984188Y-59985518D01*
X249971928Y-60110000D01*
X249971928Y-61810000D01*
X249984188Y-61934482D01*
X250020498Y-62054180D01*
X250079463Y-62164494D01*
X250158815Y-62261185D01*
X250255506Y-62340537D01*
X250365820Y-62399502D01*
X250446466Y-62423966D01*
X250362412Y-62499731D01*
X250188359Y-62733080D01*
X250063175Y-62995901D01*
X250018524Y-63143110D01*
X250139845Y-63373000D01*
X251333000Y-63373000D01*
X251333000Y-63353000D01*
X251587000Y-63353000D01*
X251587000Y-63373000D01*
X252780155Y-63373000D01*
X252901476Y-63143110D01*
X252856825Y-62995901D01*
X252731641Y-62733080D01*
X252557588Y-62499731D01*
X252473534Y-62423966D01*
X252554180Y-62399502D01*
X252664494Y-62340537D01*
X252761185Y-62261185D01*
X252840537Y-62164494D01*
X252899502Y-62054180D01*
X252935812Y-61934482D01*
X252948072Y-61810000D01*
X252948072Y-61795000D01*
X253654133Y-61795000D01*
X254435000Y-62575868D01*
X254435001Y-96002133D01*
X252863278Y-97573856D01*
X252873739Y-97548601D01*
X252975000Y-97039525D01*
X252975000Y-96520475D01*
X252873739Y-96011399D01*
X252675107Y-95531859D01*
X252386738Y-95100285D01*
X252019715Y-94733262D01*
X251588141Y-94444893D01*
X251108601Y-94246261D01*
X250599525Y-94145000D01*
X250080475Y-94145000D01*
X249571399Y-94246261D01*
X249091859Y-94444893D01*
X248660285Y-94733262D01*
X248293262Y-95100285D01*
X248004893Y-95531859D01*
X247806261Y-96011399D01*
X247705000Y-96520475D01*
X247705000Y-97039525D01*
X247806261Y-97548601D01*
X248004893Y-98028141D01*
X248293262Y-98459715D01*
X248660285Y-98826738D01*
X249091859Y-99115107D01*
X249571399Y-99313739D01*
X250080475Y-99415000D01*
X250599525Y-99415000D01*
X251108601Y-99313739D01*
X251133856Y-99303278D01*
X245256657Y-105180478D01*
X245238787Y-105059870D01*
X245143603Y-104793708D01*
X245076671Y-104668486D01*
X244832702Y-104596903D01*
X244019605Y-105410000D01*
X244033748Y-105424143D01*
X243854143Y-105603748D01*
X243840000Y-105589605D01*
X243026903Y-106402702D01*
X243098486Y-106646671D01*
X243353996Y-106767571D01*
X243606316Y-106830819D01*
X240782135Y-109655000D01*
X230215867Y-109655000D01*
X230171942Y-109611075D01*
X230171938Y-109611070D01*
X226206285Y-105645418D01*
X226225000Y-105551335D01*
X226225000Y-105268665D01*
X232245000Y-105268665D01*
X232245000Y-105551335D01*
X232300147Y-105828574D01*
X232408320Y-106089727D01*
X232565363Y-106324759D01*
X232765241Y-106524637D01*
X233000273Y-106681680D01*
X233261426Y-106789853D01*
X233538665Y-106845000D01*
X233821335Y-106845000D01*
X234098574Y-106789853D01*
X234359727Y-106681680D01*
X234594759Y-106524637D01*
X234794637Y-106324759D01*
X234951680Y-106089727D01*
X235059853Y-105828574D01*
X235115000Y-105551335D01*
X235115000Y-105480512D01*
X242399783Y-105480512D01*
X242441213Y-105760130D01*
X242536397Y-106026292D01*
X242603329Y-106151514D01*
X242847298Y-106223097D01*
X243660395Y-105410000D01*
X242847298Y-104596903D01*
X242603329Y-104668486D01*
X242482429Y-104923996D01*
X242413700Y-105198184D01*
X242399783Y-105480512D01*
X235115000Y-105480512D01*
X235115000Y-105268665D01*
X235059853Y-104991426D01*
X234951680Y-104730273D01*
X234794637Y-104495241D01*
X234716694Y-104417298D01*
X243026903Y-104417298D01*
X243840000Y-105230395D01*
X244653097Y-104417298D01*
X244581514Y-104173329D01*
X244326004Y-104052429D01*
X244051816Y-103983700D01*
X243769488Y-103969783D01*
X243489870Y-104011213D01*
X243223708Y-104106397D01*
X243098486Y-104173329D01*
X243026903Y-104417298D01*
X234716694Y-104417298D01*
X234594759Y-104295363D01*
X234359727Y-104138320D01*
X234098574Y-104030147D01*
X233821335Y-103975000D01*
X233538665Y-103975000D01*
X233261426Y-104030147D01*
X233000273Y-104138320D01*
X232765241Y-104295363D01*
X232565363Y-104495241D01*
X232408320Y-104730273D01*
X232300147Y-104991426D01*
X232245000Y-105268665D01*
X226225000Y-105268665D01*
X226169853Y-104991426D01*
X226061680Y-104730273D01*
X225904637Y-104495241D01*
X225704759Y-104295363D01*
X225469727Y-104138320D01*
X225208574Y-104030147D01*
X224931335Y-103975000D01*
X224648665Y-103975000D01*
X224371426Y-104030147D01*
X224110273Y-104138320D01*
X223875241Y-104295363D01*
X223675363Y-104495241D01*
X223518320Y-104730273D01*
X223410147Y-104991426D01*
X223355000Y-105268665D01*
X216065000Y-105268665D01*
X216009853Y-104991426D01*
X215901680Y-104730273D01*
X215744637Y-104495241D01*
X215544759Y-104295363D01*
X215309727Y-104138320D01*
X215048574Y-104030147D01*
X214771335Y-103975000D01*
X214488665Y-103975000D01*
X214211426Y-104030147D01*
X213950273Y-104138320D01*
X213715241Y-104295363D01*
X213515363Y-104495241D01*
X213428661Y-104625000D01*
X209875158Y-104625000D01*
X207914999Y-102664842D01*
X207914999Y-98918665D01*
X213195000Y-98918665D01*
X213195000Y-99201335D01*
X213250147Y-99478574D01*
X213358320Y-99739727D01*
X213515363Y-99974759D01*
X213715241Y-100174637D01*
X213950273Y-100331680D01*
X214211426Y-100439853D01*
X214488665Y-100495000D01*
X214771335Y-100495000D01*
X215048574Y-100439853D01*
X215309727Y-100331680D01*
X215544759Y-100174637D01*
X215744637Y-99974759D01*
X215901680Y-99739727D01*
X216009853Y-99478574D01*
X216065000Y-99201335D01*
X216065000Y-98918665D01*
X223355000Y-98918665D01*
X223355000Y-99201335D01*
X223410147Y-99478574D01*
X223518320Y-99739727D01*
X223675363Y-99974759D01*
X223875241Y-100174637D01*
X224110273Y-100331680D01*
X224371426Y-100439853D01*
X224648665Y-100495000D01*
X224931335Y-100495000D01*
X225208574Y-100439853D01*
X225469727Y-100331680D01*
X225704759Y-100174637D01*
X225904637Y-99974759D01*
X226061680Y-99739727D01*
X226169853Y-99478574D01*
X226225000Y-99201335D01*
X226225000Y-98918665D01*
X226169853Y-98641426D01*
X226061680Y-98380273D01*
X225904637Y-98145241D01*
X225704759Y-97945363D01*
X225469727Y-97788320D01*
X225208574Y-97680147D01*
X224931335Y-97625000D01*
X224648665Y-97625000D01*
X224371426Y-97680147D01*
X224110273Y-97788320D01*
X223875241Y-97945363D01*
X223675363Y-98145241D01*
X223518320Y-98380273D01*
X223410147Y-98641426D01*
X223355000Y-98918665D01*
X216065000Y-98918665D01*
X216009853Y-98641426D01*
X215901680Y-98380273D01*
X215744637Y-98145241D01*
X215544759Y-97945363D01*
X215309727Y-97788320D01*
X215048574Y-97680147D01*
X214771335Y-97625000D01*
X214488665Y-97625000D01*
X214211426Y-97680147D01*
X213950273Y-97788320D01*
X213715241Y-97945363D01*
X213515363Y-98145241D01*
X213358320Y-98380273D01*
X213250147Y-98641426D01*
X213195000Y-98918665D01*
X207914999Y-98918665D01*
X207914999Y-92568665D01*
X213195000Y-92568665D01*
X213195000Y-92851335D01*
X213250147Y-93128574D01*
X213358320Y-93389727D01*
X213515363Y-93624759D01*
X213715241Y-93824637D01*
X213950273Y-93981680D01*
X214211426Y-94089853D01*
X214488665Y-94145000D01*
X214771335Y-94145000D01*
X215048574Y-94089853D01*
X215309727Y-93981680D01*
X215544759Y-93824637D01*
X215744637Y-93624759D01*
X215901680Y-93389727D01*
X216009853Y-93128574D01*
X216065000Y-92851335D01*
X216065000Y-92568665D01*
X216009853Y-92291426D01*
X215901680Y-92030273D01*
X215744637Y-91795241D01*
X215544759Y-91595363D01*
X215309727Y-91438320D01*
X215048574Y-91330147D01*
X214771335Y-91275000D01*
X214488665Y-91275000D01*
X214211426Y-91330147D01*
X213950273Y-91438320D01*
X213715241Y-91595363D01*
X213515363Y-91795241D01*
X213358320Y-92030273D01*
X213250147Y-92291426D01*
X213195000Y-92568665D01*
X207914999Y-92568665D01*
X207914999Y-80168555D01*
X207918796Y-80129999D01*
X207914999Y-80091443D01*
X207914999Y-80091438D01*
X207911019Y-80051025D01*
X207903641Y-79976112D01*
X207858753Y-79828139D01*
X207837654Y-79788665D01*
X207785861Y-79691766D01*
X207687763Y-79572235D01*
X207657809Y-79547652D01*
X205255000Y-77144843D01*
X205255000Y-76549039D01*
X206888096Y-76549039D01*
X206928754Y-76683087D01*
X207048963Y-76937420D01*
X207216481Y-77163414D01*
X207424869Y-77352385D01*
X207666119Y-77497070D01*
X207930960Y-77591909D01*
X208153000Y-77470624D01*
X208153000Y-76327000D01*
X208407000Y-76327000D01*
X208407000Y-77470624D01*
X208629040Y-77591909D01*
X208893881Y-77497070D01*
X209135131Y-77352385D01*
X209343519Y-77163414D01*
X209511037Y-76937420D01*
X209631246Y-76683087D01*
X209671904Y-76549039D01*
X209549915Y-76327000D01*
X208407000Y-76327000D01*
X208153000Y-76327000D01*
X207010085Y-76327000D01*
X206888096Y-76549039D01*
X205255000Y-76549039D01*
X205255000Y-73698556D01*
X205258797Y-73660000D01*
X205255000Y-73621444D01*
X205255000Y-73621439D01*
X205250173Y-73572429D01*
X205243642Y-73506113D01*
X205198754Y-73358140D01*
X205125862Y-73221767D01*
X205027764Y-73102236D01*
X204997810Y-73077653D01*
X201695000Y-69774843D01*
X201695000Y-69748061D01*
X201655226Y-69548102D01*
X201577205Y-69359744D01*
X201463937Y-69190226D01*
X201319774Y-69046063D01*
X201150256Y-68932795D01*
X200961898Y-68854774D01*
X200806774Y-68823918D01*
X201078574Y-68769853D01*
X201339727Y-68661680D01*
X201574759Y-68504637D01*
X201774637Y-68304759D01*
X201931680Y-68069727D01*
X202039853Y-67808574D01*
X202095000Y-67531335D01*
X202095000Y-67248665D01*
X202039853Y-66971426D01*
X201931680Y-66710273D01*
X201774637Y-66475241D01*
X201574759Y-66275363D01*
X201339727Y-66118320D01*
X201078574Y-66010147D01*
X200801335Y-65955000D01*
X200518665Y-65955000D01*
X200241426Y-66010147D01*
X199980273Y-66118320D01*
X199745241Y-66275363D01*
X199545363Y-66475241D01*
X199388320Y-66710273D01*
X199280147Y-66971426D01*
X199225000Y-67248665D01*
X198882000Y-67248665D01*
X198882000Y-60160000D01*
X206841928Y-60160000D01*
X206841928Y-61760000D01*
X206854188Y-61884482D01*
X206890498Y-62004180D01*
X206949463Y-62114494D01*
X207028815Y-62211185D01*
X207125506Y-62290537D01*
X207235820Y-62349502D01*
X207355518Y-62385812D01*
X207363961Y-62386643D01*
X207165363Y-62585241D01*
X207008320Y-62820273D01*
X206900147Y-63081426D01*
X206845000Y-63358665D01*
X206845000Y-63641335D01*
X206900147Y-63918574D01*
X207008320Y-64179727D01*
X207165363Y-64414759D01*
X207365241Y-64614637D01*
X207597759Y-64770000D01*
X207365241Y-64925363D01*
X207165363Y-65125241D01*
X207008320Y-65360273D01*
X206900147Y-65621426D01*
X206845000Y-65898665D01*
X206845000Y-66181335D01*
X206900147Y-66458574D01*
X207008320Y-66719727D01*
X207165363Y-66954759D01*
X207365241Y-67154637D01*
X207597759Y-67310000D01*
X207365241Y-67465363D01*
X207165363Y-67665241D01*
X207008320Y-67900273D01*
X206900147Y-68161426D01*
X206845000Y-68438665D01*
X206845000Y-68721335D01*
X206900147Y-68998574D01*
X207008320Y-69259727D01*
X207165363Y-69494759D01*
X207365241Y-69694637D01*
X207597759Y-69850000D01*
X207365241Y-70005363D01*
X207165363Y-70205241D01*
X207008320Y-70440273D01*
X206900147Y-70701426D01*
X206845000Y-70978665D01*
X206845000Y-71261335D01*
X206900147Y-71538574D01*
X207008320Y-71799727D01*
X207165363Y-72034759D01*
X207365241Y-72234637D01*
X207597759Y-72390000D01*
X207365241Y-72545363D01*
X207165363Y-72745241D01*
X207008320Y-72980273D01*
X206900147Y-73241426D01*
X206845000Y-73518665D01*
X206845000Y-73801335D01*
X206900147Y-74078574D01*
X207008320Y-74339727D01*
X207165363Y-74574759D01*
X207365241Y-74774637D01*
X207600273Y-74931680D01*
X207610865Y-74936067D01*
X207424869Y-75047615D01*
X207216481Y-75236586D01*
X207048963Y-75462580D01*
X206928754Y-75716913D01*
X206888096Y-75850961D01*
X207010085Y-76073000D01*
X208153000Y-76073000D01*
X208153000Y-76053000D01*
X208407000Y-76053000D01*
X208407000Y-76073000D01*
X209549915Y-76073000D01*
X209671904Y-75850961D01*
X209631246Y-75716913D01*
X209511037Y-75462580D01*
X209343519Y-75236586D01*
X209135131Y-75047615D01*
X208949135Y-74936067D01*
X208959727Y-74931680D01*
X209194759Y-74774637D01*
X209394637Y-74574759D01*
X209551680Y-74339727D01*
X209659853Y-74078574D01*
X209715000Y-73801335D01*
X209715000Y-73518665D01*
X209659853Y-73241426D01*
X209551680Y-72980273D01*
X209394637Y-72745241D01*
X209194759Y-72545363D01*
X208962241Y-72390000D01*
X209194759Y-72234637D01*
X209394637Y-72034759D01*
X209551680Y-71799727D01*
X209659853Y-71538574D01*
X209715000Y-71261335D01*
X209715000Y-70978665D01*
X209659853Y-70701426D01*
X209551680Y-70440273D01*
X209394637Y-70205241D01*
X209194759Y-70005363D01*
X208962241Y-69850000D01*
X209194759Y-69694637D01*
X209394637Y-69494759D01*
X209551680Y-69259727D01*
X209659853Y-68998574D01*
X209715000Y-68721335D01*
X209715000Y-68438665D01*
X209659853Y-68161426D01*
X209551680Y-67900273D01*
X209394637Y-67665241D01*
X209194759Y-67465363D01*
X208962241Y-67310000D01*
X209194759Y-67154637D01*
X209394637Y-66954759D01*
X209551680Y-66719727D01*
X209659853Y-66458574D01*
X209715000Y-66181335D01*
X209715000Y-66045157D01*
X212575001Y-68905159D01*
X212575000Y-83768392D01*
X212381495Y-83897688D01*
X212167688Y-84111495D01*
X211999701Y-84362905D01*
X211883989Y-84642257D01*
X211825000Y-84938816D01*
X211825000Y-85241184D01*
X211883989Y-85537743D01*
X211999701Y-85817095D01*
X212167688Y-86068505D01*
X212234127Y-86134944D01*
X212215820Y-86140498D01*
X212105506Y-86199463D01*
X212008815Y-86278815D01*
X211929463Y-86375506D01*
X211870498Y-86485820D01*
X211834188Y-86605518D01*
X211821928Y-86730000D01*
X211821928Y-88530000D01*
X211834188Y-88654482D01*
X211870498Y-88774180D01*
X211929463Y-88884494D01*
X212008815Y-88981185D01*
X212105506Y-89060537D01*
X212215820Y-89119502D01*
X212335518Y-89155812D01*
X212460000Y-89168072D01*
X214260000Y-89168072D01*
X214384482Y-89155812D01*
X214504180Y-89119502D01*
X214614494Y-89060537D01*
X214711185Y-88981185D01*
X214790537Y-88884494D01*
X214849502Y-88774180D01*
X214885812Y-88654482D01*
X214898072Y-88530000D01*
X214898072Y-86730000D01*
X219441928Y-86730000D01*
X219441928Y-88530000D01*
X219454188Y-88654482D01*
X219490498Y-88774180D01*
X219549463Y-88884494D01*
X219628815Y-88981185D01*
X219725506Y-89060537D01*
X219835820Y-89119502D01*
X219955518Y-89155812D01*
X220080000Y-89168072D01*
X220145001Y-89168072D01*
X220145000Y-91398981D01*
X220140960Y-91440000D01*
X220145000Y-91481018D01*
X220157082Y-91603688D01*
X220204828Y-91761086D01*
X220282364Y-91906145D01*
X220386709Y-92033291D01*
X220418579Y-92059446D01*
X228038570Y-99679438D01*
X228133854Y-99757636D01*
X228278913Y-99835171D01*
X228436311Y-99882917D01*
X228599999Y-99899039D01*
X228763687Y-99882917D01*
X228888684Y-99845000D01*
X232478661Y-99845000D01*
X232565363Y-99974759D01*
X232765241Y-100174637D01*
X233000273Y-100331680D01*
X233261426Y-100439853D01*
X233538665Y-100495000D01*
X233821335Y-100495000D01*
X234098574Y-100439853D01*
X234359727Y-100331680D01*
X234594759Y-100174637D01*
X234794637Y-99974759D01*
X234951680Y-99739727D01*
X235059853Y-99478574D01*
X235073684Y-99409039D01*
X242448096Y-99409039D01*
X242488754Y-99543087D01*
X242608963Y-99797420D01*
X242776481Y-100023414D01*
X242984869Y-100212385D01*
X243226119Y-100357070D01*
X243490960Y-100451909D01*
X243713000Y-100330624D01*
X243713000Y-99187000D01*
X243967000Y-99187000D01*
X243967000Y-100330624D01*
X244189040Y-100451909D01*
X244453881Y-100357070D01*
X244695131Y-100212385D01*
X244903519Y-100023414D01*
X245071037Y-99797420D01*
X245191246Y-99543087D01*
X245231904Y-99409039D01*
X245109915Y-99187000D01*
X243967000Y-99187000D01*
X243713000Y-99187000D01*
X242570085Y-99187000D01*
X242448096Y-99409039D01*
X235073684Y-99409039D01*
X235115000Y-99201335D01*
X235115000Y-98918665D01*
X235073685Y-98710961D01*
X242448096Y-98710961D01*
X242570085Y-98933000D01*
X243713000Y-98933000D01*
X243713000Y-97789376D01*
X243967000Y-97789376D01*
X243967000Y-98933000D01*
X245109915Y-98933000D01*
X245231904Y-98710961D01*
X245191246Y-98576913D01*
X245071037Y-98322580D01*
X244903519Y-98096586D01*
X244695131Y-97907615D01*
X244453881Y-97762930D01*
X244189040Y-97668091D01*
X243967000Y-97789376D01*
X243713000Y-97789376D01*
X243490960Y-97668091D01*
X243226119Y-97762930D01*
X242984869Y-97907615D01*
X242776481Y-98096586D01*
X242608963Y-98322580D01*
X242488754Y-98576913D01*
X242448096Y-98710961D01*
X235073685Y-98710961D01*
X235059853Y-98641426D01*
X234951680Y-98380273D01*
X234794637Y-98145241D01*
X234594759Y-97945363D01*
X234359727Y-97788320D01*
X234098574Y-97680147D01*
X233821335Y-97625000D01*
X233538665Y-97625000D01*
X233261426Y-97680147D01*
X233000273Y-97788320D01*
X232765241Y-97945363D01*
X232565363Y-98145241D01*
X232478661Y-98275000D01*
X228995868Y-98275000D01*
X224865867Y-94145000D01*
X224931335Y-94145000D01*
X225208574Y-94089853D01*
X225469727Y-93981680D01*
X225704759Y-93824637D01*
X225904637Y-93624759D01*
X226061680Y-93389727D01*
X226169853Y-93128574D01*
X226225000Y-92851335D01*
X226225000Y-92568665D01*
X232245000Y-92568665D01*
X232245000Y-92851335D01*
X232300147Y-93128574D01*
X232408320Y-93389727D01*
X232565363Y-93624759D01*
X232765241Y-93824637D01*
X233000273Y-93981680D01*
X233261426Y-94089853D01*
X233538665Y-94145000D01*
X233821335Y-94145000D01*
X234098574Y-94089853D01*
X234359727Y-93981680D01*
X234594759Y-93824637D01*
X234794637Y-93624759D01*
X234951680Y-93389727D01*
X235059853Y-93128574D01*
X235115000Y-92851335D01*
X235115000Y-92568665D01*
X235059853Y-92291426D01*
X234951680Y-92030273D01*
X234794637Y-91795241D01*
X234594759Y-91595363D01*
X234359727Y-91438320D01*
X234098574Y-91330147D01*
X233821335Y-91275000D01*
X233538665Y-91275000D01*
X233261426Y-91330147D01*
X233000273Y-91438320D01*
X232765241Y-91595363D01*
X232565363Y-91795241D01*
X232408320Y-92030273D01*
X232300147Y-92291426D01*
X232245000Y-92568665D01*
X226225000Y-92568665D01*
X226169853Y-92291426D01*
X226061680Y-92030273D01*
X225904637Y-91795241D01*
X225704759Y-91595363D01*
X225469727Y-91438320D01*
X225208574Y-91330147D01*
X224931335Y-91275000D01*
X224648665Y-91275000D01*
X224371426Y-91330147D01*
X224110273Y-91438320D01*
X223875241Y-91595363D01*
X223675363Y-91795241D01*
X223518320Y-92030273D01*
X223410147Y-92291426D01*
X223355000Y-92568665D01*
X223355000Y-92634133D01*
X221815000Y-91094133D01*
X221815000Y-89168072D01*
X221880000Y-89168072D01*
X222004482Y-89155812D01*
X222124180Y-89119502D01*
X222234494Y-89060537D01*
X222331185Y-88981185D01*
X222410537Y-88884494D01*
X222469502Y-88774180D01*
X222505812Y-88654482D01*
X222518072Y-88530000D01*
X222518072Y-86730000D01*
X222505812Y-86605518D01*
X222469502Y-86485820D01*
X222410537Y-86375506D01*
X222331185Y-86278815D01*
X222257892Y-86218665D01*
X232245000Y-86218665D01*
X232245000Y-86501335D01*
X232300147Y-86778574D01*
X232408320Y-87039727D01*
X232565363Y-87274759D01*
X232765241Y-87474637D01*
X233000273Y-87631680D01*
X233261426Y-87739853D01*
X233538665Y-87795000D01*
X233821335Y-87795000D01*
X234098574Y-87739853D01*
X234359727Y-87631680D01*
X234594759Y-87474637D01*
X234794637Y-87274759D01*
X234951680Y-87039727D01*
X235059853Y-86778574D01*
X235115000Y-86501335D01*
X235115000Y-86218665D01*
X235059853Y-85941426D01*
X234951680Y-85680273D01*
X234794637Y-85445241D01*
X234594759Y-85245363D01*
X234359727Y-85088320D01*
X234098574Y-84980147D01*
X233821335Y-84925000D01*
X233538665Y-84925000D01*
X233261426Y-84980147D01*
X233000273Y-85088320D01*
X232765241Y-85245363D01*
X232565363Y-85445241D01*
X232408320Y-85680273D01*
X232300147Y-85941426D01*
X232245000Y-86218665D01*
X222257892Y-86218665D01*
X222234494Y-86199463D01*
X222124180Y-86140498D01*
X222105873Y-86134944D01*
X222172312Y-86068505D01*
X222340299Y-85817095D01*
X222456011Y-85537743D01*
X222515000Y-85241184D01*
X222515000Y-84938816D01*
X222456011Y-84642257D01*
X222340299Y-84362905D01*
X222172312Y-84111495D01*
X221958505Y-83897688D01*
X221707095Y-83729701D01*
X221427743Y-83613989D01*
X221131184Y-83555000D01*
X220828816Y-83555000D01*
X220532257Y-83613989D01*
X220252905Y-83729701D01*
X220001495Y-83897688D01*
X219787688Y-84111495D01*
X219619701Y-84362905D01*
X219503989Y-84642257D01*
X219445000Y-84938816D01*
X219445000Y-85241184D01*
X219503989Y-85537743D01*
X219619701Y-85817095D01*
X219787688Y-86068505D01*
X219854127Y-86134944D01*
X219835820Y-86140498D01*
X219725506Y-86199463D01*
X219628815Y-86278815D01*
X219549463Y-86375506D01*
X219490498Y-86485820D01*
X219454188Y-86605518D01*
X219441928Y-86730000D01*
X214898072Y-86730000D01*
X214885812Y-86605518D01*
X214849502Y-86485820D01*
X214790537Y-86375506D01*
X214711185Y-86278815D01*
X214614494Y-86199463D01*
X214504180Y-86140498D01*
X214485873Y-86134944D01*
X214552312Y-86068505D01*
X214720299Y-85817095D01*
X214836011Y-85537743D01*
X214895000Y-85241184D01*
X214895000Y-84938816D01*
X214836011Y-84642257D01*
X214720299Y-84362905D01*
X214552312Y-84111495D01*
X214338505Y-83897688D01*
X214145000Y-83768392D01*
X214145000Y-79788665D01*
X225895000Y-79788665D01*
X225895000Y-80071335D01*
X225950147Y-80348574D01*
X226058320Y-80609727D01*
X226215363Y-80844759D01*
X226415241Y-81044637D01*
X226650273Y-81201680D01*
X226911426Y-81309853D01*
X227188665Y-81365000D01*
X227471335Y-81365000D01*
X227748574Y-81309853D01*
X228009727Y-81201680D01*
X228244759Y-81044637D01*
X228444637Y-80844759D01*
X228601680Y-80609727D01*
X228709853Y-80348574D01*
X228765000Y-80071335D01*
X228765000Y-79788665D01*
X228709853Y-79511426D01*
X228601680Y-79250273D01*
X228444637Y-79015241D01*
X228244759Y-78815363D01*
X228009727Y-78658320D01*
X227748574Y-78550147D01*
X227471335Y-78495000D01*
X227188665Y-78495000D01*
X226911426Y-78550147D01*
X226650273Y-78658320D01*
X226415241Y-78815363D01*
X226215363Y-79015241D01*
X226058320Y-79250273D01*
X225950147Y-79511426D01*
X225895000Y-79788665D01*
X214145000Y-79788665D01*
X214145000Y-68618556D01*
X214148797Y-68580000D01*
X214145000Y-68541444D01*
X214145000Y-68541439D01*
X214141020Y-68501026D01*
X214133642Y-68426113D01*
X214088754Y-68278140D01*
X214015862Y-68141767D01*
X213966450Y-68081559D01*
X213942345Y-68052187D01*
X213942342Y-68052184D01*
X213917764Y-68022236D01*
X213887816Y-67997658D01*
X209684554Y-63794397D01*
X209715000Y-63641335D01*
X209715000Y-63358665D01*
X209659853Y-63081426D01*
X209551680Y-62820273D01*
X209394637Y-62585241D01*
X209196039Y-62386643D01*
X209204482Y-62385812D01*
X209324180Y-62349502D01*
X209434494Y-62290537D01*
X209531185Y-62211185D01*
X209610537Y-62114494D01*
X209669502Y-62004180D01*
X209705812Y-61884482D01*
X209718072Y-61760000D01*
X209718072Y-60818665D01*
X214465000Y-60818665D01*
X214465000Y-61101335D01*
X214520147Y-61378574D01*
X214628320Y-61639727D01*
X214785363Y-61874759D01*
X214985241Y-62074637D01*
X215217759Y-62230000D01*
X214985241Y-62385363D01*
X214785363Y-62585241D01*
X214628320Y-62820273D01*
X214520147Y-63081426D01*
X214465000Y-63358665D01*
X214465000Y-63641335D01*
X214520147Y-63918574D01*
X214628320Y-64179727D01*
X214785363Y-64414759D01*
X214985241Y-64614637D01*
X215217759Y-64770000D01*
X214985241Y-64925363D01*
X214785363Y-65125241D01*
X214628320Y-65360273D01*
X214520147Y-65621426D01*
X214465000Y-65898665D01*
X214465000Y-66181335D01*
X214520147Y-66458574D01*
X214628320Y-66719727D01*
X214785363Y-66954759D01*
X214985241Y-67154637D01*
X215217759Y-67310000D01*
X214985241Y-67465363D01*
X214785363Y-67665241D01*
X214628320Y-67900273D01*
X214520147Y-68161426D01*
X214465000Y-68438665D01*
X214465000Y-68721335D01*
X214520147Y-68998574D01*
X214628320Y-69259727D01*
X214785363Y-69494759D01*
X214985241Y-69694637D01*
X215217759Y-69850000D01*
X214985241Y-70005363D01*
X214785363Y-70205241D01*
X214628320Y-70440273D01*
X214520147Y-70701426D01*
X214465000Y-70978665D01*
X214465000Y-71261335D01*
X214520147Y-71538574D01*
X214628320Y-71799727D01*
X214785363Y-72034759D01*
X214985241Y-72234637D01*
X215217759Y-72390000D01*
X214985241Y-72545363D01*
X214785363Y-72745241D01*
X214628320Y-72980273D01*
X214520147Y-73241426D01*
X214465000Y-73518665D01*
X214465000Y-73801335D01*
X214520147Y-74078574D01*
X214628320Y-74339727D01*
X214785363Y-74574759D01*
X214985241Y-74774637D01*
X215217759Y-74930000D01*
X214985241Y-75085363D01*
X214785363Y-75285241D01*
X214628320Y-75520273D01*
X214520147Y-75781426D01*
X214465000Y-76058665D01*
X214465000Y-76341335D01*
X214520147Y-76618574D01*
X214628320Y-76879727D01*
X214785363Y-77114759D01*
X214985241Y-77314637D01*
X215220273Y-77471680D01*
X215481426Y-77579853D01*
X215758665Y-77635000D01*
X216041335Y-77635000D01*
X216318574Y-77579853D01*
X216579727Y-77471680D01*
X216814759Y-77314637D01*
X217014637Y-77114759D01*
X217171680Y-76879727D01*
X217279853Y-76618574D01*
X217335000Y-76341335D01*
X217335000Y-76058665D01*
X217307955Y-75922702D01*
X226516903Y-75922702D01*
X226588486Y-76166671D01*
X226843996Y-76287571D01*
X227118184Y-76356300D01*
X227400512Y-76370217D01*
X227680130Y-76328787D01*
X227946292Y-76233603D01*
X228071514Y-76166671D01*
X228143097Y-75922702D01*
X227330000Y-75109605D01*
X226516903Y-75922702D01*
X217307955Y-75922702D01*
X217279853Y-75781426D01*
X217171680Y-75520273D01*
X217014637Y-75285241D01*
X216814759Y-75085363D01*
X216687771Y-75000512D01*
X225889783Y-75000512D01*
X225931213Y-75280130D01*
X226026397Y-75546292D01*
X226093329Y-75671514D01*
X226337298Y-75743097D01*
X227150395Y-74930000D01*
X227509605Y-74930000D01*
X228322702Y-75743097D01*
X228566671Y-75671514D01*
X228687571Y-75416004D01*
X228756300Y-75141816D01*
X228770217Y-74859488D01*
X228728787Y-74579870D01*
X228633603Y-74313708D01*
X228566671Y-74188486D01*
X228322702Y-74116903D01*
X227509605Y-74930000D01*
X227150395Y-74930000D01*
X226337298Y-74116903D01*
X226093329Y-74188486D01*
X225972429Y-74443996D01*
X225903700Y-74718184D01*
X225889783Y-75000512D01*
X216687771Y-75000512D01*
X216582241Y-74930000D01*
X216814759Y-74774637D01*
X217014637Y-74574759D01*
X217171680Y-74339727D01*
X217279853Y-74078574D01*
X217335000Y-73801335D01*
X217335000Y-73518665D01*
X217279853Y-73241426D01*
X217171680Y-72980273D01*
X217014637Y-72745241D01*
X216814759Y-72545363D01*
X216582241Y-72390000D01*
X216814759Y-72234637D01*
X216880731Y-72168665D01*
X219545000Y-72168665D01*
X219545000Y-72451335D01*
X219600147Y-72728574D01*
X219708320Y-72989727D01*
X219865363Y-73224759D01*
X220065241Y-73424637D01*
X220300273Y-73581680D01*
X220561426Y-73689853D01*
X220838665Y-73745000D01*
X221121335Y-73745000D01*
X221398574Y-73689853D01*
X221659727Y-73581680D01*
X221894759Y-73424637D01*
X222094637Y-73224759D01*
X222251680Y-72989727D01*
X222359853Y-72728574D01*
X222415000Y-72451335D01*
X222415000Y-72168665D01*
X225895000Y-72168665D01*
X225895000Y-72451335D01*
X225950147Y-72728574D01*
X226058320Y-72989727D01*
X226215363Y-73224759D01*
X226415241Y-73424637D01*
X226650273Y-73581680D01*
X226737601Y-73617852D01*
X226713708Y-73626397D01*
X226588486Y-73693329D01*
X226516903Y-73937298D01*
X227330000Y-74750395D01*
X228143097Y-73937298D01*
X228071514Y-73693329D01*
X227916855Y-73620149D01*
X228009727Y-73581680D01*
X228244759Y-73424637D01*
X228444637Y-73224759D01*
X228601680Y-72989727D01*
X228709853Y-72728574D01*
X228765000Y-72451335D01*
X228765000Y-72168665D01*
X228709853Y-71891426D01*
X228601680Y-71630273D01*
X228444637Y-71395241D01*
X228244759Y-71195363D01*
X228009727Y-71038320D01*
X227748574Y-70930147D01*
X227471335Y-70875000D01*
X227188665Y-70875000D01*
X226911426Y-70930147D01*
X226650273Y-71038320D01*
X226415241Y-71195363D01*
X226215363Y-71395241D01*
X226058320Y-71630273D01*
X225950147Y-71891426D01*
X225895000Y-72168665D01*
X222415000Y-72168665D01*
X222359853Y-71891426D01*
X222251680Y-71630273D01*
X222094637Y-71395241D01*
X221894759Y-71195363D01*
X221659727Y-71038320D01*
X221398574Y-70930147D01*
X221121335Y-70875000D01*
X220838665Y-70875000D01*
X220561426Y-70930147D01*
X220300273Y-71038320D01*
X220065241Y-71195363D01*
X219865363Y-71395241D01*
X219708320Y-71630273D01*
X219600147Y-71891426D01*
X219545000Y-72168665D01*
X216880731Y-72168665D01*
X217014637Y-72034759D01*
X217171680Y-71799727D01*
X217279853Y-71538574D01*
X217335000Y-71261335D01*
X217335000Y-70978665D01*
X217279853Y-70701426D01*
X217171680Y-70440273D01*
X217014637Y-70205241D01*
X216814759Y-70005363D01*
X216582241Y-69850000D01*
X216814759Y-69694637D01*
X217014637Y-69494759D01*
X217171680Y-69259727D01*
X217279853Y-68998574D01*
X217335000Y-68721335D01*
X217335000Y-68438665D01*
X217279853Y-68161426D01*
X217171680Y-67900273D01*
X217014637Y-67665241D01*
X216814759Y-67465363D01*
X216582241Y-67310000D01*
X216814759Y-67154637D01*
X217014637Y-66954759D01*
X217171680Y-66719727D01*
X217279853Y-66458574D01*
X217335000Y-66181335D01*
X217335000Y-65898665D01*
X217279853Y-65621426D01*
X217171680Y-65360273D01*
X217014637Y-65125241D01*
X216814759Y-64925363D01*
X216582241Y-64770000D01*
X216814759Y-64614637D01*
X216880731Y-64548665D01*
X219545000Y-64548665D01*
X219545000Y-64831335D01*
X219600147Y-65108574D01*
X219708320Y-65369727D01*
X219865363Y-65604759D01*
X220065241Y-65804637D01*
X220300273Y-65961680D01*
X220392786Y-66000000D01*
X220300273Y-66038320D01*
X220065241Y-66195363D01*
X219865363Y-66395241D01*
X219708320Y-66630273D01*
X219600147Y-66891426D01*
X219545000Y-67168665D01*
X219545000Y-67451335D01*
X219600147Y-67728574D01*
X219708320Y-67989727D01*
X219865363Y-68224759D01*
X220065241Y-68424637D01*
X220300273Y-68581680D01*
X220561426Y-68689853D01*
X220838665Y-68745000D01*
X221121335Y-68745000D01*
X221398574Y-68689853D01*
X221659727Y-68581680D01*
X221894759Y-68424637D01*
X222094637Y-68224759D01*
X222251680Y-67989727D01*
X222359853Y-67728574D01*
X222415000Y-67451335D01*
X222415000Y-67168665D01*
X222359853Y-66891426D01*
X222251680Y-66630273D01*
X222094637Y-66395241D01*
X221894759Y-66195363D01*
X221659727Y-66038320D01*
X221567214Y-66000000D01*
X221659727Y-65961680D01*
X221894759Y-65804637D01*
X222094637Y-65604759D01*
X222251680Y-65369727D01*
X222359853Y-65108574D01*
X222415000Y-64831335D01*
X222415000Y-64548665D01*
X225895000Y-64548665D01*
X225895000Y-64831335D01*
X225950147Y-65108574D01*
X226058320Y-65369727D01*
X226215363Y-65604759D01*
X226415241Y-65804637D01*
X226650273Y-65961680D01*
X226742786Y-66000000D01*
X226650273Y-66038320D01*
X226415241Y-66195363D01*
X226215363Y-66395241D01*
X226058320Y-66630273D01*
X225950147Y-66891426D01*
X225895000Y-67168665D01*
X225895000Y-67451335D01*
X225950147Y-67728574D01*
X226058320Y-67989727D01*
X226215363Y-68224759D01*
X226415241Y-68424637D01*
X226650273Y-68581680D01*
X226911426Y-68689853D01*
X227188665Y-68745000D01*
X227471335Y-68745000D01*
X227748574Y-68689853D01*
X228009727Y-68581680D01*
X228244759Y-68424637D01*
X228444637Y-68224759D01*
X228601680Y-67989727D01*
X228709853Y-67728574D01*
X228765000Y-67451335D01*
X228765000Y-67168665D01*
X228709853Y-66891426D01*
X228601680Y-66630273D01*
X228444637Y-66395241D01*
X228244759Y-66195363D01*
X228009727Y-66038320D01*
X227917214Y-66000000D01*
X228009727Y-65961680D01*
X228244759Y-65804637D01*
X228444637Y-65604759D01*
X228601680Y-65369727D01*
X228709853Y-65108574D01*
X228765000Y-64831335D01*
X228765000Y-64548665D01*
X228709853Y-64271426D01*
X228601680Y-64010273D01*
X228444637Y-63775241D01*
X228244759Y-63575363D01*
X228009727Y-63418320D01*
X227748574Y-63310147D01*
X227471335Y-63255000D01*
X227188665Y-63255000D01*
X226911426Y-63310147D01*
X226650273Y-63418320D01*
X226415241Y-63575363D01*
X226215363Y-63775241D01*
X226058320Y-64010273D01*
X225950147Y-64271426D01*
X225895000Y-64548665D01*
X222415000Y-64548665D01*
X222359853Y-64271426D01*
X222251680Y-64010273D01*
X222094637Y-63775241D01*
X221894759Y-63575363D01*
X221659727Y-63418320D01*
X221398574Y-63310147D01*
X221121335Y-63255000D01*
X220838665Y-63255000D01*
X220561426Y-63310147D01*
X220300273Y-63418320D01*
X220065241Y-63575363D01*
X219865363Y-63775241D01*
X219708320Y-64010273D01*
X219600147Y-64271426D01*
X219545000Y-64548665D01*
X216880731Y-64548665D01*
X217014637Y-64414759D01*
X217171680Y-64179727D01*
X217279853Y-63918574D01*
X217335000Y-63641335D01*
X217335000Y-63358665D01*
X217279853Y-63081426D01*
X217171680Y-62820273D01*
X217014637Y-62585241D01*
X216814759Y-62385363D01*
X216582241Y-62230000D01*
X216814759Y-62074637D01*
X217014637Y-61874759D01*
X217171680Y-61639727D01*
X217279853Y-61378574D01*
X217335000Y-61101335D01*
X217335000Y-60818665D01*
X217279853Y-60541426D01*
X217171680Y-60280273D01*
X217014637Y-60045241D01*
X216814759Y-59845363D01*
X216579727Y-59688320D01*
X216318574Y-59580147D01*
X216160306Y-59548665D01*
X219545000Y-59548665D01*
X219545000Y-59831335D01*
X219600147Y-60108574D01*
X219708320Y-60369727D01*
X219865363Y-60604759D01*
X220065241Y-60804637D01*
X220300273Y-60961680D01*
X220561426Y-61069853D01*
X220838665Y-61125000D01*
X221121335Y-61125000D01*
X221398574Y-61069853D01*
X221659727Y-60961680D01*
X221894759Y-60804637D01*
X222094637Y-60604759D01*
X222251680Y-60369727D01*
X222359853Y-60108574D01*
X222415000Y-59831335D01*
X222415000Y-59548665D01*
X225895000Y-59548665D01*
X225895000Y-59831335D01*
X225950147Y-60108574D01*
X226058320Y-60369727D01*
X226215363Y-60604759D01*
X226415241Y-60804637D01*
X226650273Y-60961680D01*
X226911426Y-61069853D01*
X227188665Y-61125000D01*
X227471335Y-61125000D01*
X227748574Y-61069853D01*
X228009727Y-60961680D01*
X228244759Y-60804637D01*
X228444637Y-60604759D01*
X228601680Y-60369727D01*
X228688551Y-60160000D01*
X230971928Y-60160000D01*
X230971928Y-61760000D01*
X230984188Y-61884482D01*
X231020498Y-62004180D01*
X231079463Y-62114494D01*
X231158815Y-62211185D01*
X231255506Y-62290537D01*
X231365820Y-62349502D01*
X231485518Y-62385812D01*
X231493961Y-62386643D01*
X231295363Y-62585241D01*
X231138320Y-62820273D01*
X231030147Y-63081426D01*
X230975000Y-63358665D01*
X230975000Y-63641335D01*
X231030147Y-63918574D01*
X231138320Y-64179727D01*
X231295363Y-64414759D01*
X231495241Y-64614637D01*
X231727759Y-64770000D01*
X231495241Y-64925363D01*
X231295363Y-65125241D01*
X231138320Y-65360273D01*
X231030147Y-65621426D01*
X230975000Y-65898665D01*
X230975000Y-66181335D01*
X231030147Y-66458574D01*
X231138320Y-66719727D01*
X231295363Y-66954759D01*
X231495241Y-67154637D01*
X231727759Y-67310000D01*
X231495241Y-67465363D01*
X231295363Y-67665241D01*
X231138320Y-67900273D01*
X231030147Y-68161426D01*
X230975000Y-68438665D01*
X230975000Y-68721335D01*
X231030147Y-68998574D01*
X231138320Y-69259727D01*
X231295363Y-69494759D01*
X231495241Y-69694637D01*
X231727759Y-69850000D01*
X231495241Y-70005363D01*
X231295363Y-70205241D01*
X231138320Y-70440273D01*
X231030147Y-70701426D01*
X230975000Y-70978665D01*
X230975000Y-71261335D01*
X231030147Y-71538574D01*
X231138320Y-71799727D01*
X231295363Y-72034759D01*
X231495241Y-72234637D01*
X231727759Y-72390000D01*
X231495241Y-72545363D01*
X231295363Y-72745241D01*
X231138320Y-72980273D01*
X231030147Y-73241426D01*
X230975000Y-73518665D01*
X230975000Y-73801335D01*
X231030147Y-74078574D01*
X231138320Y-74339727D01*
X231295363Y-74574759D01*
X231495241Y-74774637D01*
X231727759Y-74930000D01*
X231495241Y-75085363D01*
X231295363Y-75285241D01*
X231138320Y-75520273D01*
X231030147Y-75781426D01*
X230975000Y-76058665D01*
X230975000Y-76341335D01*
X231030147Y-76618574D01*
X231138320Y-76879727D01*
X231295363Y-77114759D01*
X231495241Y-77314637D01*
X231727759Y-77470000D01*
X231495241Y-77625363D01*
X231295363Y-77825241D01*
X231138320Y-78060273D01*
X231030147Y-78321426D01*
X230975000Y-78598665D01*
X230975000Y-78881335D01*
X231030147Y-79158574D01*
X231138320Y-79419727D01*
X231295363Y-79654759D01*
X231495241Y-79854637D01*
X231730273Y-80011680D01*
X231991426Y-80119853D01*
X232268665Y-80175000D01*
X232551335Y-80175000D01*
X232828574Y-80119853D01*
X233089727Y-80011680D01*
X233324759Y-79854637D01*
X233524637Y-79654759D01*
X233681680Y-79419727D01*
X233789853Y-79158574D01*
X233845000Y-78881335D01*
X233845000Y-78598665D01*
X233789853Y-78321426D01*
X233681680Y-78060273D01*
X233524637Y-77825241D01*
X233324759Y-77625363D01*
X233092241Y-77470000D01*
X233324759Y-77314637D01*
X233524637Y-77114759D01*
X233681680Y-76879727D01*
X233789853Y-76618574D01*
X233845000Y-76341335D01*
X233845000Y-76058665D01*
X233789853Y-75781426D01*
X233681680Y-75520273D01*
X233524637Y-75285241D01*
X233324759Y-75085363D01*
X233092241Y-74930000D01*
X233324759Y-74774637D01*
X233524637Y-74574759D01*
X233681680Y-74339727D01*
X233789853Y-74078574D01*
X233845000Y-73801335D01*
X233845000Y-73518665D01*
X233789853Y-73241426D01*
X233681680Y-72980273D01*
X233524637Y-72745241D01*
X233324759Y-72545363D01*
X233092241Y-72390000D01*
X233324759Y-72234637D01*
X233524637Y-72034759D01*
X233681680Y-71799727D01*
X233789853Y-71538574D01*
X233845000Y-71261335D01*
X233845000Y-70978665D01*
X233789853Y-70701426D01*
X233681680Y-70440273D01*
X233524637Y-70205241D01*
X233324759Y-70005363D01*
X233092241Y-69850000D01*
X233324759Y-69694637D01*
X233524637Y-69494759D01*
X233681680Y-69259727D01*
X233789853Y-68998574D01*
X233845000Y-68721335D01*
X233845000Y-68438665D01*
X233789853Y-68161426D01*
X233681680Y-67900273D01*
X233524637Y-67665241D01*
X233324759Y-67465363D01*
X233092241Y-67310000D01*
X233324759Y-67154637D01*
X233524637Y-66954759D01*
X233681680Y-66719727D01*
X233789853Y-66458574D01*
X233845000Y-66181335D01*
X233845000Y-65898665D01*
X238595000Y-65898665D01*
X238595000Y-66181335D01*
X238650147Y-66458574D01*
X238758320Y-66719727D01*
X238915363Y-66954759D01*
X239115241Y-67154637D01*
X239347759Y-67310000D01*
X239115241Y-67465363D01*
X238915363Y-67665241D01*
X238758320Y-67900273D01*
X238650147Y-68161426D01*
X238595000Y-68438665D01*
X238595000Y-68721335D01*
X238650147Y-68998574D01*
X238758320Y-69259727D01*
X238915363Y-69494759D01*
X239115241Y-69694637D01*
X239347759Y-69850000D01*
X239115241Y-70005363D01*
X238915363Y-70205241D01*
X238758320Y-70440273D01*
X238650147Y-70701426D01*
X238595000Y-70978665D01*
X238595000Y-71261335D01*
X238650147Y-71538574D01*
X238758320Y-71799727D01*
X238915363Y-72034759D01*
X239115241Y-72234637D01*
X239347759Y-72390000D01*
X239115241Y-72545363D01*
X238915363Y-72745241D01*
X238758320Y-72980273D01*
X238650147Y-73241426D01*
X238595000Y-73518665D01*
X238595000Y-73801335D01*
X238650147Y-74078574D01*
X238758320Y-74339727D01*
X238915363Y-74574759D01*
X239115241Y-74774637D01*
X239347759Y-74930000D01*
X239115241Y-75085363D01*
X238915363Y-75285241D01*
X238758320Y-75520273D01*
X238650147Y-75781426D01*
X238595000Y-76058665D01*
X238595000Y-76341335D01*
X238650147Y-76618574D01*
X238758320Y-76879727D01*
X238915363Y-77114759D01*
X239115241Y-77314637D01*
X239347759Y-77470000D01*
X239115241Y-77625363D01*
X238915363Y-77825241D01*
X238758320Y-78060273D01*
X238650147Y-78321426D01*
X238595000Y-78598665D01*
X238595000Y-78881335D01*
X238650147Y-79158574D01*
X238758320Y-79419727D01*
X238915363Y-79654759D01*
X239115241Y-79854637D01*
X239245001Y-79941340D01*
X239245000Y-88861447D01*
X239241203Y-88900000D01*
X239245000Y-88938553D01*
X239245000Y-88938560D01*
X239256359Y-89053886D01*
X239301246Y-89201859D01*
X239374138Y-89338232D01*
X239472236Y-89457764D01*
X239502190Y-89482347D01*
X242435446Y-92415603D01*
X242405000Y-92568665D01*
X242405000Y-92851335D01*
X242460147Y-93128574D01*
X242568320Y-93389727D01*
X242725363Y-93624759D01*
X242925241Y-93824637D01*
X243160273Y-93981680D01*
X243421426Y-94089853D01*
X243698665Y-94145000D01*
X243981335Y-94145000D01*
X244258574Y-94089853D01*
X244519727Y-93981680D01*
X244754759Y-93824637D01*
X244954637Y-93624759D01*
X245111680Y-93389727D01*
X245219853Y-93128574D01*
X245275000Y-92851335D01*
X245275000Y-92568665D01*
X245219853Y-92291426D01*
X245111680Y-92030273D01*
X244954637Y-91795241D01*
X244754759Y-91595363D01*
X244519727Y-91438320D01*
X244258574Y-91330147D01*
X243981335Y-91275000D01*
X243698665Y-91275000D01*
X243545603Y-91305446D01*
X243052859Y-90812702D01*
X248106903Y-90812702D01*
X248178486Y-91056671D01*
X248433996Y-91177571D01*
X248708184Y-91246300D01*
X248990512Y-91260217D01*
X249270130Y-91218787D01*
X249536292Y-91123603D01*
X249661514Y-91056671D01*
X249733097Y-90812702D01*
X248920000Y-89999605D01*
X248106903Y-90812702D01*
X243052859Y-90812702D01*
X242130669Y-89890512D01*
X247479783Y-89890512D01*
X247521213Y-90170130D01*
X247616397Y-90436292D01*
X247683329Y-90561514D01*
X247927298Y-90633097D01*
X248740395Y-89820000D01*
X249099605Y-89820000D01*
X249912702Y-90633097D01*
X250156671Y-90561514D01*
X250277571Y-90306004D01*
X250346300Y-90031816D01*
X250360217Y-89749488D01*
X250318787Y-89469870D01*
X250223603Y-89203708D01*
X250156671Y-89078486D01*
X249912702Y-89006903D01*
X249099605Y-89820000D01*
X248740395Y-89820000D01*
X247927298Y-89006903D01*
X247683329Y-89078486D01*
X247562429Y-89333996D01*
X247493700Y-89608184D01*
X247479783Y-89890512D01*
X242130669Y-89890512D01*
X240815000Y-88574843D01*
X240815000Y-79941339D01*
X240944759Y-79854637D01*
X241144637Y-79654759D01*
X241301680Y-79419727D01*
X241409853Y-79158574D01*
X241465000Y-78881335D01*
X241465000Y-78745157D01*
X243055001Y-80335158D01*
X243055000Y-85158661D01*
X242925241Y-85245363D01*
X242725363Y-85445241D01*
X242568320Y-85680273D01*
X242460147Y-85941426D01*
X242405000Y-86218665D01*
X242405000Y-86501335D01*
X242460147Y-86778574D01*
X242568320Y-87039727D01*
X242725363Y-87274759D01*
X242925241Y-87474637D01*
X243160273Y-87631680D01*
X243421426Y-87739853D01*
X243698665Y-87795000D01*
X243981335Y-87795000D01*
X244258574Y-87739853D01*
X244519727Y-87631680D01*
X244754759Y-87474637D01*
X244954637Y-87274759D01*
X245111680Y-87039727D01*
X245219853Y-86778574D01*
X245275000Y-86501335D01*
X245275000Y-86218665D01*
X245219853Y-85941426D01*
X245111680Y-85680273D01*
X244954637Y-85445241D01*
X244754759Y-85245363D01*
X244625000Y-85158661D01*
X244625000Y-80048556D01*
X244628797Y-80010000D01*
X244625000Y-79971444D01*
X244625000Y-79971439D01*
X244621020Y-79931026D01*
X244613642Y-79856113D01*
X244568754Y-79708140D01*
X244560002Y-79691766D01*
X244495862Y-79571767D01*
X244397764Y-79452236D01*
X244367810Y-79427653D01*
X242880157Y-77940000D01*
X247481928Y-77940000D01*
X247481928Y-79540000D01*
X247494188Y-79664482D01*
X247530498Y-79784180D01*
X247589463Y-79894494D01*
X247668815Y-79991185D01*
X247765506Y-80070537D01*
X247875820Y-80129502D01*
X247995518Y-80165812D01*
X248120000Y-80178072D01*
X248385725Y-80178072D01*
X248240273Y-80238320D01*
X248005241Y-80395363D01*
X247805363Y-80595241D01*
X247648320Y-80830273D01*
X247540147Y-81091426D01*
X247485000Y-81368665D01*
X247485000Y-81651335D01*
X247540147Y-81928574D01*
X247648320Y-82189727D01*
X247805363Y-82424759D01*
X248005241Y-82624637D01*
X248240273Y-82781680D01*
X248501426Y-82889853D01*
X248527301Y-82895000D01*
X248501426Y-82900147D01*
X248240273Y-83008320D01*
X248005241Y-83165363D01*
X247805363Y-83365241D01*
X247648320Y-83600273D01*
X247540147Y-83861426D01*
X247485000Y-84138665D01*
X247485000Y-84421335D01*
X247540147Y-84698574D01*
X247648320Y-84959727D01*
X247805363Y-85194759D01*
X248005241Y-85394637D01*
X248240273Y-85551680D01*
X248501426Y-85659853D01*
X248527301Y-85665000D01*
X248501426Y-85670147D01*
X248240273Y-85778320D01*
X248005241Y-85935363D01*
X247805363Y-86135241D01*
X247648320Y-86370273D01*
X247540147Y-86631426D01*
X247485000Y-86908665D01*
X247485000Y-87191335D01*
X247540147Y-87468574D01*
X247648320Y-87729727D01*
X247805363Y-87964759D01*
X248005241Y-88164637D01*
X248240273Y-88321680D01*
X248501426Y-88429853D01*
X248529882Y-88435513D01*
X248303708Y-88516397D01*
X248178486Y-88583329D01*
X248106903Y-88827298D01*
X248920000Y-89640395D01*
X249733097Y-88827298D01*
X249661514Y-88583329D01*
X249406004Y-88462429D01*
X249303711Y-88436788D01*
X249338574Y-88429853D01*
X249599727Y-88321680D01*
X249834759Y-88164637D01*
X250034637Y-87964759D01*
X250191680Y-87729727D01*
X250299853Y-87468574D01*
X250355000Y-87191335D01*
X250355000Y-86908665D01*
X250299853Y-86631426D01*
X250191680Y-86370273D01*
X250034637Y-86135241D01*
X249834759Y-85935363D01*
X249599727Y-85778320D01*
X249338574Y-85670147D01*
X249312699Y-85665000D01*
X249338574Y-85659853D01*
X249599727Y-85551680D01*
X249834759Y-85394637D01*
X250034637Y-85194759D01*
X250191680Y-84959727D01*
X250299853Y-84698574D01*
X250355000Y-84421335D01*
X250355000Y-84138665D01*
X250299853Y-83861426D01*
X250191680Y-83600273D01*
X250034637Y-83365241D01*
X249834759Y-83165363D01*
X249599727Y-83008320D01*
X249338574Y-82900147D01*
X249312699Y-82895000D01*
X249338574Y-82889853D01*
X249599727Y-82781680D01*
X249834759Y-82624637D01*
X250034637Y-82424759D01*
X250191680Y-82189727D01*
X250299853Y-81928574D01*
X250355000Y-81651335D01*
X250355000Y-81368665D01*
X250299853Y-81091426D01*
X250191680Y-80830273D01*
X250034637Y-80595241D01*
X249834759Y-80395363D01*
X249599727Y-80238320D01*
X249454275Y-80178072D01*
X249720000Y-80178072D01*
X249844482Y-80165812D01*
X249964180Y-80129502D01*
X250074494Y-80070537D01*
X250171185Y-79991185D01*
X250177356Y-79983665D01*
X250325000Y-79983665D01*
X250325000Y-80266335D01*
X250380147Y-80543574D01*
X250488320Y-80804727D01*
X250645363Y-81039759D01*
X250845241Y-81239637D01*
X251080273Y-81396680D01*
X251341426Y-81504853D01*
X251367301Y-81510000D01*
X251341426Y-81515147D01*
X251080273Y-81623320D01*
X250845241Y-81780363D01*
X250645363Y-81980241D01*
X250488320Y-82215273D01*
X250380147Y-82476426D01*
X250325000Y-82753665D01*
X250325000Y-83036335D01*
X250380147Y-83313574D01*
X250488320Y-83574727D01*
X250645363Y-83809759D01*
X250845241Y-84009637D01*
X251080273Y-84166680D01*
X251341426Y-84274853D01*
X251367301Y-84280000D01*
X251341426Y-84285147D01*
X251080273Y-84393320D01*
X250845241Y-84550363D01*
X250645363Y-84750241D01*
X250488320Y-84985273D01*
X250380147Y-85246426D01*
X250325000Y-85523665D01*
X250325000Y-85806335D01*
X250380147Y-86083574D01*
X250488320Y-86344727D01*
X250645363Y-86579759D01*
X250845241Y-86779637D01*
X251080273Y-86936680D01*
X251341426Y-87044853D01*
X251367301Y-87050000D01*
X251341426Y-87055147D01*
X251080273Y-87163320D01*
X250845241Y-87320363D01*
X250645363Y-87520241D01*
X250488320Y-87755273D01*
X250380147Y-88016426D01*
X250325000Y-88293665D01*
X250325000Y-88576335D01*
X250380147Y-88853574D01*
X250488320Y-89114727D01*
X250645363Y-89349759D01*
X250845241Y-89549637D01*
X251080273Y-89706680D01*
X251341426Y-89814853D01*
X251618665Y-89870000D01*
X251901335Y-89870000D01*
X252178574Y-89814853D01*
X252439727Y-89706680D01*
X252674759Y-89549637D01*
X252874637Y-89349759D01*
X253031680Y-89114727D01*
X253139853Y-88853574D01*
X253195000Y-88576335D01*
X253195000Y-88293665D01*
X253139853Y-88016426D01*
X253031680Y-87755273D01*
X252874637Y-87520241D01*
X252674759Y-87320363D01*
X252439727Y-87163320D01*
X252178574Y-87055147D01*
X252152699Y-87050000D01*
X252178574Y-87044853D01*
X252439727Y-86936680D01*
X252674759Y-86779637D01*
X252874637Y-86579759D01*
X253031680Y-86344727D01*
X253139853Y-86083574D01*
X253195000Y-85806335D01*
X253195000Y-85523665D01*
X253139853Y-85246426D01*
X253031680Y-84985273D01*
X252874637Y-84750241D01*
X252674759Y-84550363D01*
X252439727Y-84393320D01*
X252178574Y-84285147D01*
X252152699Y-84280000D01*
X252178574Y-84274853D01*
X252439727Y-84166680D01*
X252674759Y-84009637D01*
X252874637Y-83809759D01*
X253031680Y-83574727D01*
X253139853Y-83313574D01*
X253195000Y-83036335D01*
X253195000Y-82753665D01*
X253139853Y-82476426D01*
X253031680Y-82215273D01*
X252874637Y-81980241D01*
X252674759Y-81780363D01*
X252439727Y-81623320D01*
X252178574Y-81515147D01*
X252152699Y-81510000D01*
X252178574Y-81504853D01*
X252439727Y-81396680D01*
X252674759Y-81239637D01*
X252874637Y-81039759D01*
X253031680Y-80804727D01*
X253139853Y-80543574D01*
X253195000Y-80266335D01*
X253195000Y-79983665D01*
X253139853Y-79706426D01*
X253031680Y-79445273D01*
X252874637Y-79210241D01*
X252674759Y-79010363D01*
X252439727Y-78853320D01*
X252178574Y-78745147D01*
X251901335Y-78690000D01*
X251618665Y-78690000D01*
X251341426Y-78745147D01*
X251080273Y-78853320D01*
X250845241Y-79010363D01*
X250645363Y-79210241D01*
X250488320Y-79445273D01*
X250380147Y-79706426D01*
X250325000Y-79983665D01*
X250177356Y-79983665D01*
X250250537Y-79894494D01*
X250309502Y-79784180D01*
X250345812Y-79664482D01*
X250358072Y-79540000D01*
X250358072Y-77940000D01*
X250345812Y-77815518D01*
X250309502Y-77695820D01*
X250250537Y-77585506D01*
X250171185Y-77488815D01*
X250074494Y-77409463D01*
X249964180Y-77350498D01*
X249844482Y-77314188D01*
X249720000Y-77301928D01*
X248120000Y-77301928D01*
X247995518Y-77314188D01*
X247875820Y-77350498D01*
X247765506Y-77409463D01*
X247668815Y-77488815D01*
X247589463Y-77585506D01*
X247530498Y-77695820D01*
X247494188Y-77815518D01*
X247481928Y-77940000D01*
X242880157Y-77940000D01*
X241434554Y-76494397D01*
X241465000Y-76341335D01*
X241465000Y-76058665D01*
X241409853Y-75781426D01*
X241301680Y-75520273D01*
X241144637Y-75285241D01*
X240944759Y-75085363D01*
X240712241Y-74930000D01*
X240944759Y-74774637D01*
X241144637Y-74574759D01*
X241301680Y-74339727D01*
X241409853Y-74078574D01*
X241465000Y-73801335D01*
X241465000Y-73518665D01*
X241409853Y-73241426D01*
X241301680Y-72980273D01*
X241144637Y-72745241D01*
X240944759Y-72545363D01*
X240712241Y-72390000D01*
X240944759Y-72234637D01*
X241144637Y-72034759D01*
X241301680Y-71799727D01*
X241409853Y-71538574D01*
X241413453Y-71520475D01*
X247705000Y-71520475D01*
X247705000Y-72039525D01*
X247806261Y-72548601D01*
X248004893Y-73028141D01*
X248293262Y-73459715D01*
X248660285Y-73826738D01*
X249091859Y-74115107D01*
X249571399Y-74313739D01*
X250080475Y-74415000D01*
X250599525Y-74415000D01*
X251108601Y-74313739D01*
X251588141Y-74115107D01*
X252019715Y-73826738D01*
X252386738Y-73459715D01*
X252675107Y-73028141D01*
X252873739Y-72548601D01*
X252975000Y-72039525D01*
X252975000Y-71520475D01*
X252873739Y-71011399D01*
X252675107Y-70531859D01*
X252386738Y-70100285D01*
X252019715Y-69733262D01*
X251588141Y-69444893D01*
X251108601Y-69246261D01*
X250599525Y-69145000D01*
X250080475Y-69145000D01*
X249571399Y-69246261D01*
X249091859Y-69444893D01*
X248660285Y-69733262D01*
X248293262Y-70100285D01*
X248004893Y-70531859D01*
X247806261Y-71011399D01*
X247705000Y-71520475D01*
X241413453Y-71520475D01*
X241465000Y-71261335D01*
X241465000Y-70978665D01*
X241409853Y-70701426D01*
X241301680Y-70440273D01*
X241144637Y-70205241D01*
X240944759Y-70005363D01*
X240712241Y-69850000D01*
X240944759Y-69694637D01*
X241144637Y-69494759D01*
X241301680Y-69259727D01*
X241409853Y-68998574D01*
X241465000Y-68721335D01*
X241465000Y-68438665D01*
X241409853Y-68161426D01*
X241301680Y-67900273D01*
X241144637Y-67665241D01*
X240944759Y-67465363D01*
X240712241Y-67310000D01*
X240944759Y-67154637D01*
X241144637Y-66954759D01*
X241301680Y-66719727D01*
X241409853Y-66458574D01*
X241465000Y-66181335D01*
X241465000Y-65898665D01*
X241437955Y-65762702D01*
X244296903Y-65762702D01*
X244368486Y-66006671D01*
X244623996Y-66127571D01*
X244898184Y-66196300D01*
X245180512Y-66210217D01*
X245460130Y-66168787D01*
X245726292Y-66073603D01*
X245851514Y-66006671D01*
X245923097Y-65762702D01*
X245110000Y-64949605D01*
X244296903Y-65762702D01*
X241437955Y-65762702D01*
X241409853Y-65621426D01*
X241301680Y-65360273D01*
X241144637Y-65125241D01*
X240944759Y-64925363D01*
X240817771Y-64840512D01*
X243669783Y-64840512D01*
X243711213Y-65120130D01*
X243806397Y-65386292D01*
X243873329Y-65511514D01*
X244117298Y-65583097D01*
X244930395Y-64770000D01*
X245289605Y-64770000D01*
X246102702Y-65583097D01*
X246346671Y-65511514D01*
X246467571Y-65256004D01*
X246536300Y-64981816D01*
X246550217Y-64699488D01*
X246508787Y-64419870D01*
X246413603Y-64153708D01*
X246346671Y-64028486D01*
X246102702Y-63956903D01*
X245289605Y-64770000D01*
X244930395Y-64770000D01*
X244117298Y-63956903D01*
X243873329Y-64028486D01*
X243752429Y-64283996D01*
X243683700Y-64558184D01*
X243669783Y-64840512D01*
X240817771Y-64840512D01*
X240709727Y-64768320D01*
X240699135Y-64763933D01*
X240885131Y-64652385D01*
X241093519Y-64463414D01*
X241261037Y-64237420D01*
X241381246Y-63983087D01*
X241421904Y-63849039D01*
X241382490Y-63777298D01*
X244296903Y-63777298D01*
X245110000Y-64590395D01*
X245843505Y-63856890D01*
X250018524Y-63856890D01*
X250063175Y-64004099D01*
X250188359Y-64266920D01*
X250362412Y-64500269D01*
X250578645Y-64695178D01*
X250828748Y-64844157D01*
X251103109Y-64941481D01*
X251333000Y-64820814D01*
X251333000Y-63627000D01*
X251587000Y-63627000D01*
X251587000Y-64820814D01*
X251816891Y-64941481D01*
X252091252Y-64844157D01*
X252341355Y-64695178D01*
X252557588Y-64500269D01*
X252731641Y-64266920D01*
X252856825Y-64004099D01*
X252901476Y-63856890D01*
X252780155Y-63627000D01*
X251587000Y-63627000D01*
X251333000Y-63627000D01*
X250139845Y-63627000D01*
X250018524Y-63856890D01*
X245843505Y-63856890D01*
X245923097Y-63777298D01*
X245851514Y-63533329D01*
X245596004Y-63412429D01*
X245321816Y-63343700D01*
X245039488Y-63329783D01*
X244759870Y-63371213D01*
X244493708Y-63466397D01*
X244368486Y-63533329D01*
X244296903Y-63777298D01*
X241382490Y-63777298D01*
X241299915Y-63627000D01*
X240157000Y-63627000D01*
X240157000Y-63647000D01*
X239903000Y-63647000D01*
X239903000Y-63627000D01*
X238760085Y-63627000D01*
X238638096Y-63849039D01*
X238678754Y-63983087D01*
X238798963Y-64237420D01*
X238966481Y-64463414D01*
X239174869Y-64652385D01*
X239360865Y-64763933D01*
X239350273Y-64768320D01*
X239115241Y-64925363D01*
X238915363Y-65125241D01*
X238758320Y-65360273D01*
X238650147Y-65621426D01*
X238595000Y-65898665D01*
X233845000Y-65898665D01*
X233789853Y-65621426D01*
X233681680Y-65360273D01*
X233524637Y-65125241D01*
X233324759Y-64925363D01*
X233092241Y-64770000D01*
X233324759Y-64614637D01*
X233524637Y-64414759D01*
X233681680Y-64179727D01*
X233789853Y-63918574D01*
X233845000Y-63641335D01*
X233845000Y-63358665D01*
X233789853Y-63081426D01*
X233681680Y-62820273D01*
X233524637Y-62585241D01*
X233326039Y-62386643D01*
X233334482Y-62385812D01*
X233454180Y-62349502D01*
X233564494Y-62290537D01*
X233661185Y-62211185D01*
X233740537Y-62114494D01*
X233799502Y-62004180D01*
X233835812Y-61884482D01*
X233848072Y-61760000D01*
X233848072Y-60818665D01*
X238595000Y-60818665D01*
X238595000Y-61101335D01*
X238650147Y-61378574D01*
X238758320Y-61639727D01*
X238915363Y-61874759D01*
X239115241Y-62074637D01*
X239350273Y-62231680D01*
X239360865Y-62236067D01*
X239174869Y-62347615D01*
X238966481Y-62536586D01*
X238798963Y-62762580D01*
X238678754Y-63016913D01*
X238638096Y-63150961D01*
X238760085Y-63373000D01*
X239903000Y-63373000D01*
X239903000Y-63353000D01*
X240157000Y-63353000D01*
X240157000Y-63373000D01*
X241299915Y-63373000D01*
X241421904Y-63150961D01*
X241381246Y-63016913D01*
X241261037Y-62762580D01*
X241093519Y-62536586D01*
X240885131Y-62347615D01*
X240699135Y-62236067D01*
X240709727Y-62231680D01*
X240944759Y-62074637D01*
X241144637Y-61874759D01*
X241301680Y-61639727D01*
X241409853Y-61378574D01*
X241465000Y-61101335D01*
X241465000Y-60818665D01*
X241409853Y-60541426D01*
X241301680Y-60280273D01*
X241144637Y-60045241D01*
X240944759Y-59845363D01*
X240709727Y-59688320D01*
X240565707Y-59628665D01*
X243675000Y-59628665D01*
X243675000Y-59911335D01*
X243730147Y-60188574D01*
X243838320Y-60449727D01*
X243995363Y-60684759D01*
X244195241Y-60884637D01*
X244430273Y-61041680D01*
X244691426Y-61149853D01*
X244968665Y-61205000D01*
X245251335Y-61205000D01*
X245528574Y-61149853D01*
X245789727Y-61041680D01*
X246024759Y-60884637D01*
X246224637Y-60684759D01*
X246381680Y-60449727D01*
X246489853Y-60188574D01*
X246545000Y-59911335D01*
X246545000Y-59628665D01*
X246489853Y-59351426D01*
X246381680Y-59090273D01*
X246224637Y-58855241D01*
X246024759Y-58655363D01*
X245789727Y-58498320D01*
X245528574Y-58390147D01*
X245251335Y-58335000D01*
X244968665Y-58335000D01*
X244691426Y-58390147D01*
X244430273Y-58498320D01*
X244195241Y-58655363D01*
X243995363Y-58855241D01*
X243838320Y-59090273D01*
X243730147Y-59351426D01*
X243675000Y-59628665D01*
X240565707Y-59628665D01*
X240448574Y-59580147D01*
X240171335Y-59525000D01*
X239888665Y-59525000D01*
X239611426Y-59580147D01*
X239350273Y-59688320D01*
X239115241Y-59845363D01*
X238915363Y-60045241D01*
X238758320Y-60280273D01*
X238650147Y-60541426D01*
X238595000Y-60818665D01*
X233848072Y-60818665D01*
X233848072Y-60160000D01*
X233835812Y-60035518D01*
X233799502Y-59915820D01*
X233740537Y-59805506D01*
X233661185Y-59708815D01*
X233564494Y-59629463D01*
X233454180Y-59570498D01*
X233334482Y-59534188D01*
X233210000Y-59521928D01*
X231610000Y-59521928D01*
X231485518Y-59534188D01*
X231365820Y-59570498D01*
X231255506Y-59629463D01*
X231158815Y-59708815D01*
X231079463Y-59805506D01*
X231020498Y-59915820D01*
X230984188Y-60035518D01*
X230971928Y-60160000D01*
X228688551Y-60160000D01*
X228709853Y-60108574D01*
X228765000Y-59831335D01*
X228765000Y-59548665D01*
X228709853Y-59271426D01*
X228601680Y-59010273D01*
X228444637Y-58775241D01*
X228244759Y-58575363D01*
X228009727Y-58418320D01*
X227748574Y-58310147D01*
X227471335Y-58255000D01*
X227188665Y-58255000D01*
X226911426Y-58310147D01*
X226650273Y-58418320D01*
X226415241Y-58575363D01*
X226215363Y-58775241D01*
X226058320Y-59010273D01*
X225950147Y-59271426D01*
X225895000Y-59548665D01*
X222415000Y-59548665D01*
X222359853Y-59271426D01*
X222251680Y-59010273D01*
X222094637Y-58775241D01*
X221894759Y-58575363D01*
X221659727Y-58418320D01*
X221398574Y-58310147D01*
X221121335Y-58255000D01*
X220838665Y-58255000D01*
X220561426Y-58310147D01*
X220300273Y-58418320D01*
X220065241Y-58575363D01*
X219865363Y-58775241D01*
X219708320Y-59010273D01*
X219600147Y-59271426D01*
X219545000Y-59548665D01*
X216160306Y-59548665D01*
X216041335Y-59525000D01*
X215758665Y-59525000D01*
X215481426Y-59580147D01*
X215220273Y-59688320D01*
X214985241Y-59845363D01*
X214785363Y-60045241D01*
X214628320Y-60280273D01*
X214520147Y-60541426D01*
X214465000Y-60818665D01*
X209718072Y-60818665D01*
X209718072Y-60160000D01*
X209705812Y-60035518D01*
X209669502Y-59915820D01*
X209610537Y-59805506D01*
X209531185Y-59708815D01*
X209434494Y-59629463D01*
X209324180Y-59570498D01*
X209204482Y-59534188D01*
X209080000Y-59521928D01*
X207480000Y-59521928D01*
X207355518Y-59534188D01*
X207235820Y-59570498D01*
X207125506Y-59629463D01*
X207028815Y-59708815D01*
X206949463Y-59805506D01*
X206890498Y-59915820D01*
X206854188Y-60035518D01*
X206841928Y-60160000D01*
X198882000Y-60160000D01*
X198882000Y-54389872D01*
X247955000Y-54389872D01*
X247955000Y-54830128D01*
X248040890Y-55261925D01*
X248209369Y-55668669D01*
X248453962Y-56034729D01*
X248765271Y-56346038D01*
X249131331Y-56590631D01*
X249538075Y-56759110D01*
X249969872Y-56845000D01*
X250410128Y-56845000D01*
X250841925Y-56759110D01*
X251248669Y-56590631D01*
X251614729Y-56346038D01*
X251926038Y-56034729D01*
X252170631Y-55668669D01*
X252339110Y-55261925D01*
X252425000Y-54830128D01*
X252425000Y-54389872D01*
X252339110Y-53958075D01*
X252170631Y-53551331D01*
X251926038Y-53185271D01*
X251614729Y-52873962D01*
X251248669Y-52629369D01*
X250841925Y-52460890D01*
X250410128Y-52375000D01*
X249969872Y-52375000D01*
X249538075Y-52460890D01*
X249131331Y-52629369D01*
X248765271Y-52873962D01*
X248453962Y-53185271D01*
X248209369Y-53551331D01*
X248040890Y-53958075D01*
X247955000Y-54389872D01*
X198882000Y-54389872D01*
X198882000Y-51460000D01*
X260960001Y-51460000D01*
X260960000Y-112370000D01*
G37*
X260960000Y-112370000D02*
X198882000Y-112370000D01*
X198882000Y-106538665D01*
X201765000Y-106538665D01*
X201765000Y-106821335D01*
X201820147Y-107098574D01*
X201928320Y-107359727D01*
X202085363Y-107594759D01*
X202285241Y-107794637D01*
X202520273Y-107951680D01*
X202781426Y-108059853D01*
X203058665Y-108115000D01*
X203341335Y-108115000D01*
X203618574Y-108059853D01*
X203879727Y-107951680D01*
X204114759Y-107794637D01*
X204314637Y-107594759D01*
X204471680Y-107359727D01*
X204579853Y-107098574D01*
X204635000Y-106821335D01*
X204635000Y-106538665D01*
X204579853Y-106261426D01*
X204471680Y-106000273D01*
X204314637Y-105765241D01*
X204114759Y-105565363D01*
X203879727Y-105408320D01*
X203618574Y-105300147D01*
X203341335Y-105245000D01*
X203058665Y-105245000D01*
X202781426Y-105300147D01*
X202520273Y-105408320D01*
X202285241Y-105565363D01*
X202085363Y-105765241D01*
X201928320Y-106000273D01*
X201820147Y-106261426D01*
X201765000Y-106538665D01*
X198882000Y-106538665D01*
X198882000Y-98260000D01*
X201761928Y-98260000D01*
X201761928Y-99860000D01*
X201774188Y-99984482D01*
X201810498Y-100104180D01*
X201869463Y-100214494D01*
X201948815Y-100311185D01*
X202045506Y-100390537D01*
X202155820Y-100449502D01*
X202275518Y-100485812D01*
X202400000Y-100498072D01*
X204000000Y-100498072D01*
X204124482Y-100485812D01*
X204244180Y-100449502D01*
X204354494Y-100390537D01*
X204451185Y-100311185D01*
X204530537Y-100214494D01*
X204589502Y-100104180D01*
X204625812Y-99984482D01*
X204638072Y-99860000D01*
X204638072Y-98260000D01*
X204625812Y-98135518D01*
X204589502Y-98015820D01*
X204530537Y-97905506D01*
X204451185Y-97808815D01*
X204354494Y-97729463D01*
X204244180Y-97670498D01*
X204124482Y-97634188D01*
X204000000Y-97621928D01*
X202400000Y-97621928D01*
X202275518Y-97634188D01*
X202155820Y-97670498D01*
X202045506Y-97729463D01*
X201948815Y-97808815D01*
X201869463Y-97905506D01*
X201810498Y-98015820D01*
X201774188Y-98135518D01*
X201761928Y-98260000D01*
X198882000Y-98260000D01*
X198882000Y-95108665D01*
X201765000Y-95108665D01*
X201765000Y-95391335D01*
X201820147Y-95668574D01*
X201928320Y-95929727D01*
X202085363Y-96164759D01*
X202285241Y-96364637D01*
X202520273Y-96521680D01*
X202781426Y-96629853D01*
X203058665Y-96685000D01*
X203341335Y-96685000D01*
X203618574Y-96629853D01*
X203879727Y-96521680D01*
X204114759Y-96364637D01*
X204314637Y-96164759D01*
X204471680Y-95929727D01*
X204579853Y-95668574D01*
X204635000Y-95391335D01*
X204635000Y-95108665D01*
X204579853Y-94831426D01*
X204471680Y-94570273D01*
X204314637Y-94335241D01*
X204114759Y-94135363D01*
X203879727Y-93978320D01*
X203618574Y-93870147D01*
X203341335Y-93815000D01*
X203058665Y-93815000D01*
X202781426Y-93870147D01*
X202520273Y-93978320D01*
X202285241Y-94135363D01*
X202085363Y-94335241D01*
X201928320Y-94570273D01*
X201820147Y-94831426D01*
X201765000Y-95108665D01*
X198882000Y-95108665D01*
X198882000Y-86830000D01*
X201761928Y-86830000D01*
X201761928Y-88430000D01*
X201774188Y-88554482D01*
X201810498Y-88674180D01*
X201869463Y-88784494D01*
X201948815Y-88881185D01*
X202045506Y-88960537D01*
X202155820Y-89019502D01*
X202275518Y-89055812D01*
X202400000Y-89068072D01*
X204000000Y-89068072D01*
X204124482Y-89055812D01*
X204244180Y-89019502D01*
X204354494Y-88960537D01*
X204451185Y-88881185D01*
X204530537Y-88784494D01*
X204589502Y-88674180D01*
X204625812Y-88554482D01*
X204638072Y-88430000D01*
X204638072Y-86830000D01*
X204625812Y-86705518D01*
X204589502Y-86585820D01*
X204530537Y-86475506D01*
X204451185Y-86378815D01*
X204354494Y-86299463D01*
X204244180Y-86240498D01*
X204124482Y-86204188D01*
X204000000Y-86191928D01*
X202400000Y-86191928D01*
X202275518Y-86204188D01*
X202155820Y-86240498D01*
X202045506Y-86299463D01*
X201948815Y-86378815D01*
X201869463Y-86475506D01*
X201810498Y-86585820D01*
X201774188Y-86705518D01*
X201761928Y-86830000D01*
X198882000Y-86830000D01*
X198882000Y-73382702D01*
X199846903Y-73382702D01*
X199918486Y-73626671D01*
X200173996Y-73747571D01*
X200448184Y-73816300D01*
X200730512Y-73830217D01*
X201010130Y-73788787D01*
X201276292Y-73693603D01*
X201401514Y-73626671D01*
X201473097Y-73382702D01*
X200660000Y-72569605D01*
X199846903Y-73382702D01*
X198882000Y-73382702D01*
X198882000Y-72460512D01*
X199219783Y-72460512D01*
X199261213Y-72740130D01*
X199356397Y-73006292D01*
X199423329Y-73131514D01*
X199667298Y-73203097D01*
X200480395Y-72390000D01*
X199667298Y-71576903D01*
X199423329Y-71648486D01*
X199302429Y-71903996D01*
X199233700Y-72178184D01*
X199219783Y-72460512D01*
X198882000Y-72460512D01*
X198882000Y-67248665D01*
X199225000Y-67248665D01*
X199225000Y-67531335D01*
X199280147Y-67808574D01*
X199388320Y-68069727D01*
X199545363Y-68304759D01*
X199745241Y-68504637D01*
X199980273Y-68661680D01*
X200241426Y-68769853D01*
X200513226Y-68823918D01*
X200358102Y-68854774D01*
X200169744Y-68932795D01*
X200000226Y-69046063D01*
X199856063Y-69190226D01*
X199742795Y-69359744D01*
X199664774Y-69548102D01*
X199625000Y-69748061D01*
X199625000Y-69951939D01*
X199664774Y-70151898D01*
X199742795Y-70340256D01*
X199856063Y-70509774D01*
X200000226Y-70653937D01*
X200169744Y-70767205D01*
X200358102Y-70845226D01*
X200558061Y-70885000D01*
X200584843Y-70885000D01*
X200652744Y-70952901D01*
X200589488Y-70949783D01*
X200309870Y-70991213D01*
X200043708Y-71086397D01*
X199918486Y-71153329D01*
X199846903Y-71397298D01*
X200660000Y-72210395D01*
X200674143Y-72196253D01*
X200853748Y-72375858D01*
X200839605Y-72390000D01*
X201652702Y-73203097D01*
X201896671Y-73131514D01*
X202017571Y-72876004D01*
X202086300Y-72601816D01*
X202096417Y-72396574D01*
X203685001Y-73985158D01*
X203685000Y-77431447D01*
X203681203Y-77470000D01*
X203685000Y-77508553D01*
X203685000Y-77508560D01*
X203696359Y-77623886D01*
X203741246Y-77771859D01*
X203814138Y-77908232D01*
X203912236Y-78027764D01*
X203942190Y-78052347D01*
X206345000Y-80455157D01*
X206344999Y-102951446D01*
X206341202Y-102989999D01*
X206344999Y-103028552D01*
X206344999Y-103028559D01*
X206356358Y-103143885D01*
X206401245Y-103291858D01*
X206474137Y-103428231D01*
X206572235Y-103547763D01*
X206602189Y-103572346D01*
X208967658Y-105937816D01*
X208992236Y-105967764D01*
X209022184Y-105992342D01*
X209022187Y-105992345D01*
X209051559Y-106016450D01*
X209111767Y-106065862D01*
X209248140Y-106138754D01*
X209361672Y-106173194D01*
X209396112Y-106183641D01*
X209410490Y-106185057D01*
X209511439Y-106195000D01*
X209511446Y-106195000D01*
X209549999Y-106198797D01*
X209588552Y-106195000D01*
X213428661Y-106195000D01*
X213515363Y-106324759D01*
X213715241Y-106524637D01*
X213950273Y-106681680D01*
X214211426Y-106789853D01*
X214488665Y-106845000D01*
X214771335Y-106845000D01*
X215048574Y-106789853D01*
X215309727Y-106681680D01*
X215544759Y-106524637D01*
X215744637Y-106324759D01*
X215901680Y-106089727D01*
X216009853Y-105828574D01*
X216065000Y-105551335D01*
X216065000Y-105268665D01*
X223355000Y-105268665D01*
X223355000Y-105551335D01*
X223410147Y-105828574D01*
X223518320Y-106089727D01*
X223675363Y-106324759D01*
X223875241Y-106524637D01*
X224110273Y-106681680D01*
X224371426Y-106789853D01*
X224648665Y-106845000D01*
X224931335Y-106845000D01*
X225025418Y-106826285D01*
X228991070Y-110791938D01*
X228991075Y-110791942D01*
X229250558Y-111051426D01*
X229276709Y-111083291D01*
X229403854Y-111187636D01*
X229548913Y-111265172D01*
X229706311Y-111312918D01*
X229870000Y-111329040D01*
X229911018Y-111325000D01*
X241086984Y-111325000D01*
X241128002Y-111329040D01*
X241169020Y-111325000D01*
X241169021Y-111325000D01*
X241291691Y-111312918D01*
X241449089Y-111265172D01*
X241594148Y-111187636D01*
X241721293Y-111083291D01*
X241747448Y-111051421D01*
X243798997Y-108999872D01*
X247955000Y-108999872D01*
X247955000Y-109440128D01*
X248040890Y-109871925D01*
X248209369Y-110278669D01*
X248453962Y-110644729D01*
X248765271Y-110956038D01*
X249131331Y-111200631D01*
X249538075Y-111369110D01*
X249969872Y-111455000D01*
X250410128Y-111455000D01*
X250841925Y-111369110D01*
X251248669Y-111200631D01*
X251614729Y-110956038D01*
X251926038Y-110644729D01*
X252170631Y-110278669D01*
X252339110Y-109871925D01*
X252425000Y-109440128D01*
X252425000Y-108999872D01*
X252339110Y-108568075D01*
X252170631Y-108161331D01*
X251926038Y-107795271D01*
X251614729Y-107483962D01*
X251248669Y-107239369D01*
X250841925Y-107070890D01*
X250410128Y-106985000D01*
X249969872Y-106985000D01*
X249538075Y-107070890D01*
X249131331Y-107239369D01*
X248765271Y-107483962D01*
X248453962Y-107795271D01*
X248209369Y-108161331D01*
X248040890Y-108568075D01*
X247955000Y-108999872D01*
X243798997Y-108999872D01*
X255831427Y-96967443D01*
X255863291Y-96941293D01*
X255967636Y-96814148D01*
X256045172Y-96669089D01*
X256092918Y-96511691D01*
X256105000Y-96389021D01*
X256105000Y-96389011D01*
X256109039Y-96348003D01*
X256105000Y-96306995D01*
X256105000Y-62271015D01*
X256109040Y-62229999D01*
X256098220Y-62120147D01*
X256092918Y-62066311D01*
X256045172Y-61908913D01*
X255967636Y-61763854D01*
X255863291Y-61636709D01*
X255831428Y-61610560D01*
X254619446Y-60398579D01*
X254593291Y-60366709D01*
X254466146Y-60262364D01*
X254321087Y-60184828D01*
X254163689Y-60137082D01*
X254041019Y-60125000D01*
X254041018Y-60125000D01*
X254000000Y-60120960D01*
X253958982Y-60125000D01*
X252948072Y-60125000D01*
X252948072Y-60110000D01*
X252935812Y-59985518D01*
X252899502Y-59865820D01*
X252840537Y-59755506D01*
X252761185Y-59658815D01*
X252664494Y-59579463D01*
X252554180Y-59520498D01*
X252434482Y-59484188D01*
X252310000Y-59471928D01*
X250610000Y-59471928D01*
X250485518Y-59484188D01*
X250365820Y-59520498D01*
X250255506Y-59579463D01*
X250158815Y-59658815D01*
X250079463Y-59755506D01*
X250020498Y-59865820D01*
X249984188Y-59985518D01*
X249971928Y-60110000D01*
X249971928Y-61810000D01*
X249984188Y-61934482D01*
X250020498Y-62054180D01*
X250079463Y-62164494D01*
X250158815Y-62261185D01*
X250255506Y-62340537D01*
X250365820Y-62399502D01*
X250446466Y-62423966D01*
X250362412Y-62499731D01*
X250188359Y-62733080D01*
X250063175Y-62995901D01*
X250018524Y-63143110D01*
X250139845Y-63373000D01*
X251333000Y-63373000D01*
X251333000Y-63353000D01*
X251587000Y-63353000D01*
X251587000Y-63373000D01*
X252780155Y-63373000D01*
X252901476Y-63143110D01*
X252856825Y-62995901D01*
X252731641Y-62733080D01*
X252557588Y-62499731D01*
X252473534Y-62423966D01*
X252554180Y-62399502D01*
X252664494Y-62340537D01*
X252761185Y-62261185D01*
X252840537Y-62164494D01*
X252899502Y-62054180D01*
X252935812Y-61934482D01*
X252948072Y-61810000D01*
X252948072Y-61795000D01*
X253654133Y-61795000D01*
X254435000Y-62575868D01*
X254435001Y-96002133D01*
X252863278Y-97573856D01*
X252873739Y-97548601D01*
X252975000Y-97039525D01*
X252975000Y-96520475D01*
X252873739Y-96011399D01*
X252675107Y-95531859D01*
X252386738Y-95100285D01*
X252019715Y-94733262D01*
X251588141Y-94444893D01*
X251108601Y-94246261D01*
X250599525Y-94145000D01*
X250080475Y-94145000D01*
X249571399Y-94246261D01*
X249091859Y-94444893D01*
X248660285Y-94733262D01*
X248293262Y-95100285D01*
X248004893Y-95531859D01*
X247806261Y-96011399D01*
X247705000Y-96520475D01*
X247705000Y-97039525D01*
X247806261Y-97548601D01*
X248004893Y-98028141D01*
X248293262Y-98459715D01*
X248660285Y-98826738D01*
X249091859Y-99115107D01*
X249571399Y-99313739D01*
X250080475Y-99415000D01*
X250599525Y-99415000D01*
X251108601Y-99313739D01*
X251133856Y-99303278D01*
X245256657Y-105180478D01*
X245238787Y-105059870D01*
X245143603Y-104793708D01*
X245076671Y-104668486D01*
X244832702Y-104596903D01*
X244019605Y-105410000D01*
X244033748Y-105424143D01*
X243854143Y-105603748D01*
X243840000Y-105589605D01*
X243026903Y-106402702D01*
X243098486Y-106646671D01*
X243353996Y-106767571D01*
X243606316Y-106830819D01*
X240782135Y-109655000D01*
X230215867Y-109655000D01*
X230171942Y-109611075D01*
X230171938Y-109611070D01*
X226206285Y-105645418D01*
X226225000Y-105551335D01*
X226225000Y-105268665D01*
X232245000Y-105268665D01*
X232245000Y-105551335D01*
X232300147Y-105828574D01*
X232408320Y-106089727D01*
X232565363Y-106324759D01*
X232765241Y-106524637D01*
X233000273Y-106681680D01*
X233261426Y-106789853D01*
X233538665Y-106845000D01*
X233821335Y-106845000D01*
X234098574Y-106789853D01*
X234359727Y-106681680D01*
X234594759Y-106524637D01*
X234794637Y-106324759D01*
X234951680Y-106089727D01*
X235059853Y-105828574D01*
X235115000Y-105551335D01*
X235115000Y-105480512D01*
X242399783Y-105480512D01*
X242441213Y-105760130D01*
X242536397Y-106026292D01*
X242603329Y-106151514D01*
X242847298Y-106223097D01*
X243660395Y-105410000D01*
X242847298Y-104596903D01*
X242603329Y-104668486D01*
X242482429Y-104923996D01*
X242413700Y-105198184D01*
X242399783Y-105480512D01*
X235115000Y-105480512D01*
X235115000Y-105268665D01*
X235059853Y-104991426D01*
X234951680Y-104730273D01*
X234794637Y-104495241D01*
X234716694Y-104417298D01*
X243026903Y-104417298D01*
X243840000Y-105230395D01*
X244653097Y-104417298D01*
X244581514Y-104173329D01*
X244326004Y-104052429D01*
X244051816Y-103983700D01*
X243769488Y-103969783D01*
X243489870Y-104011213D01*
X243223708Y-104106397D01*
X243098486Y-104173329D01*
X243026903Y-104417298D01*
X234716694Y-104417298D01*
X234594759Y-104295363D01*
X234359727Y-104138320D01*
X234098574Y-104030147D01*
X233821335Y-103975000D01*
X233538665Y-103975000D01*
X233261426Y-104030147D01*
X233000273Y-104138320D01*
X232765241Y-104295363D01*
X232565363Y-104495241D01*
X232408320Y-104730273D01*
X232300147Y-104991426D01*
X232245000Y-105268665D01*
X226225000Y-105268665D01*
X226169853Y-104991426D01*
X226061680Y-104730273D01*
X225904637Y-104495241D01*
X225704759Y-104295363D01*
X225469727Y-104138320D01*
X225208574Y-104030147D01*
X224931335Y-103975000D01*
X224648665Y-103975000D01*
X224371426Y-104030147D01*
X224110273Y-104138320D01*
X223875241Y-104295363D01*
X223675363Y-104495241D01*
X223518320Y-104730273D01*
X223410147Y-104991426D01*
X223355000Y-105268665D01*
X216065000Y-105268665D01*
X216009853Y-104991426D01*
X215901680Y-104730273D01*
X215744637Y-104495241D01*
X215544759Y-104295363D01*
X215309727Y-104138320D01*
X215048574Y-104030147D01*
X214771335Y-103975000D01*
X214488665Y-103975000D01*
X214211426Y-104030147D01*
X213950273Y-104138320D01*
X213715241Y-104295363D01*
X213515363Y-104495241D01*
X213428661Y-104625000D01*
X209875158Y-104625000D01*
X207914999Y-102664842D01*
X207914999Y-98918665D01*
X213195000Y-98918665D01*
X213195000Y-99201335D01*
X213250147Y-99478574D01*
X213358320Y-99739727D01*
X213515363Y-99974759D01*
X213715241Y-100174637D01*
X213950273Y-100331680D01*
X214211426Y-100439853D01*
X214488665Y-100495000D01*
X214771335Y-100495000D01*
X215048574Y-100439853D01*
X215309727Y-100331680D01*
X215544759Y-100174637D01*
X215744637Y-99974759D01*
X215901680Y-99739727D01*
X216009853Y-99478574D01*
X216065000Y-99201335D01*
X216065000Y-98918665D01*
X223355000Y-98918665D01*
X223355000Y-99201335D01*
X223410147Y-99478574D01*
X223518320Y-99739727D01*
X223675363Y-99974759D01*
X223875241Y-100174637D01*
X224110273Y-100331680D01*
X224371426Y-100439853D01*
X224648665Y-100495000D01*
X224931335Y-100495000D01*
X225208574Y-100439853D01*
X225469727Y-100331680D01*
X225704759Y-100174637D01*
X225904637Y-99974759D01*
X226061680Y-99739727D01*
X226169853Y-99478574D01*
X226225000Y-99201335D01*
X226225000Y-98918665D01*
X226169853Y-98641426D01*
X226061680Y-98380273D01*
X225904637Y-98145241D01*
X225704759Y-97945363D01*
X225469727Y-97788320D01*
X225208574Y-97680147D01*
X224931335Y-97625000D01*
X224648665Y-97625000D01*
X224371426Y-97680147D01*
X224110273Y-97788320D01*
X223875241Y-97945363D01*
X223675363Y-98145241D01*
X223518320Y-98380273D01*
X223410147Y-98641426D01*
X223355000Y-98918665D01*
X216065000Y-98918665D01*
X216009853Y-98641426D01*
X215901680Y-98380273D01*
X215744637Y-98145241D01*
X215544759Y-97945363D01*
X215309727Y-97788320D01*
X215048574Y-97680147D01*
X214771335Y-97625000D01*
X214488665Y-97625000D01*
X214211426Y-97680147D01*
X213950273Y-97788320D01*
X213715241Y-97945363D01*
X213515363Y-98145241D01*
X213358320Y-98380273D01*
X213250147Y-98641426D01*
X213195000Y-98918665D01*
X207914999Y-98918665D01*
X207914999Y-92568665D01*
X213195000Y-92568665D01*
X213195000Y-92851335D01*
X213250147Y-93128574D01*
X213358320Y-93389727D01*
X213515363Y-93624759D01*
X213715241Y-93824637D01*
X213950273Y-93981680D01*
X214211426Y-94089853D01*
X214488665Y-94145000D01*
X214771335Y-94145000D01*
X215048574Y-94089853D01*
X215309727Y-93981680D01*
X215544759Y-93824637D01*
X215744637Y-93624759D01*
X215901680Y-93389727D01*
X216009853Y-93128574D01*
X216065000Y-92851335D01*
X216065000Y-92568665D01*
X216009853Y-92291426D01*
X215901680Y-92030273D01*
X215744637Y-91795241D01*
X215544759Y-91595363D01*
X215309727Y-91438320D01*
X215048574Y-91330147D01*
X214771335Y-91275000D01*
X214488665Y-91275000D01*
X214211426Y-91330147D01*
X213950273Y-91438320D01*
X213715241Y-91595363D01*
X213515363Y-91795241D01*
X213358320Y-92030273D01*
X213250147Y-92291426D01*
X213195000Y-92568665D01*
X207914999Y-92568665D01*
X207914999Y-80168555D01*
X207918796Y-80129999D01*
X207914999Y-80091443D01*
X207914999Y-80091438D01*
X207911019Y-80051025D01*
X207903641Y-79976112D01*
X207858753Y-79828139D01*
X207837654Y-79788665D01*
X207785861Y-79691766D01*
X207687763Y-79572235D01*
X207657809Y-79547652D01*
X205255000Y-77144843D01*
X205255000Y-76549039D01*
X206888096Y-76549039D01*
X206928754Y-76683087D01*
X207048963Y-76937420D01*
X207216481Y-77163414D01*
X207424869Y-77352385D01*
X207666119Y-77497070D01*
X207930960Y-77591909D01*
X208153000Y-77470624D01*
X208153000Y-76327000D01*
X208407000Y-76327000D01*
X208407000Y-77470624D01*
X208629040Y-77591909D01*
X208893881Y-77497070D01*
X209135131Y-77352385D01*
X209343519Y-77163414D01*
X209511037Y-76937420D01*
X209631246Y-76683087D01*
X209671904Y-76549039D01*
X209549915Y-76327000D01*
X208407000Y-76327000D01*
X208153000Y-76327000D01*
X207010085Y-76327000D01*
X206888096Y-76549039D01*
X205255000Y-76549039D01*
X205255000Y-73698556D01*
X205258797Y-73660000D01*
X205255000Y-73621444D01*
X205255000Y-73621439D01*
X205250173Y-73572429D01*
X205243642Y-73506113D01*
X205198754Y-73358140D01*
X205125862Y-73221767D01*
X205027764Y-73102236D01*
X204997810Y-73077653D01*
X201695000Y-69774843D01*
X201695000Y-69748061D01*
X201655226Y-69548102D01*
X201577205Y-69359744D01*
X201463937Y-69190226D01*
X201319774Y-69046063D01*
X201150256Y-68932795D01*
X200961898Y-68854774D01*
X200806774Y-68823918D01*
X201078574Y-68769853D01*
X201339727Y-68661680D01*
X201574759Y-68504637D01*
X201774637Y-68304759D01*
X201931680Y-68069727D01*
X202039853Y-67808574D01*
X202095000Y-67531335D01*
X202095000Y-67248665D01*
X202039853Y-66971426D01*
X201931680Y-66710273D01*
X201774637Y-66475241D01*
X201574759Y-66275363D01*
X201339727Y-66118320D01*
X201078574Y-66010147D01*
X200801335Y-65955000D01*
X200518665Y-65955000D01*
X200241426Y-66010147D01*
X199980273Y-66118320D01*
X199745241Y-66275363D01*
X199545363Y-66475241D01*
X199388320Y-66710273D01*
X199280147Y-66971426D01*
X199225000Y-67248665D01*
X198882000Y-67248665D01*
X198882000Y-60160000D01*
X206841928Y-60160000D01*
X206841928Y-61760000D01*
X206854188Y-61884482D01*
X206890498Y-62004180D01*
X206949463Y-62114494D01*
X207028815Y-62211185D01*
X207125506Y-62290537D01*
X207235820Y-62349502D01*
X207355518Y-62385812D01*
X207363961Y-62386643D01*
X207165363Y-62585241D01*
X207008320Y-62820273D01*
X206900147Y-63081426D01*
X206845000Y-63358665D01*
X206845000Y-63641335D01*
X206900147Y-63918574D01*
X207008320Y-64179727D01*
X207165363Y-64414759D01*
X207365241Y-64614637D01*
X207597759Y-64770000D01*
X207365241Y-64925363D01*
X207165363Y-65125241D01*
X207008320Y-65360273D01*
X206900147Y-65621426D01*
X206845000Y-65898665D01*
X206845000Y-66181335D01*
X206900147Y-66458574D01*
X207008320Y-66719727D01*
X207165363Y-66954759D01*
X207365241Y-67154637D01*
X207597759Y-67310000D01*
X207365241Y-67465363D01*
X207165363Y-67665241D01*
X207008320Y-67900273D01*
X206900147Y-68161426D01*
X206845000Y-68438665D01*
X206845000Y-68721335D01*
X206900147Y-68998574D01*
X207008320Y-69259727D01*
X207165363Y-69494759D01*
X207365241Y-69694637D01*
X207597759Y-69850000D01*
X207365241Y-70005363D01*
X207165363Y-70205241D01*
X207008320Y-70440273D01*
X206900147Y-70701426D01*
X206845000Y-70978665D01*
X206845000Y-71261335D01*
X206900147Y-71538574D01*
X207008320Y-71799727D01*
X207165363Y-72034759D01*
X207365241Y-72234637D01*
X207597759Y-72390000D01*
X207365241Y-72545363D01*
X207165363Y-72745241D01*
X207008320Y-72980273D01*
X206900147Y-73241426D01*
X206845000Y-73518665D01*
X206845000Y-73801335D01*
X206900147Y-74078574D01*
X207008320Y-74339727D01*
X207165363Y-74574759D01*
X207365241Y-74774637D01*
X207600273Y-74931680D01*
X207610865Y-74936067D01*
X207424869Y-75047615D01*
X207216481Y-75236586D01*
X207048963Y-75462580D01*
X206928754Y-75716913D01*
X206888096Y-75850961D01*
X207010085Y-76073000D01*
X208153000Y-76073000D01*
X208153000Y-76053000D01*
X208407000Y-76053000D01*
X208407000Y-76073000D01*
X209549915Y-76073000D01*
X209671904Y-75850961D01*
X209631246Y-75716913D01*
X209511037Y-75462580D01*
X209343519Y-75236586D01*
X209135131Y-75047615D01*
X208949135Y-74936067D01*
X208959727Y-74931680D01*
X209194759Y-74774637D01*
X209394637Y-74574759D01*
X209551680Y-74339727D01*
X209659853Y-74078574D01*
X209715000Y-73801335D01*
X209715000Y-73518665D01*
X209659853Y-73241426D01*
X209551680Y-72980273D01*
X209394637Y-72745241D01*
X209194759Y-72545363D01*
X208962241Y-72390000D01*
X209194759Y-72234637D01*
X209394637Y-72034759D01*
X209551680Y-71799727D01*
X209659853Y-71538574D01*
X209715000Y-71261335D01*
X209715000Y-70978665D01*
X209659853Y-70701426D01*
X209551680Y-70440273D01*
X209394637Y-70205241D01*
X209194759Y-70005363D01*
X208962241Y-69850000D01*
X209194759Y-69694637D01*
X209394637Y-69494759D01*
X209551680Y-69259727D01*
X209659853Y-68998574D01*
X209715000Y-68721335D01*
X209715000Y-68438665D01*
X209659853Y-68161426D01*
X209551680Y-67900273D01*
X209394637Y-67665241D01*
X209194759Y-67465363D01*
X208962241Y-67310000D01*
X209194759Y-67154637D01*
X209394637Y-66954759D01*
X209551680Y-66719727D01*
X209659853Y-66458574D01*
X209715000Y-66181335D01*
X209715000Y-66045157D01*
X212575001Y-68905159D01*
X212575000Y-83768392D01*
X212381495Y-83897688D01*
X212167688Y-84111495D01*
X211999701Y-84362905D01*
X211883989Y-84642257D01*
X211825000Y-84938816D01*
X211825000Y-85241184D01*
X211883989Y-85537743D01*
X211999701Y-85817095D01*
X212167688Y-86068505D01*
X212234127Y-86134944D01*
X212215820Y-86140498D01*
X212105506Y-86199463D01*
X212008815Y-86278815D01*
X211929463Y-86375506D01*
X211870498Y-86485820D01*
X211834188Y-86605518D01*
X211821928Y-86730000D01*
X211821928Y-88530000D01*
X211834188Y-88654482D01*
X211870498Y-88774180D01*
X211929463Y-88884494D01*
X212008815Y-88981185D01*
X212105506Y-89060537D01*
X212215820Y-89119502D01*
X212335518Y-89155812D01*
X212460000Y-89168072D01*
X214260000Y-89168072D01*
X214384482Y-89155812D01*
X214504180Y-89119502D01*
X214614494Y-89060537D01*
X214711185Y-88981185D01*
X214790537Y-88884494D01*
X214849502Y-88774180D01*
X214885812Y-88654482D01*
X214898072Y-88530000D01*
X214898072Y-86730000D01*
X219441928Y-86730000D01*
X219441928Y-88530000D01*
X219454188Y-88654482D01*
X219490498Y-88774180D01*
X219549463Y-88884494D01*
X219628815Y-88981185D01*
X219725506Y-89060537D01*
X219835820Y-89119502D01*
X219955518Y-89155812D01*
X220080000Y-89168072D01*
X220145001Y-89168072D01*
X220145000Y-91398981D01*
X220140960Y-91440000D01*
X220145000Y-91481018D01*
X220157082Y-91603688D01*
X220204828Y-91761086D01*
X220282364Y-91906145D01*
X220386709Y-92033291D01*
X220418579Y-92059446D01*
X228038570Y-99679438D01*
X228133854Y-99757636D01*
X228278913Y-99835171D01*
X228436311Y-99882917D01*
X228599999Y-99899039D01*
X228763687Y-99882917D01*
X228888684Y-99845000D01*
X232478661Y-99845000D01*
X232565363Y-99974759D01*
X232765241Y-100174637D01*
X233000273Y-100331680D01*
X233261426Y-100439853D01*
X233538665Y-100495000D01*
X233821335Y-100495000D01*
X234098574Y-100439853D01*
X234359727Y-100331680D01*
X234594759Y-100174637D01*
X234794637Y-99974759D01*
X234951680Y-99739727D01*
X235059853Y-99478574D01*
X235073684Y-99409039D01*
X242448096Y-99409039D01*
X242488754Y-99543087D01*
X242608963Y-99797420D01*
X242776481Y-100023414D01*
X242984869Y-100212385D01*
X243226119Y-100357070D01*
X243490960Y-100451909D01*
X243713000Y-100330624D01*
X243713000Y-99187000D01*
X243967000Y-99187000D01*
X243967000Y-100330624D01*
X244189040Y-100451909D01*
X244453881Y-100357070D01*
X244695131Y-100212385D01*
X244903519Y-100023414D01*
X245071037Y-99797420D01*
X245191246Y-99543087D01*
X245231904Y-99409039D01*
X245109915Y-99187000D01*
X243967000Y-99187000D01*
X243713000Y-99187000D01*
X242570085Y-99187000D01*
X242448096Y-99409039D01*
X235073684Y-99409039D01*
X235115000Y-99201335D01*
X235115000Y-98918665D01*
X235073685Y-98710961D01*
X242448096Y-98710961D01*
X242570085Y-98933000D01*
X243713000Y-98933000D01*
X243713000Y-97789376D01*
X243967000Y-97789376D01*
X243967000Y-98933000D01*
X245109915Y-98933000D01*
X245231904Y-98710961D01*
X245191246Y-98576913D01*
X245071037Y-98322580D01*
X244903519Y-98096586D01*
X244695131Y-97907615D01*
X244453881Y-97762930D01*
X244189040Y-97668091D01*
X243967000Y-97789376D01*
X243713000Y-97789376D01*
X243490960Y-97668091D01*
X243226119Y-97762930D01*
X242984869Y-97907615D01*
X242776481Y-98096586D01*
X242608963Y-98322580D01*
X242488754Y-98576913D01*
X242448096Y-98710961D01*
X235073685Y-98710961D01*
X235059853Y-98641426D01*
X234951680Y-98380273D01*
X234794637Y-98145241D01*
X234594759Y-97945363D01*
X234359727Y-97788320D01*
X234098574Y-97680147D01*
X233821335Y-97625000D01*
X233538665Y-97625000D01*
X233261426Y-97680147D01*
X233000273Y-97788320D01*
X232765241Y-97945363D01*
X232565363Y-98145241D01*
X232478661Y-98275000D01*
X228995868Y-98275000D01*
X224865867Y-94145000D01*
X224931335Y-94145000D01*
X225208574Y-94089853D01*
X225469727Y-93981680D01*
X225704759Y-93824637D01*
X225904637Y-93624759D01*
X226061680Y-93389727D01*
X226169853Y-93128574D01*
X226225000Y-92851335D01*
X226225000Y-92568665D01*
X232245000Y-92568665D01*
X232245000Y-92851335D01*
X232300147Y-93128574D01*
X232408320Y-93389727D01*
X232565363Y-93624759D01*
X232765241Y-93824637D01*
X233000273Y-93981680D01*
X233261426Y-94089853D01*
X233538665Y-94145000D01*
X233821335Y-94145000D01*
X234098574Y-94089853D01*
X234359727Y-93981680D01*
X234594759Y-93824637D01*
X234794637Y-93624759D01*
X234951680Y-93389727D01*
X235059853Y-93128574D01*
X235115000Y-92851335D01*
X235115000Y-92568665D01*
X235059853Y-92291426D01*
X234951680Y-92030273D01*
X234794637Y-91795241D01*
X234594759Y-91595363D01*
X234359727Y-91438320D01*
X234098574Y-91330147D01*
X233821335Y-91275000D01*
X233538665Y-91275000D01*
X233261426Y-91330147D01*
X233000273Y-91438320D01*
X232765241Y-91595363D01*
X232565363Y-91795241D01*
X232408320Y-92030273D01*
X232300147Y-92291426D01*
X232245000Y-92568665D01*
X226225000Y-92568665D01*
X226169853Y-92291426D01*
X226061680Y-92030273D01*
X225904637Y-91795241D01*
X225704759Y-91595363D01*
X225469727Y-91438320D01*
X225208574Y-91330147D01*
X224931335Y-91275000D01*
X224648665Y-91275000D01*
X224371426Y-91330147D01*
X224110273Y-91438320D01*
X223875241Y-91595363D01*
X223675363Y-91795241D01*
X223518320Y-92030273D01*
X223410147Y-92291426D01*
X223355000Y-92568665D01*
X223355000Y-92634133D01*
X221815000Y-91094133D01*
X221815000Y-89168072D01*
X221880000Y-89168072D01*
X222004482Y-89155812D01*
X222124180Y-89119502D01*
X222234494Y-89060537D01*
X222331185Y-88981185D01*
X222410537Y-88884494D01*
X222469502Y-88774180D01*
X222505812Y-88654482D01*
X222518072Y-88530000D01*
X222518072Y-86730000D01*
X222505812Y-86605518D01*
X222469502Y-86485820D01*
X222410537Y-86375506D01*
X222331185Y-86278815D01*
X222257892Y-86218665D01*
X232245000Y-86218665D01*
X232245000Y-86501335D01*
X232300147Y-86778574D01*
X232408320Y-87039727D01*
X232565363Y-87274759D01*
X232765241Y-87474637D01*
X233000273Y-87631680D01*
X233261426Y-87739853D01*
X233538665Y-87795000D01*
X233821335Y-87795000D01*
X234098574Y-87739853D01*
X234359727Y-87631680D01*
X234594759Y-87474637D01*
X234794637Y-87274759D01*
X234951680Y-87039727D01*
X235059853Y-86778574D01*
X235115000Y-86501335D01*
X235115000Y-86218665D01*
X235059853Y-85941426D01*
X234951680Y-85680273D01*
X234794637Y-85445241D01*
X234594759Y-85245363D01*
X234359727Y-85088320D01*
X234098574Y-84980147D01*
X233821335Y-84925000D01*
X233538665Y-84925000D01*
X233261426Y-84980147D01*
X233000273Y-85088320D01*
X232765241Y-85245363D01*
X232565363Y-85445241D01*
X232408320Y-85680273D01*
X232300147Y-85941426D01*
X232245000Y-86218665D01*
X222257892Y-86218665D01*
X222234494Y-86199463D01*
X222124180Y-86140498D01*
X222105873Y-86134944D01*
X222172312Y-86068505D01*
X222340299Y-85817095D01*
X222456011Y-85537743D01*
X222515000Y-85241184D01*
X222515000Y-84938816D01*
X222456011Y-84642257D01*
X222340299Y-84362905D01*
X222172312Y-84111495D01*
X221958505Y-83897688D01*
X221707095Y-83729701D01*
X221427743Y-83613989D01*
X221131184Y-83555000D01*
X220828816Y-83555000D01*
X220532257Y-83613989D01*
X220252905Y-83729701D01*
X220001495Y-83897688D01*
X219787688Y-84111495D01*
X219619701Y-84362905D01*
X219503989Y-84642257D01*
X219445000Y-84938816D01*
X219445000Y-85241184D01*
X219503989Y-85537743D01*
X219619701Y-85817095D01*
X219787688Y-86068505D01*
X219854127Y-86134944D01*
X219835820Y-86140498D01*
X219725506Y-86199463D01*
X219628815Y-86278815D01*
X219549463Y-86375506D01*
X219490498Y-86485820D01*
X219454188Y-86605518D01*
X219441928Y-86730000D01*
X214898072Y-86730000D01*
X214885812Y-86605518D01*
X214849502Y-86485820D01*
X214790537Y-86375506D01*
X214711185Y-86278815D01*
X214614494Y-86199463D01*
X214504180Y-86140498D01*
X214485873Y-86134944D01*
X214552312Y-86068505D01*
X214720299Y-85817095D01*
X214836011Y-85537743D01*
X214895000Y-85241184D01*
X214895000Y-84938816D01*
X214836011Y-84642257D01*
X214720299Y-84362905D01*
X214552312Y-84111495D01*
X214338505Y-83897688D01*
X214145000Y-83768392D01*
X214145000Y-79788665D01*
X225895000Y-79788665D01*
X225895000Y-80071335D01*
X225950147Y-80348574D01*
X226058320Y-80609727D01*
X226215363Y-80844759D01*
X226415241Y-81044637D01*
X226650273Y-81201680D01*
X226911426Y-81309853D01*
X227188665Y-81365000D01*
X227471335Y-81365000D01*
X227748574Y-81309853D01*
X228009727Y-81201680D01*
X228244759Y-81044637D01*
X228444637Y-80844759D01*
X228601680Y-80609727D01*
X228709853Y-80348574D01*
X228765000Y-80071335D01*
X228765000Y-79788665D01*
X228709853Y-79511426D01*
X228601680Y-79250273D01*
X228444637Y-79015241D01*
X228244759Y-78815363D01*
X228009727Y-78658320D01*
X227748574Y-78550147D01*
X227471335Y-78495000D01*
X227188665Y-78495000D01*
X226911426Y-78550147D01*
X226650273Y-78658320D01*
X226415241Y-78815363D01*
X226215363Y-79015241D01*
X226058320Y-79250273D01*
X225950147Y-79511426D01*
X225895000Y-79788665D01*
X214145000Y-79788665D01*
X214145000Y-68618556D01*
X214148797Y-68580000D01*
X214145000Y-68541444D01*
X214145000Y-68541439D01*
X214141020Y-68501026D01*
X214133642Y-68426113D01*
X214088754Y-68278140D01*
X214015862Y-68141767D01*
X213966450Y-68081559D01*
X213942345Y-68052187D01*
X213942342Y-68052184D01*
X213917764Y-68022236D01*
X213887816Y-67997658D01*
X209684554Y-63794397D01*
X209715000Y-63641335D01*
X209715000Y-63358665D01*
X209659853Y-63081426D01*
X209551680Y-62820273D01*
X209394637Y-62585241D01*
X209196039Y-62386643D01*
X209204482Y-62385812D01*
X209324180Y-62349502D01*
X209434494Y-62290537D01*
X209531185Y-62211185D01*
X209610537Y-62114494D01*
X209669502Y-62004180D01*
X209705812Y-61884482D01*
X209718072Y-61760000D01*
X209718072Y-60818665D01*
X214465000Y-60818665D01*
X214465000Y-61101335D01*
X214520147Y-61378574D01*
X214628320Y-61639727D01*
X214785363Y-61874759D01*
X214985241Y-62074637D01*
X215217759Y-62230000D01*
X214985241Y-62385363D01*
X214785363Y-62585241D01*
X214628320Y-62820273D01*
X214520147Y-63081426D01*
X214465000Y-63358665D01*
X214465000Y-63641335D01*
X214520147Y-63918574D01*
X214628320Y-64179727D01*
X214785363Y-64414759D01*
X214985241Y-64614637D01*
X215217759Y-64770000D01*
X214985241Y-64925363D01*
X214785363Y-65125241D01*
X214628320Y-65360273D01*
X214520147Y-65621426D01*
X214465000Y-65898665D01*
X214465000Y-66181335D01*
X214520147Y-66458574D01*
X214628320Y-66719727D01*
X214785363Y-66954759D01*
X214985241Y-67154637D01*
X215217759Y-67310000D01*
X214985241Y-67465363D01*
X214785363Y-67665241D01*
X214628320Y-67900273D01*
X214520147Y-68161426D01*
X214465000Y-68438665D01*
X214465000Y-68721335D01*
X214520147Y-68998574D01*
X214628320Y-69259727D01*
X214785363Y-69494759D01*
X214985241Y-69694637D01*
X215217759Y-69850000D01*
X214985241Y-70005363D01*
X214785363Y-70205241D01*
X214628320Y-70440273D01*
X214520147Y-70701426D01*
X214465000Y-70978665D01*
X214465000Y-71261335D01*
X214520147Y-71538574D01*
X214628320Y-71799727D01*
X214785363Y-72034759D01*
X214985241Y-72234637D01*
X215217759Y-72390000D01*
X214985241Y-72545363D01*
X214785363Y-72745241D01*
X214628320Y-72980273D01*
X214520147Y-73241426D01*
X214465000Y-73518665D01*
X214465000Y-73801335D01*
X214520147Y-74078574D01*
X214628320Y-74339727D01*
X214785363Y-74574759D01*
X214985241Y-74774637D01*
X215217759Y-74930000D01*
X214985241Y-75085363D01*
X214785363Y-75285241D01*
X214628320Y-75520273D01*
X214520147Y-75781426D01*
X214465000Y-76058665D01*
X214465000Y-76341335D01*
X214520147Y-76618574D01*
X214628320Y-76879727D01*
X214785363Y-77114759D01*
X214985241Y-77314637D01*
X215220273Y-77471680D01*
X215481426Y-77579853D01*
X215758665Y-77635000D01*
X216041335Y-77635000D01*
X216318574Y-77579853D01*
X216579727Y-77471680D01*
X216814759Y-77314637D01*
X217014637Y-77114759D01*
X217171680Y-76879727D01*
X217279853Y-76618574D01*
X217335000Y-76341335D01*
X217335000Y-76058665D01*
X217307955Y-75922702D01*
X226516903Y-75922702D01*
X226588486Y-76166671D01*
X226843996Y-76287571D01*
X227118184Y-76356300D01*
X227400512Y-76370217D01*
X227680130Y-76328787D01*
X227946292Y-76233603D01*
X228071514Y-76166671D01*
X228143097Y-75922702D01*
X227330000Y-75109605D01*
X226516903Y-75922702D01*
X217307955Y-75922702D01*
X217279853Y-75781426D01*
X217171680Y-75520273D01*
X217014637Y-75285241D01*
X216814759Y-75085363D01*
X216687771Y-75000512D01*
X225889783Y-75000512D01*
X225931213Y-75280130D01*
X226026397Y-75546292D01*
X226093329Y-75671514D01*
X226337298Y-75743097D01*
X227150395Y-74930000D01*
X227509605Y-74930000D01*
X228322702Y-75743097D01*
X228566671Y-75671514D01*
X228687571Y-75416004D01*
X228756300Y-75141816D01*
X228770217Y-74859488D01*
X228728787Y-74579870D01*
X228633603Y-74313708D01*
X228566671Y-74188486D01*
X228322702Y-74116903D01*
X227509605Y-74930000D01*
X227150395Y-74930000D01*
X226337298Y-74116903D01*
X226093329Y-74188486D01*
X225972429Y-74443996D01*
X225903700Y-74718184D01*
X225889783Y-75000512D01*
X216687771Y-75000512D01*
X216582241Y-74930000D01*
X216814759Y-74774637D01*
X217014637Y-74574759D01*
X217171680Y-74339727D01*
X217279853Y-74078574D01*
X217335000Y-73801335D01*
X217335000Y-73518665D01*
X217279853Y-73241426D01*
X217171680Y-72980273D01*
X217014637Y-72745241D01*
X216814759Y-72545363D01*
X216582241Y-72390000D01*
X216814759Y-72234637D01*
X216880731Y-72168665D01*
X219545000Y-72168665D01*
X219545000Y-72451335D01*
X219600147Y-72728574D01*
X219708320Y-72989727D01*
X219865363Y-73224759D01*
X220065241Y-73424637D01*
X220300273Y-73581680D01*
X220561426Y-73689853D01*
X220838665Y-73745000D01*
X221121335Y-73745000D01*
X221398574Y-73689853D01*
X221659727Y-73581680D01*
X221894759Y-73424637D01*
X222094637Y-73224759D01*
X222251680Y-72989727D01*
X222359853Y-72728574D01*
X222415000Y-72451335D01*
X222415000Y-72168665D01*
X225895000Y-72168665D01*
X225895000Y-72451335D01*
X225950147Y-72728574D01*
X226058320Y-72989727D01*
X226215363Y-73224759D01*
X226415241Y-73424637D01*
X226650273Y-73581680D01*
X226737601Y-73617852D01*
X226713708Y-73626397D01*
X226588486Y-73693329D01*
X226516903Y-73937298D01*
X227330000Y-74750395D01*
X228143097Y-73937298D01*
X228071514Y-73693329D01*
X227916855Y-73620149D01*
X228009727Y-73581680D01*
X228244759Y-73424637D01*
X228444637Y-73224759D01*
X228601680Y-72989727D01*
X228709853Y-72728574D01*
X228765000Y-72451335D01*
X228765000Y-72168665D01*
X228709853Y-71891426D01*
X228601680Y-71630273D01*
X228444637Y-71395241D01*
X228244759Y-71195363D01*
X228009727Y-71038320D01*
X227748574Y-70930147D01*
X227471335Y-70875000D01*
X227188665Y-70875000D01*
X226911426Y-70930147D01*
X226650273Y-71038320D01*
X226415241Y-71195363D01*
X226215363Y-71395241D01*
X226058320Y-71630273D01*
X225950147Y-71891426D01*
X225895000Y-72168665D01*
X222415000Y-72168665D01*
X222359853Y-71891426D01*
X222251680Y-71630273D01*
X222094637Y-71395241D01*
X221894759Y-71195363D01*
X221659727Y-71038320D01*
X221398574Y-70930147D01*
X221121335Y-70875000D01*
X220838665Y-70875000D01*
X220561426Y-70930147D01*
X220300273Y-71038320D01*
X220065241Y-71195363D01*
X219865363Y-71395241D01*
X219708320Y-71630273D01*
X219600147Y-71891426D01*
X219545000Y-72168665D01*
X216880731Y-72168665D01*
X217014637Y-72034759D01*
X217171680Y-71799727D01*
X217279853Y-71538574D01*
X217335000Y-71261335D01*
X217335000Y-70978665D01*
X217279853Y-70701426D01*
X217171680Y-70440273D01*
X217014637Y-70205241D01*
X216814759Y-70005363D01*
X216582241Y-69850000D01*
X216814759Y-69694637D01*
X217014637Y-69494759D01*
X217171680Y-69259727D01*
X217279853Y-68998574D01*
X217335000Y-68721335D01*
X217335000Y-68438665D01*
X217279853Y-68161426D01*
X217171680Y-67900273D01*
X217014637Y-67665241D01*
X216814759Y-67465363D01*
X216582241Y-67310000D01*
X216814759Y-67154637D01*
X217014637Y-66954759D01*
X217171680Y-66719727D01*
X217279853Y-66458574D01*
X217335000Y-66181335D01*
X217335000Y-65898665D01*
X217279853Y-65621426D01*
X217171680Y-65360273D01*
X217014637Y-65125241D01*
X216814759Y-64925363D01*
X216582241Y-64770000D01*
X216814759Y-64614637D01*
X216880731Y-64548665D01*
X219545000Y-64548665D01*
X219545000Y-64831335D01*
X219600147Y-65108574D01*
X219708320Y-65369727D01*
X219865363Y-65604759D01*
X220065241Y-65804637D01*
X220300273Y-65961680D01*
X220392786Y-66000000D01*
X220300273Y-66038320D01*
X220065241Y-66195363D01*
X219865363Y-66395241D01*
X219708320Y-66630273D01*
X219600147Y-66891426D01*
X219545000Y-67168665D01*
X219545000Y-67451335D01*
X219600147Y-67728574D01*
X219708320Y-67989727D01*
X219865363Y-68224759D01*
X220065241Y-68424637D01*
X220300273Y-68581680D01*
X220561426Y-68689853D01*
X220838665Y-68745000D01*
X221121335Y-68745000D01*
X221398574Y-68689853D01*
X221659727Y-68581680D01*
X221894759Y-68424637D01*
X222094637Y-68224759D01*
X222251680Y-67989727D01*
X222359853Y-67728574D01*
X222415000Y-67451335D01*
X222415000Y-67168665D01*
X222359853Y-66891426D01*
X222251680Y-66630273D01*
X222094637Y-66395241D01*
X221894759Y-66195363D01*
X221659727Y-66038320D01*
X221567214Y-66000000D01*
X221659727Y-65961680D01*
X221894759Y-65804637D01*
X222094637Y-65604759D01*
X222251680Y-65369727D01*
X222359853Y-65108574D01*
X222415000Y-64831335D01*
X222415000Y-64548665D01*
X225895000Y-64548665D01*
X225895000Y-64831335D01*
X225950147Y-65108574D01*
X226058320Y-65369727D01*
X226215363Y-65604759D01*
X226415241Y-65804637D01*
X226650273Y-65961680D01*
X226742786Y-66000000D01*
X226650273Y-66038320D01*
X226415241Y-66195363D01*
X226215363Y-66395241D01*
X226058320Y-66630273D01*
X225950147Y-66891426D01*
X225895000Y-67168665D01*
X225895000Y-67451335D01*
X225950147Y-67728574D01*
X226058320Y-67989727D01*
X226215363Y-68224759D01*
X226415241Y-68424637D01*
X226650273Y-68581680D01*
X226911426Y-68689853D01*
X227188665Y-68745000D01*
X227471335Y-68745000D01*
X227748574Y-68689853D01*
X228009727Y-68581680D01*
X228244759Y-68424637D01*
X228444637Y-68224759D01*
X228601680Y-67989727D01*
X228709853Y-67728574D01*
X228765000Y-67451335D01*
X228765000Y-67168665D01*
X228709853Y-66891426D01*
X228601680Y-66630273D01*
X228444637Y-66395241D01*
X228244759Y-66195363D01*
X228009727Y-66038320D01*
X227917214Y-66000000D01*
X228009727Y-65961680D01*
X228244759Y-65804637D01*
X228444637Y-65604759D01*
X228601680Y-65369727D01*
X228709853Y-65108574D01*
X228765000Y-64831335D01*
X228765000Y-64548665D01*
X228709853Y-64271426D01*
X228601680Y-64010273D01*
X228444637Y-63775241D01*
X228244759Y-63575363D01*
X228009727Y-63418320D01*
X227748574Y-63310147D01*
X227471335Y-63255000D01*
X227188665Y-63255000D01*
X226911426Y-63310147D01*
X226650273Y-63418320D01*
X226415241Y-63575363D01*
X226215363Y-63775241D01*
X226058320Y-64010273D01*
X225950147Y-64271426D01*
X225895000Y-64548665D01*
X222415000Y-64548665D01*
X222359853Y-64271426D01*
X222251680Y-64010273D01*
X222094637Y-63775241D01*
X221894759Y-63575363D01*
X221659727Y-63418320D01*
X221398574Y-63310147D01*
X221121335Y-63255000D01*
X220838665Y-63255000D01*
X220561426Y-63310147D01*
X220300273Y-63418320D01*
X220065241Y-63575363D01*
X219865363Y-63775241D01*
X219708320Y-64010273D01*
X219600147Y-64271426D01*
X219545000Y-64548665D01*
X216880731Y-64548665D01*
X217014637Y-64414759D01*
X217171680Y-64179727D01*
X217279853Y-63918574D01*
X217335000Y-63641335D01*
X217335000Y-63358665D01*
X217279853Y-63081426D01*
X217171680Y-62820273D01*
X217014637Y-62585241D01*
X216814759Y-62385363D01*
X216582241Y-62230000D01*
X216814759Y-62074637D01*
X217014637Y-61874759D01*
X217171680Y-61639727D01*
X217279853Y-61378574D01*
X217335000Y-61101335D01*
X217335000Y-60818665D01*
X217279853Y-60541426D01*
X217171680Y-60280273D01*
X217014637Y-60045241D01*
X216814759Y-59845363D01*
X216579727Y-59688320D01*
X216318574Y-59580147D01*
X216160306Y-59548665D01*
X219545000Y-59548665D01*
X219545000Y-59831335D01*
X219600147Y-60108574D01*
X219708320Y-60369727D01*
X219865363Y-60604759D01*
X220065241Y-60804637D01*
X220300273Y-60961680D01*
X220561426Y-61069853D01*
X220838665Y-61125000D01*
X221121335Y-61125000D01*
X221398574Y-61069853D01*
X221659727Y-60961680D01*
X221894759Y-60804637D01*
X222094637Y-60604759D01*
X222251680Y-60369727D01*
X222359853Y-60108574D01*
X222415000Y-59831335D01*
X222415000Y-59548665D01*
X225895000Y-59548665D01*
X225895000Y-59831335D01*
X225950147Y-60108574D01*
X226058320Y-60369727D01*
X226215363Y-60604759D01*
X226415241Y-60804637D01*
X226650273Y-60961680D01*
X226911426Y-61069853D01*
X227188665Y-61125000D01*
X227471335Y-61125000D01*
X227748574Y-61069853D01*
X228009727Y-60961680D01*
X228244759Y-60804637D01*
X228444637Y-60604759D01*
X228601680Y-60369727D01*
X228688551Y-60160000D01*
X230971928Y-60160000D01*
X230971928Y-61760000D01*
X230984188Y-61884482D01*
X231020498Y-62004180D01*
X231079463Y-62114494D01*
X231158815Y-62211185D01*
X231255506Y-62290537D01*
X231365820Y-62349502D01*
X231485518Y-62385812D01*
X231493961Y-62386643D01*
X231295363Y-62585241D01*
X231138320Y-62820273D01*
X231030147Y-63081426D01*
X230975000Y-63358665D01*
X230975000Y-63641335D01*
X231030147Y-63918574D01*
X231138320Y-64179727D01*
X231295363Y-64414759D01*
X231495241Y-64614637D01*
X231727759Y-64770000D01*
X231495241Y-64925363D01*
X231295363Y-65125241D01*
X231138320Y-65360273D01*
X231030147Y-65621426D01*
X230975000Y-65898665D01*
X230975000Y-66181335D01*
X231030147Y-66458574D01*
X231138320Y-66719727D01*
X231295363Y-66954759D01*
X231495241Y-67154637D01*
X231727759Y-67310000D01*
X231495241Y-67465363D01*
X231295363Y-67665241D01*
X231138320Y-67900273D01*
X231030147Y-68161426D01*
X230975000Y-68438665D01*
X230975000Y-68721335D01*
X231030147Y-68998574D01*
X231138320Y-69259727D01*
X231295363Y-69494759D01*
X231495241Y-69694637D01*
X231727759Y-69850000D01*
X231495241Y-70005363D01*
X231295363Y-70205241D01*
X231138320Y-70440273D01*
X231030147Y-70701426D01*
X230975000Y-70978665D01*
X230975000Y-71261335D01*
X231030147Y-71538574D01*
X231138320Y-71799727D01*
X231295363Y-72034759D01*
X231495241Y-72234637D01*
X231727759Y-72390000D01*
X231495241Y-72545363D01*
X231295363Y-72745241D01*
X231138320Y-72980273D01*
X231030147Y-73241426D01*
X230975000Y-73518665D01*
X230975000Y-73801335D01*
X231030147Y-74078574D01*
X231138320Y-74339727D01*
X231295363Y-74574759D01*
X231495241Y-74774637D01*
X231727759Y-74930000D01*
X231495241Y-75085363D01*
X231295363Y-75285241D01*
X231138320Y-75520273D01*
X231030147Y-75781426D01*
X230975000Y-76058665D01*
X230975000Y-76341335D01*
X231030147Y-76618574D01*
X231138320Y-76879727D01*
X231295363Y-77114759D01*
X231495241Y-77314637D01*
X231727759Y-77470000D01*
X231495241Y-77625363D01*
X231295363Y-77825241D01*
X231138320Y-78060273D01*
X231030147Y-78321426D01*
X230975000Y-78598665D01*
X230975000Y-78881335D01*
X231030147Y-79158574D01*
X231138320Y-79419727D01*
X231295363Y-79654759D01*
X231495241Y-79854637D01*
X231730273Y-80011680D01*
X231991426Y-80119853D01*
X232268665Y-80175000D01*
X232551335Y-80175000D01*
X232828574Y-80119853D01*
X233089727Y-80011680D01*
X233324759Y-79854637D01*
X233524637Y-79654759D01*
X233681680Y-79419727D01*
X233789853Y-79158574D01*
X233845000Y-78881335D01*
X233845000Y-78598665D01*
X233789853Y-78321426D01*
X233681680Y-78060273D01*
X233524637Y-77825241D01*
X233324759Y-77625363D01*
X233092241Y-77470000D01*
X233324759Y-77314637D01*
X233524637Y-77114759D01*
X233681680Y-76879727D01*
X233789853Y-76618574D01*
X233845000Y-76341335D01*
X233845000Y-76058665D01*
X233789853Y-75781426D01*
X233681680Y-75520273D01*
X233524637Y-75285241D01*
X233324759Y-75085363D01*
X233092241Y-74930000D01*
X233324759Y-74774637D01*
X233524637Y-74574759D01*
X233681680Y-74339727D01*
X233789853Y-74078574D01*
X233845000Y-73801335D01*
X233845000Y-73518665D01*
X233789853Y-73241426D01*
X233681680Y-72980273D01*
X233524637Y-72745241D01*
X233324759Y-72545363D01*
X233092241Y-72390000D01*
X233324759Y-72234637D01*
X233524637Y-72034759D01*
X233681680Y-71799727D01*
X233789853Y-71538574D01*
X233845000Y-71261335D01*
X233845000Y-70978665D01*
X233789853Y-70701426D01*
X233681680Y-70440273D01*
X233524637Y-70205241D01*
X233324759Y-70005363D01*
X233092241Y-69850000D01*
X233324759Y-69694637D01*
X233524637Y-69494759D01*
X233681680Y-69259727D01*
X233789853Y-68998574D01*
X233845000Y-68721335D01*
X233845000Y-68438665D01*
X233789853Y-68161426D01*
X233681680Y-67900273D01*
X233524637Y-67665241D01*
X233324759Y-67465363D01*
X233092241Y-67310000D01*
X233324759Y-67154637D01*
X233524637Y-66954759D01*
X233681680Y-66719727D01*
X233789853Y-66458574D01*
X233845000Y-66181335D01*
X233845000Y-65898665D01*
X238595000Y-65898665D01*
X238595000Y-66181335D01*
X238650147Y-66458574D01*
X238758320Y-66719727D01*
X238915363Y-66954759D01*
X239115241Y-67154637D01*
X239347759Y-67310000D01*
X239115241Y-67465363D01*
X238915363Y-67665241D01*
X238758320Y-67900273D01*
X238650147Y-68161426D01*
X238595000Y-68438665D01*
X238595000Y-68721335D01*
X238650147Y-68998574D01*
X238758320Y-69259727D01*
X238915363Y-69494759D01*
X239115241Y-69694637D01*
X239347759Y-69850000D01*
X239115241Y-70005363D01*
X238915363Y-70205241D01*
X238758320Y-70440273D01*
X238650147Y-70701426D01*
X238595000Y-70978665D01*
X238595000Y-71261335D01*
X238650147Y-71538574D01*
X238758320Y-71799727D01*
X238915363Y-72034759D01*
X239115241Y-72234637D01*
X239347759Y-72390000D01*
X239115241Y-72545363D01*
X238915363Y-72745241D01*
X238758320Y-72980273D01*
X238650147Y-73241426D01*
X238595000Y-73518665D01*
X238595000Y-73801335D01*
X238650147Y-74078574D01*
X238758320Y-74339727D01*
X238915363Y-74574759D01*
X239115241Y-74774637D01*
X239347759Y-74930000D01*
X239115241Y-75085363D01*
X238915363Y-75285241D01*
X238758320Y-75520273D01*
X238650147Y-75781426D01*
X238595000Y-76058665D01*
X238595000Y-76341335D01*
X238650147Y-76618574D01*
X238758320Y-76879727D01*
X238915363Y-77114759D01*
X239115241Y-77314637D01*
X239347759Y-77470000D01*
X239115241Y-77625363D01*
X238915363Y-77825241D01*
X238758320Y-78060273D01*
X238650147Y-78321426D01*
X238595000Y-78598665D01*
X238595000Y-78881335D01*
X238650147Y-79158574D01*
X238758320Y-79419727D01*
X238915363Y-79654759D01*
X239115241Y-79854637D01*
X239245001Y-79941340D01*
X239245000Y-88861447D01*
X239241203Y-88900000D01*
X239245000Y-88938553D01*
X239245000Y-88938560D01*
X239256359Y-89053886D01*
X239301246Y-89201859D01*
X239374138Y-89338232D01*
X239472236Y-89457764D01*
X239502190Y-89482347D01*
X242435446Y-92415603D01*
X242405000Y-92568665D01*
X242405000Y-92851335D01*
X242460147Y-93128574D01*
X242568320Y-93389727D01*
X242725363Y-93624759D01*
X242925241Y-93824637D01*
X243160273Y-93981680D01*
X243421426Y-94089853D01*
X243698665Y-94145000D01*
X243981335Y-94145000D01*
X244258574Y-94089853D01*
X244519727Y-93981680D01*
X244754759Y-93824637D01*
X244954637Y-93624759D01*
X245111680Y-93389727D01*
X245219853Y-93128574D01*
X245275000Y-92851335D01*
X245275000Y-92568665D01*
X245219853Y-92291426D01*
X245111680Y-92030273D01*
X244954637Y-91795241D01*
X244754759Y-91595363D01*
X244519727Y-91438320D01*
X244258574Y-91330147D01*
X243981335Y-91275000D01*
X243698665Y-91275000D01*
X243545603Y-91305446D01*
X243052859Y-90812702D01*
X248106903Y-90812702D01*
X248178486Y-91056671D01*
X248433996Y-91177571D01*
X248708184Y-91246300D01*
X248990512Y-91260217D01*
X249270130Y-91218787D01*
X249536292Y-91123603D01*
X249661514Y-91056671D01*
X249733097Y-90812702D01*
X248920000Y-89999605D01*
X248106903Y-90812702D01*
X243052859Y-90812702D01*
X242130669Y-89890512D01*
X247479783Y-89890512D01*
X247521213Y-90170130D01*
X247616397Y-90436292D01*
X247683329Y-90561514D01*
X247927298Y-90633097D01*
X248740395Y-89820000D01*
X249099605Y-89820000D01*
X249912702Y-90633097D01*
X250156671Y-90561514D01*
X250277571Y-90306004D01*
X250346300Y-90031816D01*
X250360217Y-89749488D01*
X250318787Y-89469870D01*
X250223603Y-89203708D01*
X250156671Y-89078486D01*
X249912702Y-89006903D01*
X249099605Y-89820000D01*
X248740395Y-89820000D01*
X247927298Y-89006903D01*
X247683329Y-89078486D01*
X247562429Y-89333996D01*
X247493700Y-89608184D01*
X247479783Y-89890512D01*
X242130669Y-89890512D01*
X240815000Y-88574843D01*
X240815000Y-79941339D01*
X240944759Y-79854637D01*
X241144637Y-79654759D01*
X241301680Y-79419727D01*
X241409853Y-79158574D01*
X241465000Y-78881335D01*
X241465000Y-78745157D01*
X243055001Y-80335158D01*
X243055000Y-85158661D01*
X242925241Y-85245363D01*
X242725363Y-85445241D01*
X242568320Y-85680273D01*
X242460147Y-85941426D01*
X242405000Y-86218665D01*
X242405000Y-86501335D01*
X242460147Y-86778574D01*
X242568320Y-87039727D01*
X242725363Y-87274759D01*
X242925241Y-87474637D01*
X243160273Y-87631680D01*
X243421426Y-87739853D01*
X243698665Y-87795000D01*
X243981335Y-87795000D01*
X244258574Y-87739853D01*
X244519727Y-87631680D01*
X244754759Y-87474637D01*
X244954637Y-87274759D01*
X245111680Y-87039727D01*
X245219853Y-86778574D01*
X245275000Y-86501335D01*
X245275000Y-86218665D01*
X245219853Y-85941426D01*
X245111680Y-85680273D01*
X244954637Y-85445241D01*
X244754759Y-85245363D01*
X244625000Y-85158661D01*
X244625000Y-80048556D01*
X244628797Y-80010000D01*
X244625000Y-79971444D01*
X244625000Y-79971439D01*
X244621020Y-79931026D01*
X244613642Y-79856113D01*
X244568754Y-79708140D01*
X244560002Y-79691766D01*
X244495862Y-79571767D01*
X244397764Y-79452236D01*
X244367810Y-79427653D01*
X242880157Y-77940000D01*
X247481928Y-77940000D01*
X247481928Y-79540000D01*
X247494188Y-79664482D01*
X247530498Y-79784180D01*
X247589463Y-79894494D01*
X247668815Y-79991185D01*
X247765506Y-80070537D01*
X247875820Y-80129502D01*
X247995518Y-80165812D01*
X248120000Y-80178072D01*
X248385725Y-80178072D01*
X248240273Y-80238320D01*
X248005241Y-80395363D01*
X247805363Y-80595241D01*
X247648320Y-80830273D01*
X247540147Y-81091426D01*
X247485000Y-81368665D01*
X247485000Y-81651335D01*
X247540147Y-81928574D01*
X247648320Y-82189727D01*
X247805363Y-82424759D01*
X248005241Y-82624637D01*
X248240273Y-82781680D01*
X248501426Y-82889853D01*
X248527301Y-82895000D01*
X248501426Y-82900147D01*
X248240273Y-83008320D01*
X248005241Y-83165363D01*
X247805363Y-83365241D01*
X247648320Y-83600273D01*
X247540147Y-83861426D01*
X247485000Y-84138665D01*
X247485000Y-84421335D01*
X247540147Y-84698574D01*
X247648320Y-84959727D01*
X247805363Y-85194759D01*
X248005241Y-85394637D01*
X248240273Y-85551680D01*
X248501426Y-85659853D01*
X248527301Y-85665000D01*
X248501426Y-85670147D01*
X248240273Y-85778320D01*
X248005241Y-85935363D01*
X247805363Y-86135241D01*
X247648320Y-86370273D01*
X247540147Y-86631426D01*
X247485000Y-86908665D01*
X247485000Y-87191335D01*
X247540147Y-87468574D01*
X247648320Y-87729727D01*
X247805363Y-87964759D01*
X248005241Y-88164637D01*
X248240273Y-88321680D01*
X248501426Y-88429853D01*
X248529882Y-88435513D01*
X248303708Y-88516397D01*
X248178486Y-88583329D01*
X248106903Y-88827298D01*
X248920000Y-89640395D01*
X249733097Y-88827298D01*
X249661514Y-88583329D01*
X249406004Y-88462429D01*
X249303711Y-88436788D01*
X249338574Y-88429853D01*
X249599727Y-88321680D01*
X249834759Y-88164637D01*
X250034637Y-87964759D01*
X250191680Y-87729727D01*
X250299853Y-87468574D01*
X250355000Y-87191335D01*
X250355000Y-86908665D01*
X250299853Y-86631426D01*
X250191680Y-86370273D01*
X250034637Y-86135241D01*
X249834759Y-85935363D01*
X249599727Y-85778320D01*
X249338574Y-85670147D01*
X249312699Y-85665000D01*
X249338574Y-85659853D01*
X249599727Y-85551680D01*
X249834759Y-85394637D01*
X250034637Y-85194759D01*
X250191680Y-84959727D01*
X250299853Y-84698574D01*
X250355000Y-84421335D01*
X250355000Y-84138665D01*
X250299853Y-83861426D01*
X250191680Y-83600273D01*
X250034637Y-83365241D01*
X249834759Y-83165363D01*
X249599727Y-83008320D01*
X249338574Y-82900147D01*
X249312699Y-82895000D01*
X249338574Y-82889853D01*
X249599727Y-82781680D01*
X249834759Y-82624637D01*
X250034637Y-82424759D01*
X250191680Y-82189727D01*
X250299853Y-81928574D01*
X250355000Y-81651335D01*
X250355000Y-81368665D01*
X250299853Y-81091426D01*
X250191680Y-80830273D01*
X250034637Y-80595241D01*
X249834759Y-80395363D01*
X249599727Y-80238320D01*
X249454275Y-80178072D01*
X249720000Y-80178072D01*
X249844482Y-80165812D01*
X249964180Y-80129502D01*
X250074494Y-80070537D01*
X250171185Y-79991185D01*
X250177356Y-79983665D01*
X250325000Y-79983665D01*
X250325000Y-80266335D01*
X250380147Y-80543574D01*
X250488320Y-80804727D01*
X250645363Y-81039759D01*
X250845241Y-81239637D01*
X251080273Y-81396680D01*
X251341426Y-81504853D01*
X251367301Y-81510000D01*
X251341426Y-81515147D01*
X251080273Y-81623320D01*
X250845241Y-81780363D01*
X250645363Y-81980241D01*
X250488320Y-82215273D01*
X250380147Y-82476426D01*
X250325000Y-82753665D01*
X250325000Y-83036335D01*
X250380147Y-83313574D01*
X250488320Y-83574727D01*
X250645363Y-83809759D01*
X250845241Y-84009637D01*
X251080273Y-84166680D01*
X251341426Y-84274853D01*
X251367301Y-84280000D01*
X251341426Y-84285147D01*
X251080273Y-84393320D01*
X250845241Y-84550363D01*
X250645363Y-84750241D01*
X250488320Y-84985273D01*
X250380147Y-85246426D01*
X250325000Y-85523665D01*
X250325000Y-85806335D01*
X250380147Y-86083574D01*
X250488320Y-86344727D01*
X250645363Y-86579759D01*
X250845241Y-86779637D01*
X251080273Y-86936680D01*
X251341426Y-87044853D01*
X251367301Y-87050000D01*
X251341426Y-87055147D01*
X251080273Y-87163320D01*
X250845241Y-87320363D01*
X250645363Y-87520241D01*
X250488320Y-87755273D01*
X250380147Y-88016426D01*
X250325000Y-88293665D01*
X250325000Y-88576335D01*
X250380147Y-88853574D01*
X250488320Y-89114727D01*
X250645363Y-89349759D01*
X250845241Y-89549637D01*
X251080273Y-89706680D01*
X251341426Y-89814853D01*
X251618665Y-89870000D01*
X251901335Y-89870000D01*
X252178574Y-89814853D01*
X252439727Y-89706680D01*
X252674759Y-89549637D01*
X252874637Y-89349759D01*
X253031680Y-89114727D01*
X253139853Y-88853574D01*
X253195000Y-88576335D01*
X253195000Y-88293665D01*
X253139853Y-88016426D01*
X253031680Y-87755273D01*
X252874637Y-87520241D01*
X252674759Y-87320363D01*
X252439727Y-87163320D01*
X252178574Y-87055147D01*
X252152699Y-87050000D01*
X252178574Y-87044853D01*
X252439727Y-86936680D01*
X252674759Y-86779637D01*
X252874637Y-86579759D01*
X253031680Y-86344727D01*
X253139853Y-86083574D01*
X253195000Y-85806335D01*
X253195000Y-85523665D01*
X253139853Y-85246426D01*
X253031680Y-84985273D01*
X252874637Y-84750241D01*
X252674759Y-84550363D01*
X252439727Y-84393320D01*
X252178574Y-84285147D01*
X252152699Y-84280000D01*
X252178574Y-84274853D01*
X252439727Y-84166680D01*
X252674759Y-84009637D01*
X252874637Y-83809759D01*
X253031680Y-83574727D01*
X253139853Y-83313574D01*
X253195000Y-83036335D01*
X253195000Y-82753665D01*
X253139853Y-82476426D01*
X253031680Y-82215273D01*
X252874637Y-81980241D01*
X252674759Y-81780363D01*
X252439727Y-81623320D01*
X252178574Y-81515147D01*
X252152699Y-81510000D01*
X252178574Y-81504853D01*
X252439727Y-81396680D01*
X252674759Y-81239637D01*
X252874637Y-81039759D01*
X253031680Y-80804727D01*
X253139853Y-80543574D01*
X253195000Y-80266335D01*
X253195000Y-79983665D01*
X253139853Y-79706426D01*
X253031680Y-79445273D01*
X252874637Y-79210241D01*
X252674759Y-79010363D01*
X252439727Y-78853320D01*
X252178574Y-78745147D01*
X251901335Y-78690000D01*
X251618665Y-78690000D01*
X251341426Y-78745147D01*
X251080273Y-78853320D01*
X250845241Y-79010363D01*
X250645363Y-79210241D01*
X250488320Y-79445273D01*
X250380147Y-79706426D01*
X250325000Y-79983665D01*
X250177356Y-79983665D01*
X250250537Y-79894494D01*
X250309502Y-79784180D01*
X250345812Y-79664482D01*
X250358072Y-79540000D01*
X250358072Y-77940000D01*
X250345812Y-77815518D01*
X250309502Y-77695820D01*
X250250537Y-77585506D01*
X250171185Y-77488815D01*
X250074494Y-77409463D01*
X249964180Y-77350498D01*
X249844482Y-77314188D01*
X249720000Y-77301928D01*
X248120000Y-77301928D01*
X247995518Y-77314188D01*
X247875820Y-77350498D01*
X247765506Y-77409463D01*
X247668815Y-77488815D01*
X247589463Y-77585506D01*
X247530498Y-77695820D01*
X247494188Y-77815518D01*
X247481928Y-77940000D01*
X242880157Y-77940000D01*
X241434554Y-76494397D01*
X241465000Y-76341335D01*
X241465000Y-76058665D01*
X241409853Y-75781426D01*
X241301680Y-75520273D01*
X241144637Y-75285241D01*
X240944759Y-75085363D01*
X240712241Y-74930000D01*
X240944759Y-74774637D01*
X241144637Y-74574759D01*
X241301680Y-74339727D01*
X241409853Y-74078574D01*
X241465000Y-73801335D01*
X241465000Y-73518665D01*
X241409853Y-73241426D01*
X241301680Y-72980273D01*
X241144637Y-72745241D01*
X240944759Y-72545363D01*
X240712241Y-72390000D01*
X240944759Y-72234637D01*
X241144637Y-72034759D01*
X241301680Y-71799727D01*
X241409853Y-71538574D01*
X241413453Y-71520475D01*
X247705000Y-71520475D01*
X247705000Y-72039525D01*
X247806261Y-72548601D01*
X248004893Y-73028141D01*
X248293262Y-73459715D01*
X248660285Y-73826738D01*
X249091859Y-74115107D01*
X249571399Y-74313739D01*
X250080475Y-74415000D01*
X250599525Y-74415000D01*
X251108601Y-74313739D01*
X251588141Y-74115107D01*
X252019715Y-73826738D01*
X252386738Y-73459715D01*
X252675107Y-73028141D01*
X252873739Y-72548601D01*
X252975000Y-72039525D01*
X252975000Y-71520475D01*
X252873739Y-71011399D01*
X252675107Y-70531859D01*
X252386738Y-70100285D01*
X252019715Y-69733262D01*
X251588141Y-69444893D01*
X251108601Y-69246261D01*
X250599525Y-69145000D01*
X250080475Y-69145000D01*
X249571399Y-69246261D01*
X249091859Y-69444893D01*
X248660285Y-69733262D01*
X248293262Y-70100285D01*
X248004893Y-70531859D01*
X247806261Y-71011399D01*
X247705000Y-71520475D01*
X241413453Y-71520475D01*
X241465000Y-71261335D01*
X241465000Y-70978665D01*
X241409853Y-70701426D01*
X241301680Y-70440273D01*
X241144637Y-70205241D01*
X240944759Y-70005363D01*
X240712241Y-69850000D01*
X240944759Y-69694637D01*
X241144637Y-69494759D01*
X241301680Y-69259727D01*
X241409853Y-68998574D01*
X241465000Y-68721335D01*
X241465000Y-68438665D01*
X241409853Y-68161426D01*
X241301680Y-67900273D01*
X241144637Y-67665241D01*
X240944759Y-67465363D01*
X240712241Y-67310000D01*
X240944759Y-67154637D01*
X241144637Y-66954759D01*
X241301680Y-66719727D01*
X241409853Y-66458574D01*
X241465000Y-66181335D01*
X241465000Y-65898665D01*
X241437955Y-65762702D01*
X244296903Y-65762702D01*
X244368486Y-66006671D01*
X244623996Y-66127571D01*
X244898184Y-66196300D01*
X245180512Y-66210217D01*
X245460130Y-66168787D01*
X245726292Y-66073603D01*
X245851514Y-66006671D01*
X245923097Y-65762702D01*
X245110000Y-64949605D01*
X244296903Y-65762702D01*
X241437955Y-65762702D01*
X241409853Y-65621426D01*
X241301680Y-65360273D01*
X241144637Y-65125241D01*
X240944759Y-64925363D01*
X240817771Y-64840512D01*
X243669783Y-64840512D01*
X243711213Y-65120130D01*
X243806397Y-65386292D01*
X243873329Y-65511514D01*
X244117298Y-65583097D01*
X244930395Y-64770000D01*
X245289605Y-64770000D01*
X246102702Y-65583097D01*
X246346671Y-65511514D01*
X246467571Y-65256004D01*
X246536300Y-64981816D01*
X246550217Y-64699488D01*
X246508787Y-64419870D01*
X246413603Y-64153708D01*
X246346671Y-64028486D01*
X246102702Y-63956903D01*
X245289605Y-64770000D01*
X244930395Y-64770000D01*
X244117298Y-63956903D01*
X243873329Y-64028486D01*
X243752429Y-64283996D01*
X243683700Y-64558184D01*
X243669783Y-64840512D01*
X240817771Y-64840512D01*
X240709727Y-64768320D01*
X240699135Y-64763933D01*
X240885131Y-64652385D01*
X241093519Y-64463414D01*
X241261037Y-64237420D01*
X241381246Y-63983087D01*
X241421904Y-63849039D01*
X241382490Y-63777298D01*
X244296903Y-63777298D01*
X245110000Y-64590395D01*
X245843505Y-63856890D01*
X250018524Y-63856890D01*
X250063175Y-64004099D01*
X250188359Y-64266920D01*
X250362412Y-64500269D01*
X250578645Y-64695178D01*
X250828748Y-64844157D01*
X251103109Y-64941481D01*
X251333000Y-64820814D01*
X251333000Y-63627000D01*
X251587000Y-63627000D01*
X251587000Y-64820814D01*
X251816891Y-64941481D01*
X252091252Y-64844157D01*
X252341355Y-64695178D01*
X252557588Y-64500269D01*
X252731641Y-64266920D01*
X252856825Y-64004099D01*
X252901476Y-63856890D01*
X252780155Y-63627000D01*
X251587000Y-63627000D01*
X251333000Y-63627000D01*
X250139845Y-63627000D01*
X250018524Y-63856890D01*
X245843505Y-63856890D01*
X245923097Y-63777298D01*
X245851514Y-63533329D01*
X245596004Y-63412429D01*
X245321816Y-63343700D01*
X245039488Y-63329783D01*
X244759870Y-63371213D01*
X244493708Y-63466397D01*
X244368486Y-63533329D01*
X244296903Y-63777298D01*
X241382490Y-63777298D01*
X241299915Y-63627000D01*
X240157000Y-63627000D01*
X240157000Y-63647000D01*
X239903000Y-63647000D01*
X239903000Y-63627000D01*
X238760085Y-63627000D01*
X238638096Y-63849039D01*
X238678754Y-63983087D01*
X238798963Y-64237420D01*
X238966481Y-64463414D01*
X239174869Y-64652385D01*
X239360865Y-64763933D01*
X239350273Y-64768320D01*
X239115241Y-64925363D01*
X238915363Y-65125241D01*
X238758320Y-65360273D01*
X238650147Y-65621426D01*
X238595000Y-65898665D01*
X233845000Y-65898665D01*
X233789853Y-65621426D01*
X233681680Y-65360273D01*
X233524637Y-65125241D01*
X233324759Y-64925363D01*
X233092241Y-64770000D01*
X233324759Y-64614637D01*
X233524637Y-64414759D01*
X233681680Y-64179727D01*
X233789853Y-63918574D01*
X233845000Y-63641335D01*
X233845000Y-63358665D01*
X233789853Y-63081426D01*
X233681680Y-62820273D01*
X233524637Y-62585241D01*
X233326039Y-62386643D01*
X233334482Y-62385812D01*
X233454180Y-62349502D01*
X233564494Y-62290537D01*
X233661185Y-62211185D01*
X233740537Y-62114494D01*
X233799502Y-62004180D01*
X233835812Y-61884482D01*
X233848072Y-61760000D01*
X233848072Y-60818665D01*
X238595000Y-60818665D01*
X238595000Y-61101335D01*
X238650147Y-61378574D01*
X238758320Y-61639727D01*
X238915363Y-61874759D01*
X239115241Y-62074637D01*
X239350273Y-62231680D01*
X239360865Y-62236067D01*
X239174869Y-62347615D01*
X238966481Y-62536586D01*
X238798963Y-62762580D01*
X238678754Y-63016913D01*
X238638096Y-63150961D01*
X238760085Y-63373000D01*
X239903000Y-63373000D01*
X239903000Y-63353000D01*
X240157000Y-63353000D01*
X240157000Y-63373000D01*
X241299915Y-63373000D01*
X241421904Y-63150961D01*
X241381246Y-63016913D01*
X241261037Y-62762580D01*
X241093519Y-62536586D01*
X240885131Y-62347615D01*
X240699135Y-62236067D01*
X240709727Y-62231680D01*
X240944759Y-62074637D01*
X241144637Y-61874759D01*
X241301680Y-61639727D01*
X241409853Y-61378574D01*
X241465000Y-61101335D01*
X241465000Y-60818665D01*
X241409853Y-60541426D01*
X241301680Y-60280273D01*
X241144637Y-60045241D01*
X240944759Y-59845363D01*
X240709727Y-59688320D01*
X240565707Y-59628665D01*
X243675000Y-59628665D01*
X243675000Y-59911335D01*
X243730147Y-60188574D01*
X243838320Y-60449727D01*
X243995363Y-60684759D01*
X244195241Y-60884637D01*
X244430273Y-61041680D01*
X244691426Y-61149853D01*
X244968665Y-61205000D01*
X245251335Y-61205000D01*
X245528574Y-61149853D01*
X245789727Y-61041680D01*
X246024759Y-60884637D01*
X246224637Y-60684759D01*
X246381680Y-60449727D01*
X246489853Y-60188574D01*
X246545000Y-59911335D01*
X246545000Y-59628665D01*
X246489853Y-59351426D01*
X246381680Y-59090273D01*
X246224637Y-58855241D01*
X246024759Y-58655363D01*
X245789727Y-58498320D01*
X245528574Y-58390147D01*
X245251335Y-58335000D01*
X244968665Y-58335000D01*
X244691426Y-58390147D01*
X244430273Y-58498320D01*
X244195241Y-58655363D01*
X243995363Y-58855241D01*
X243838320Y-59090273D01*
X243730147Y-59351426D01*
X243675000Y-59628665D01*
X240565707Y-59628665D01*
X240448574Y-59580147D01*
X240171335Y-59525000D01*
X239888665Y-59525000D01*
X239611426Y-59580147D01*
X239350273Y-59688320D01*
X239115241Y-59845363D01*
X238915363Y-60045241D01*
X238758320Y-60280273D01*
X238650147Y-60541426D01*
X238595000Y-60818665D01*
X233848072Y-60818665D01*
X233848072Y-60160000D01*
X233835812Y-60035518D01*
X233799502Y-59915820D01*
X233740537Y-59805506D01*
X233661185Y-59708815D01*
X233564494Y-59629463D01*
X233454180Y-59570498D01*
X233334482Y-59534188D01*
X233210000Y-59521928D01*
X231610000Y-59521928D01*
X231485518Y-59534188D01*
X231365820Y-59570498D01*
X231255506Y-59629463D01*
X231158815Y-59708815D01*
X231079463Y-59805506D01*
X231020498Y-59915820D01*
X230984188Y-60035518D01*
X230971928Y-60160000D01*
X228688551Y-60160000D01*
X228709853Y-60108574D01*
X228765000Y-59831335D01*
X228765000Y-59548665D01*
X228709853Y-59271426D01*
X228601680Y-59010273D01*
X228444637Y-58775241D01*
X228244759Y-58575363D01*
X228009727Y-58418320D01*
X227748574Y-58310147D01*
X227471335Y-58255000D01*
X227188665Y-58255000D01*
X226911426Y-58310147D01*
X226650273Y-58418320D01*
X226415241Y-58575363D01*
X226215363Y-58775241D01*
X226058320Y-59010273D01*
X225950147Y-59271426D01*
X225895000Y-59548665D01*
X222415000Y-59548665D01*
X222359853Y-59271426D01*
X222251680Y-59010273D01*
X222094637Y-58775241D01*
X221894759Y-58575363D01*
X221659727Y-58418320D01*
X221398574Y-58310147D01*
X221121335Y-58255000D01*
X220838665Y-58255000D01*
X220561426Y-58310147D01*
X220300273Y-58418320D01*
X220065241Y-58575363D01*
X219865363Y-58775241D01*
X219708320Y-59010273D01*
X219600147Y-59271426D01*
X219545000Y-59548665D01*
X216160306Y-59548665D01*
X216041335Y-59525000D01*
X215758665Y-59525000D01*
X215481426Y-59580147D01*
X215220273Y-59688320D01*
X214985241Y-59845363D01*
X214785363Y-60045241D01*
X214628320Y-60280273D01*
X214520147Y-60541426D01*
X214465000Y-60818665D01*
X209718072Y-60818665D01*
X209718072Y-60160000D01*
X209705812Y-60035518D01*
X209669502Y-59915820D01*
X209610537Y-59805506D01*
X209531185Y-59708815D01*
X209434494Y-59629463D01*
X209324180Y-59570498D01*
X209204482Y-59534188D01*
X209080000Y-59521928D01*
X207480000Y-59521928D01*
X207355518Y-59534188D01*
X207235820Y-59570498D01*
X207125506Y-59629463D01*
X207028815Y-59708815D01*
X206949463Y-59805506D01*
X206890498Y-59915820D01*
X206854188Y-60035518D01*
X206841928Y-60160000D01*
X198882000Y-60160000D01*
X198882000Y-54389872D01*
X247955000Y-54389872D01*
X247955000Y-54830128D01*
X248040890Y-55261925D01*
X248209369Y-55668669D01*
X248453962Y-56034729D01*
X248765271Y-56346038D01*
X249131331Y-56590631D01*
X249538075Y-56759110D01*
X249969872Y-56845000D01*
X250410128Y-56845000D01*
X250841925Y-56759110D01*
X251248669Y-56590631D01*
X251614729Y-56346038D01*
X251926038Y-56034729D01*
X252170631Y-55668669D01*
X252339110Y-55261925D01*
X252425000Y-54830128D01*
X252425000Y-54389872D01*
X252339110Y-53958075D01*
X252170631Y-53551331D01*
X251926038Y-53185271D01*
X251614729Y-52873962D01*
X251248669Y-52629369D01*
X250841925Y-52460890D01*
X250410128Y-52375000D01*
X249969872Y-52375000D01*
X249538075Y-52460890D01*
X249131331Y-52629369D01*
X248765271Y-52873962D01*
X248453962Y-53185271D01*
X248209369Y-53551331D01*
X248040890Y-53958075D01*
X247955000Y-54389872D01*
X198882000Y-54389872D01*
X198882000Y-51460000D01*
X260960001Y-51460000D01*
X260960000Y-112370000D01*
%TO.N,GNDA*%
G36*
X189738000Y-112370000D02*
G01*
X165760000Y-112370000D01*
X165760000Y-108999872D01*
X166675000Y-108999872D01*
X166675000Y-109440128D01*
X166760890Y-109871925D01*
X166929369Y-110278669D01*
X167173962Y-110644729D01*
X167485271Y-110956038D01*
X167851331Y-111200631D01*
X168258075Y-111369110D01*
X168689872Y-111455000D01*
X169130128Y-111455000D01*
X169561925Y-111369110D01*
X169968669Y-111200631D01*
X170334729Y-110956038D01*
X170646038Y-110644729D01*
X170890631Y-110278669D01*
X171059110Y-109871925D01*
X171145000Y-109440128D01*
X171145000Y-108999872D01*
X171059110Y-108568075D01*
X170890631Y-108161331D01*
X170646038Y-107795271D01*
X170334729Y-107483962D01*
X169968669Y-107239369D01*
X169561925Y-107070890D01*
X169130128Y-106985000D01*
X168689872Y-106985000D01*
X168258075Y-107070890D01*
X167851331Y-107239369D01*
X167485271Y-107483962D01*
X167173962Y-107795271D01*
X166929369Y-108161331D01*
X166760890Y-108568075D01*
X166675000Y-108999872D01*
X165760000Y-108999872D01*
X165760000Y-96378665D01*
X167475000Y-96378665D01*
X167475000Y-96661335D01*
X167530147Y-96938574D01*
X167638320Y-97199727D01*
X167795363Y-97434759D01*
X167995241Y-97634637D01*
X168230273Y-97791680D01*
X168491426Y-97899853D01*
X168768665Y-97955000D01*
X169051335Y-97955000D01*
X169328574Y-97899853D01*
X169589727Y-97791680D01*
X169824759Y-97634637D01*
X170024637Y-97434759D01*
X170181680Y-97199727D01*
X170289853Y-96938574D01*
X170345000Y-96661335D01*
X170345000Y-96378665D01*
X173825000Y-96378665D01*
X173825000Y-96661335D01*
X173880147Y-96938574D01*
X173988320Y-97199727D01*
X174145363Y-97434759D01*
X174345241Y-97634637D01*
X174580273Y-97791680D01*
X174841426Y-97899853D01*
X175118665Y-97955000D01*
X175401335Y-97955000D01*
X175678574Y-97899853D01*
X175939727Y-97791680D01*
X176174759Y-97634637D01*
X176374637Y-97434759D01*
X176531680Y-97199727D01*
X176639853Y-96938574D01*
X176695000Y-96661335D01*
X176695000Y-96378665D01*
X180175000Y-96378665D01*
X180175000Y-96661335D01*
X180230147Y-96938574D01*
X180338320Y-97199727D01*
X180495363Y-97434759D01*
X180695241Y-97634637D01*
X180930273Y-97791680D01*
X181191426Y-97899853D01*
X181468665Y-97955000D01*
X181751335Y-97955000D01*
X182028574Y-97899853D01*
X182289727Y-97791680D01*
X182524759Y-97634637D01*
X182724637Y-97434759D01*
X182881680Y-97199727D01*
X182989853Y-96938574D01*
X183045000Y-96661335D01*
X183045000Y-96378665D01*
X182989853Y-96101426D01*
X182881680Y-95840273D01*
X182724637Y-95605241D01*
X182524759Y-95405363D01*
X182289727Y-95248320D01*
X182028574Y-95140147D01*
X181751335Y-95085000D01*
X181468665Y-95085000D01*
X181191426Y-95140147D01*
X180930273Y-95248320D01*
X180695241Y-95405363D01*
X180495363Y-95605241D01*
X180338320Y-95840273D01*
X180230147Y-96101426D01*
X180175000Y-96378665D01*
X176695000Y-96378665D01*
X176639853Y-96101426D01*
X176531680Y-95840273D01*
X176374637Y-95605241D01*
X176174759Y-95405363D01*
X175939727Y-95248320D01*
X175678574Y-95140147D01*
X175401335Y-95085000D01*
X175118665Y-95085000D01*
X174841426Y-95140147D01*
X174580273Y-95248320D01*
X174345241Y-95405363D01*
X174145363Y-95605241D01*
X173988320Y-95840273D01*
X173880147Y-96101426D01*
X173825000Y-96378665D01*
X170345000Y-96378665D01*
X170289853Y-96101426D01*
X170181680Y-95840273D01*
X170024637Y-95605241D01*
X169824759Y-95405363D01*
X169589727Y-95248320D01*
X169328574Y-95140147D01*
X169051335Y-95085000D01*
X168768665Y-95085000D01*
X168491426Y-95140147D01*
X168230273Y-95248320D01*
X167995241Y-95405363D01*
X167795363Y-95605241D01*
X167638320Y-95840273D01*
X167530147Y-96101426D01*
X167475000Y-96378665D01*
X165760000Y-96378665D01*
X165760000Y-91298665D01*
X186525000Y-91298665D01*
X186525000Y-91581335D01*
X186580147Y-91858574D01*
X186688320Y-92119727D01*
X186845363Y-92354759D01*
X187045241Y-92554637D01*
X187280273Y-92711680D01*
X187541426Y-92819853D01*
X187818665Y-92875000D01*
X188101335Y-92875000D01*
X188378574Y-92819853D01*
X188639727Y-92711680D01*
X188874759Y-92554637D01*
X189074637Y-92354759D01*
X189231680Y-92119727D01*
X189339853Y-91858574D01*
X189395000Y-91581335D01*
X189395000Y-91298665D01*
X189339853Y-91021426D01*
X189231680Y-90760273D01*
X189074637Y-90525241D01*
X188874759Y-90325363D01*
X188639727Y-90168320D01*
X188378574Y-90060147D01*
X188101335Y-90005000D01*
X187818665Y-90005000D01*
X187541426Y-90060147D01*
X187280273Y-90168320D01*
X187045241Y-90325363D01*
X186845363Y-90525241D01*
X186688320Y-90760273D01*
X186580147Y-91021426D01*
X186525000Y-91298665D01*
X165760000Y-91298665D01*
X165760000Y-86218665D01*
X167475000Y-86218665D01*
X167475000Y-86501335D01*
X167530147Y-86778574D01*
X167638320Y-87039727D01*
X167795363Y-87274759D01*
X167995241Y-87474637D01*
X168230273Y-87631680D01*
X168491426Y-87739853D01*
X168768665Y-87795000D01*
X169051335Y-87795000D01*
X169328574Y-87739853D01*
X169589727Y-87631680D01*
X169824759Y-87474637D01*
X170024637Y-87274759D01*
X170181680Y-87039727D01*
X170289853Y-86778574D01*
X170345000Y-86501335D01*
X170345000Y-86218665D01*
X173825000Y-86218665D01*
X173825000Y-86501335D01*
X173880147Y-86778574D01*
X173988320Y-87039727D01*
X174145363Y-87274759D01*
X174345241Y-87474637D01*
X174580273Y-87631680D01*
X174841426Y-87739853D01*
X175118665Y-87795000D01*
X175401335Y-87795000D01*
X175678574Y-87739853D01*
X175939727Y-87631680D01*
X176174759Y-87474637D01*
X176374637Y-87274759D01*
X176531680Y-87039727D01*
X176639853Y-86778574D01*
X176695000Y-86501335D01*
X176695000Y-86218665D01*
X180175000Y-86218665D01*
X180175000Y-86501335D01*
X180230147Y-86778574D01*
X180338320Y-87039727D01*
X180495363Y-87274759D01*
X180695241Y-87474637D01*
X180930273Y-87631680D01*
X181191426Y-87739853D01*
X181468665Y-87795000D01*
X181751335Y-87795000D01*
X182028574Y-87739853D01*
X182289727Y-87631680D01*
X182524759Y-87474637D01*
X182566694Y-87432702D01*
X187146903Y-87432702D01*
X187218486Y-87676671D01*
X187473996Y-87797571D01*
X187748184Y-87866300D01*
X188030512Y-87880217D01*
X188310130Y-87838787D01*
X188576292Y-87743603D01*
X188701514Y-87676671D01*
X188773097Y-87432702D01*
X187960000Y-86619605D01*
X187146903Y-87432702D01*
X182566694Y-87432702D01*
X182724637Y-87274759D01*
X182881680Y-87039727D01*
X182989853Y-86778574D01*
X183043174Y-86510512D01*
X186519783Y-86510512D01*
X186561213Y-86790130D01*
X186656397Y-87056292D01*
X186723329Y-87181514D01*
X186967298Y-87253097D01*
X187780395Y-86440000D01*
X188139605Y-86440000D01*
X188952702Y-87253097D01*
X189196671Y-87181514D01*
X189317571Y-86926004D01*
X189386300Y-86651816D01*
X189400217Y-86369488D01*
X189358787Y-86089870D01*
X189263603Y-85823708D01*
X189196671Y-85698486D01*
X188952702Y-85626903D01*
X188139605Y-86440000D01*
X187780395Y-86440000D01*
X186967298Y-85626903D01*
X186723329Y-85698486D01*
X186602429Y-85953996D01*
X186533700Y-86228184D01*
X186519783Y-86510512D01*
X183043174Y-86510512D01*
X183045000Y-86501335D01*
X183045000Y-86218665D01*
X182989853Y-85941426D01*
X182881680Y-85680273D01*
X182726012Y-85447298D01*
X187146903Y-85447298D01*
X187960000Y-86260395D01*
X188773097Y-85447298D01*
X188701514Y-85203329D01*
X188446004Y-85082429D01*
X188171816Y-85013700D01*
X187889488Y-84999783D01*
X187609870Y-85041213D01*
X187343708Y-85136397D01*
X187218486Y-85203329D01*
X187146903Y-85447298D01*
X182726012Y-85447298D01*
X182724637Y-85445241D01*
X182524759Y-85245363D01*
X182289727Y-85088320D01*
X182028574Y-84980147D01*
X181751335Y-84925000D01*
X181468665Y-84925000D01*
X181191426Y-84980147D01*
X180930273Y-85088320D01*
X180695241Y-85245363D01*
X180495363Y-85445241D01*
X180338320Y-85680273D01*
X180230147Y-85941426D01*
X180175000Y-86218665D01*
X176695000Y-86218665D01*
X176639853Y-85941426D01*
X176531680Y-85680273D01*
X176374637Y-85445241D01*
X176174759Y-85245363D01*
X175939727Y-85088320D01*
X175678574Y-84980147D01*
X175401335Y-84925000D01*
X175118665Y-84925000D01*
X174841426Y-84980147D01*
X174580273Y-85088320D01*
X174345241Y-85245363D01*
X174145363Y-85445241D01*
X173988320Y-85680273D01*
X173880147Y-85941426D01*
X173825000Y-86218665D01*
X170345000Y-86218665D01*
X170289853Y-85941426D01*
X170181680Y-85680273D01*
X170024637Y-85445241D01*
X169824759Y-85245363D01*
X169589727Y-85088320D01*
X169328574Y-84980147D01*
X169051335Y-84925000D01*
X168768665Y-84925000D01*
X168491426Y-84980147D01*
X168230273Y-85088320D01*
X167995241Y-85245363D01*
X167795363Y-85445241D01*
X167638320Y-85680273D01*
X167530147Y-85941426D01*
X167475000Y-86218665D01*
X165760000Y-86218665D01*
X165760000Y-81750000D01*
X172551928Y-81750000D01*
X172551928Y-83350000D01*
X172564188Y-83474482D01*
X172600498Y-83594180D01*
X172659463Y-83704494D01*
X172738815Y-83801185D01*
X172835506Y-83880537D01*
X172945820Y-83939502D01*
X173065518Y-83975812D01*
X173190000Y-83988072D01*
X174790000Y-83988072D01*
X174914482Y-83975812D01*
X175034180Y-83939502D01*
X175144494Y-83880537D01*
X175241185Y-83801185D01*
X175320537Y-83704494D01*
X175379502Y-83594180D01*
X175415812Y-83474482D01*
X175428072Y-83350000D01*
X175428072Y-82408665D01*
X180175000Y-82408665D01*
X180175000Y-82691335D01*
X180230147Y-82968574D01*
X180338320Y-83229727D01*
X180495363Y-83464759D01*
X180695241Y-83664637D01*
X180930273Y-83821680D01*
X181191426Y-83929853D01*
X181468665Y-83985000D01*
X181751335Y-83985000D01*
X182028574Y-83929853D01*
X182289727Y-83821680D01*
X182524759Y-83664637D01*
X182724637Y-83464759D01*
X182881680Y-83229727D01*
X182989853Y-82968574D01*
X183045000Y-82691335D01*
X183045000Y-82408665D01*
X182989853Y-82131426D01*
X182881680Y-81870273D01*
X182724637Y-81635241D01*
X182524759Y-81435363D01*
X182289727Y-81278320D01*
X182028574Y-81170147D01*
X181751335Y-81115000D01*
X181468665Y-81115000D01*
X181191426Y-81170147D01*
X180930273Y-81278320D01*
X180695241Y-81435363D01*
X180495363Y-81635241D01*
X180338320Y-81870273D01*
X180230147Y-82131426D01*
X180175000Y-82408665D01*
X175428072Y-82408665D01*
X175428072Y-81750000D01*
X175415812Y-81625518D01*
X175379502Y-81505820D01*
X175320537Y-81395506D01*
X175241185Y-81298815D01*
X175144494Y-81219463D01*
X175034180Y-81160498D01*
X174914482Y-81124188D01*
X174790000Y-81111928D01*
X173190000Y-81111928D01*
X173065518Y-81124188D01*
X172945820Y-81160498D01*
X172835506Y-81219463D01*
X172738815Y-81298815D01*
X172659463Y-81395506D01*
X172600498Y-81505820D01*
X172564188Y-81625518D01*
X172551928Y-81750000D01*
X165760000Y-81750000D01*
X165760000Y-64496740D01*
X166155000Y-64496740D01*
X166155000Y-64789260D01*
X166212068Y-65076158D01*
X166324010Y-65346411D01*
X166486525Y-65589632D01*
X166693368Y-65796475D01*
X166936589Y-65958990D01*
X167206842Y-66070932D01*
X167493740Y-66128000D01*
X167786260Y-66128000D01*
X168073158Y-66070932D01*
X168343411Y-65958990D01*
X168586632Y-65796475D01*
X168793475Y-65589632D01*
X168910000Y-65415240D01*
X169026525Y-65589632D01*
X169233368Y-65796475D01*
X169476589Y-65958990D01*
X169746842Y-66070932D01*
X170033740Y-66128000D01*
X170326260Y-66128000D01*
X170516918Y-66090076D01*
X170665001Y-66238159D01*
X170665000Y-69767662D01*
X170598574Y-69740147D01*
X170321335Y-69685000D01*
X170038665Y-69685000D01*
X169761426Y-69740147D01*
X169695000Y-69767662D01*
X169695000Y-67988711D01*
X169713937Y-67969774D01*
X169827205Y-67800256D01*
X169905226Y-67611898D01*
X169945000Y-67411939D01*
X169945000Y-67208061D01*
X169905226Y-67008102D01*
X169827205Y-66819744D01*
X169713937Y-66650226D01*
X169569774Y-66506063D01*
X169400256Y-66392795D01*
X169211898Y-66314774D01*
X169011939Y-66275000D01*
X168808061Y-66275000D01*
X168608102Y-66314774D01*
X168419744Y-66392795D01*
X168250226Y-66506063D01*
X168106063Y-66650226D01*
X167992795Y-66819744D01*
X167914774Y-67008102D01*
X167875000Y-67208061D01*
X167875000Y-67411939D01*
X167914774Y-67611898D01*
X167992795Y-67800256D01*
X168106063Y-67969774D01*
X168125000Y-67988711D01*
X168125001Y-69767662D01*
X168058574Y-69740147D01*
X167781335Y-69685000D01*
X167498665Y-69685000D01*
X167221426Y-69740147D01*
X166960273Y-69848320D01*
X166725241Y-70005363D01*
X166525363Y-70205241D01*
X166368320Y-70440273D01*
X166260147Y-70701426D01*
X166205000Y-70978665D01*
X166205000Y-71261335D01*
X166260147Y-71538574D01*
X166368320Y-71799727D01*
X166525363Y-72034759D01*
X166725241Y-72234637D01*
X166960273Y-72391680D01*
X167221426Y-72499853D01*
X167498665Y-72555000D01*
X167781335Y-72555000D01*
X168058574Y-72499853D01*
X168125000Y-72472338D01*
X168125001Y-72981288D01*
X168106063Y-73000226D01*
X167992795Y-73169744D01*
X167914774Y-73358102D01*
X167875000Y-73558061D01*
X167875000Y-73761939D01*
X167914774Y-73961898D01*
X167992795Y-74150256D01*
X168106063Y-74319774D01*
X168250226Y-74463937D01*
X168419744Y-74577205D01*
X168608102Y-74655226D01*
X168808061Y-74695000D01*
X169011939Y-74695000D01*
X169211898Y-74655226D01*
X169395001Y-74579382D01*
X169395000Y-77538661D01*
X169265241Y-77625363D01*
X169066643Y-77823961D01*
X169065812Y-77815518D01*
X169029502Y-77695820D01*
X168970537Y-77585506D01*
X168891185Y-77488815D01*
X168794494Y-77409463D01*
X168684180Y-77350498D01*
X168564482Y-77314188D01*
X168440000Y-77301928D01*
X166840000Y-77301928D01*
X166715518Y-77314188D01*
X166595820Y-77350498D01*
X166485506Y-77409463D01*
X166388815Y-77488815D01*
X166309463Y-77585506D01*
X166250498Y-77695820D01*
X166214188Y-77815518D01*
X166201928Y-77940000D01*
X166201928Y-79540000D01*
X166214188Y-79664482D01*
X166250498Y-79784180D01*
X166309463Y-79894494D01*
X166388815Y-79991185D01*
X166485506Y-80070537D01*
X166595820Y-80129502D01*
X166715518Y-80165812D01*
X166840000Y-80178072D01*
X168440000Y-80178072D01*
X168564482Y-80165812D01*
X168684180Y-80129502D01*
X168794494Y-80070537D01*
X168891185Y-79991185D01*
X168970537Y-79894494D01*
X169029502Y-79784180D01*
X169065812Y-79664482D01*
X169066643Y-79656039D01*
X169265241Y-79854637D01*
X169500273Y-80011680D01*
X169761426Y-80119853D01*
X170038665Y-80175000D01*
X170321335Y-80175000D01*
X170598574Y-80119853D01*
X170859727Y-80011680D01*
X171094759Y-79854637D01*
X171294637Y-79654759D01*
X171450000Y-79422241D01*
X171605363Y-79654759D01*
X171805241Y-79854637D01*
X172040273Y-80011680D01*
X172301426Y-80119853D01*
X172578665Y-80175000D01*
X172861335Y-80175000D01*
X173138574Y-80119853D01*
X173399727Y-80011680D01*
X173634759Y-79854637D01*
X173834637Y-79654759D01*
X173990000Y-79422241D01*
X174145363Y-79654759D01*
X174345241Y-79854637D01*
X174580273Y-80011680D01*
X174841426Y-80119853D01*
X175118665Y-80175000D01*
X175401335Y-80175000D01*
X175678574Y-80119853D01*
X175939727Y-80011680D01*
X176174759Y-79854637D01*
X176374637Y-79654759D01*
X176530000Y-79422241D01*
X176685363Y-79654759D01*
X176885241Y-79854637D01*
X177120273Y-80011680D01*
X177381426Y-80119853D01*
X177658665Y-80175000D01*
X177941335Y-80175000D01*
X178218574Y-80119853D01*
X178479727Y-80011680D01*
X178714759Y-79854637D01*
X178914637Y-79654759D01*
X179070000Y-79422241D01*
X179225363Y-79654759D01*
X179425241Y-79854637D01*
X179660273Y-80011680D01*
X179921426Y-80119853D01*
X180198665Y-80175000D01*
X180481335Y-80175000D01*
X180758574Y-80119853D01*
X181019727Y-80011680D01*
X181254759Y-79854637D01*
X181454637Y-79654759D01*
X181611680Y-79419727D01*
X181616067Y-79409135D01*
X181727615Y-79595131D01*
X181916586Y-79803519D01*
X182142580Y-79971037D01*
X182396913Y-80091246D01*
X182530961Y-80131904D01*
X182753000Y-80009915D01*
X182753000Y-78867000D01*
X183007000Y-78867000D01*
X183007000Y-80009915D01*
X183229039Y-80131904D01*
X183363087Y-80091246D01*
X183617420Y-79971037D01*
X183843414Y-79803519D01*
X184032385Y-79595131D01*
X184177070Y-79353881D01*
X184271909Y-79089040D01*
X184150624Y-78867000D01*
X183007000Y-78867000D01*
X182753000Y-78867000D01*
X182733000Y-78867000D01*
X182733000Y-78613000D01*
X182753000Y-78613000D01*
X182753000Y-77470085D01*
X183007000Y-77470085D01*
X183007000Y-78613000D01*
X184150624Y-78613000D01*
X184271909Y-78390960D01*
X184177070Y-78126119D01*
X184032385Y-77884869D01*
X183843414Y-77676481D01*
X183617420Y-77508963D01*
X183363087Y-77388754D01*
X183229039Y-77348096D01*
X183007000Y-77470085D01*
X182753000Y-77470085D01*
X182530961Y-77348096D01*
X182396913Y-77388754D01*
X182142580Y-77508963D01*
X181916586Y-77676481D01*
X181727615Y-77884869D01*
X181616067Y-78070865D01*
X181611680Y-78060273D01*
X181454637Y-77825241D01*
X181254759Y-77625363D01*
X181019727Y-77468320D01*
X180758574Y-77360147D01*
X180481335Y-77305000D01*
X180198665Y-77305000D01*
X179921426Y-77360147D01*
X179660273Y-77468320D01*
X179425241Y-77625363D01*
X179225363Y-77825241D01*
X179070000Y-78057759D01*
X178914637Y-77825241D01*
X178714759Y-77625363D01*
X178585000Y-77538661D01*
X178585000Y-75400558D01*
X178588797Y-75362002D01*
X178585000Y-75323442D01*
X178585000Y-75323441D01*
X178581020Y-75283028D01*
X178573642Y-75208115D01*
X178528754Y-75060142D01*
X178455862Y-74923769D01*
X178357764Y-74804238D01*
X178327811Y-74779656D01*
X175939792Y-72391637D01*
X176174759Y-72234637D01*
X176374637Y-72034759D01*
X176530000Y-71802241D01*
X176685363Y-72034759D01*
X176885241Y-72234637D01*
X177120273Y-72391680D01*
X177381426Y-72499853D01*
X177658665Y-72555000D01*
X177941335Y-72555000D01*
X178218574Y-72499853D01*
X178479727Y-72391680D01*
X178714759Y-72234637D01*
X178914637Y-72034759D01*
X179070000Y-71802241D01*
X179225363Y-72034759D01*
X179425241Y-72234637D01*
X179660273Y-72391680D01*
X179921426Y-72499853D01*
X180198665Y-72555000D01*
X180481335Y-72555000D01*
X180758574Y-72499853D01*
X181019727Y-72391680D01*
X181254759Y-72234637D01*
X181454637Y-72034759D01*
X181610000Y-71802241D01*
X181765363Y-72034759D01*
X181965241Y-72234637D01*
X182200273Y-72391680D01*
X182461426Y-72499853D01*
X182738665Y-72555000D01*
X183021335Y-72555000D01*
X183298574Y-72499853D01*
X183559727Y-72391680D01*
X183794759Y-72234637D01*
X183994637Y-72034759D01*
X184151680Y-71799727D01*
X184259853Y-71538574D01*
X184315000Y-71261335D01*
X184315000Y-70978665D01*
X184259853Y-70701426D01*
X184151680Y-70440273D01*
X183994637Y-70205241D01*
X183794759Y-70005363D01*
X183559727Y-69848320D01*
X183298574Y-69740147D01*
X183021335Y-69685000D01*
X182738665Y-69685000D01*
X182461426Y-69740147D01*
X182200273Y-69848320D01*
X181965241Y-70005363D01*
X181765363Y-70205241D01*
X181610000Y-70437759D01*
X181454637Y-70205241D01*
X181254759Y-70005363D01*
X181019727Y-69848320D01*
X180758574Y-69740147D01*
X180481335Y-69685000D01*
X180198665Y-69685000D01*
X179921426Y-69740147D01*
X179660273Y-69848320D01*
X179425241Y-70005363D01*
X179225363Y-70205241D01*
X179070000Y-70437759D01*
X178914637Y-70205241D01*
X178714759Y-70005363D01*
X178479727Y-69848320D01*
X178218574Y-69740147D01*
X177941335Y-69685000D01*
X177658665Y-69685000D01*
X177381426Y-69740147D01*
X177120273Y-69848320D01*
X176885241Y-70005363D01*
X176685363Y-70205241D01*
X176530000Y-70437759D01*
X176374637Y-70205241D01*
X176174759Y-70005363D01*
X175939727Y-69848320D01*
X175678574Y-69740147D01*
X175401335Y-69685000D01*
X175118665Y-69685000D01*
X174841426Y-69740147D01*
X174775000Y-69767662D01*
X174775000Y-66045618D01*
X174903110Y-66084476D01*
X175133000Y-65963155D01*
X175133000Y-64770000D01*
X175113000Y-64770000D01*
X175113000Y-64516000D01*
X175133000Y-64516000D01*
X175133000Y-63322845D01*
X175387000Y-63322845D01*
X175387000Y-64516000D01*
X175407000Y-64516000D01*
X175407000Y-64770000D01*
X175387000Y-64770000D01*
X175387000Y-65963155D01*
X175616890Y-66084476D01*
X175764099Y-66039825D01*
X176026920Y-65914641D01*
X176260269Y-65740588D01*
X176336034Y-65656534D01*
X176360498Y-65737180D01*
X176419463Y-65847494D01*
X176498815Y-65944185D01*
X176595506Y-66023537D01*
X176705820Y-66082502D01*
X176825518Y-66118812D01*
X176950000Y-66131072D01*
X178650000Y-66131072D01*
X178774482Y-66118812D01*
X178894180Y-66082502D01*
X179004494Y-66023537D01*
X179101185Y-65944185D01*
X179180537Y-65847494D01*
X179239502Y-65737180D01*
X179275812Y-65617482D01*
X179288072Y-65493000D01*
X179288072Y-63793000D01*
X179275812Y-63668518D01*
X179239502Y-63548820D01*
X179180537Y-63438506D01*
X179101185Y-63341815D01*
X179004494Y-63262463D01*
X178894180Y-63203498D01*
X178774482Y-63167188D01*
X178650000Y-63154928D01*
X176950000Y-63154928D01*
X176825518Y-63167188D01*
X176705820Y-63203498D01*
X176595506Y-63262463D01*
X176498815Y-63341815D01*
X176419463Y-63438506D01*
X176360498Y-63548820D01*
X176336034Y-63629466D01*
X176260269Y-63545412D01*
X176026920Y-63371359D01*
X175764099Y-63246175D01*
X175616890Y-63201524D01*
X175387000Y-63322845D01*
X175133000Y-63322845D01*
X174903110Y-63201524D01*
X174755901Y-63246175D01*
X174493080Y-63371359D01*
X174259731Y-63545412D01*
X174064822Y-63761645D01*
X173995195Y-63878534D01*
X173873475Y-63696368D01*
X173666632Y-63489525D01*
X173423411Y-63327010D01*
X173153158Y-63215068D01*
X172866260Y-63158000D01*
X172573740Y-63158000D01*
X172286842Y-63215068D01*
X172016589Y-63327010D01*
X171773368Y-63489525D01*
X171566525Y-63696368D01*
X171450000Y-63870760D01*
X171333475Y-63696368D01*
X171126632Y-63489525D01*
X170883411Y-63327010D01*
X170613158Y-63215068D01*
X170326260Y-63158000D01*
X170033740Y-63158000D01*
X169746842Y-63215068D01*
X169476589Y-63327010D01*
X169233368Y-63489525D01*
X169026525Y-63696368D01*
X168910000Y-63870760D01*
X168793475Y-63696368D01*
X168586632Y-63489525D01*
X168343411Y-63327010D01*
X168073158Y-63215068D01*
X167786260Y-63158000D01*
X167493740Y-63158000D01*
X167206842Y-63215068D01*
X166936589Y-63327010D01*
X166693368Y-63489525D01*
X166486525Y-63696368D01*
X166324010Y-63939589D01*
X166212068Y-64209842D01*
X166155000Y-64496740D01*
X165760000Y-64496740D01*
X165760000Y-54389872D01*
X166675000Y-54389872D01*
X166675000Y-54830128D01*
X166760890Y-55261925D01*
X166929369Y-55668669D01*
X167173962Y-56034729D01*
X167485271Y-56346038D01*
X167851331Y-56590631D01*
X168258075Y-56759110D01*
X168689872Y-56845000D01*
X169130128Y-56845000D01*
X169561925Y-56759110D01*
X169968669Y-56590631D01*
X170334729Y-56346038D01*
X170646038Y-56034729D01*
X170890631Y-55668669D01*
X171059110Y-55261925D01*
X171145000Y-54830128D01*
X171145000Y-54389872D01*
X171059110Y-53958075D01*
X170890631Y-53551331D01*
X170646038Y-53185271D01*
X170334729Y-52873962D01*
X169968669Y-52629369D01*
X169561925Y-52460890D01*
X169130128Y-52375000D01*
X168689872Y-52375000D01*
X168258075Y-52460890D01*
X167851331Y-52629369D01*
X167485271Y-52873962D01*
X167173962Y-53185271D01*
X166929369Y-53551331D01*
X166760890Y-53958075D01*
X166675000Y-54389872D01*
X165760000Y-54389872D01*
X165760000Y-51460000D01*
X189738000Y-51460000D01*
X189738000Y-112370000D01*
G37*
X189738000Y-112370000D02*
X165760000Y-112370000D01*
X165760000Y-108999872D01*
X166675000Y-108999872D01*
X166675000Y-109440128D01*
X166760890Y-109871925D01*
X166929369Y-110278669D01*
X167173962Y-110644729D01*
X167485271Y-110956038D01*
X167851331Y-111200631D01*
X168258075Y-111369110D01*
X168689872Y-111455000D01*
X169130128Y-111455000D01*
X169561925Y-111369110D01*
X169968669Y-111200631D01*
X170334729Y-110956038D01*
X170646038Y-110644729D01*
X170890631Y-110278669D01*
X171059110Y-109871925D01*
X171145000Y-109440128D01*
X171145000Y-108999872D01*
X171059110Y-108568075D01*
X170890631Y-108161331D01*
X170646038Y-107795271D01*
X170334729Y-107483962D01*
X169968669Y-107239369D01*
X169561925Y-107070890D01*
X169130128Y-106985000D01*
X168689872Y-106985000D01*
X168258075Y-107070890D01*
X167851331Y-107239369D01*
X167485271Y-107483962D01*
X167173962Y-107795271D01*
X166929369Y-108161331D01*
X166760890Y-108568075D01*
X166675000Y-108999872D01*
X165760000Y-108999872D01*
X165760000Y-96378665D01*
X167475000Y-96378665D01*
X167475000Y-96661335D01*
X167530147Y-96938574D01*
X167638320Y-97199727D01*
X167795363Y-97434759D01*
X167995241Y-97634637D01*
X168230273Y-97791680D01*
X168491426Y-97899853D01*
X168768665Y-97955000D01*
X169051335Y-97955000D01*
X169328574Y-97899853D01*
X169589727Y-97791680D01*
X169824759Y-97634637D01*
X170024637Y-97434759D01*
X170181680Y-97199727D01*
X170289853Y-96938574D01*
X170345000Y-96661335D01*
X170345000Y-96378665D01*
X173825000Y-96378665D01*
X173825000Y-96661335D01*
X173880147Y-96938574D01*
X173988320Y-97199727D01*
X174145363Y-97434759D01*
X174345241Y-97634637D01*
X174580273Y-97791680D01*
X174841426Y-97899853D01*
X175118665Y-97955000D01*
X175401335Y-97955000D01*
X175678574Y-97899853D01*
X175939727Y-97791680D01*
X176174759Y-97634637D01*
X176374637Y-97434759D01*
X176531680Y-97199727D01*
X176639853Y-96938574D01*
X176695000Y-96661335D01*
X176695000Y-96378665D01*
X180175000Y-96378665D01*
X180175000Y-96661335D01*
X180230147Y-96938574D01*
X180338320Y-97199727D01*
X180495363Y-97434759D01*
X180695241Y-97634637D01*
X180930273Y-97791680D01*
X181191426Y-97899853D01*
X181468665Y-97955000D01*
X181751335Y-97955000D01*
X182028574Y-97899853D01*
X182289727Y-97791680D01*
X182524759Y-97634637D01*
X182724637Y-97434759D01*
X182881680Y-97199727D01*
X182989853Y-96938574D01*
X183045000Y-96661335D01*
X183045000Y-96378665D01*
X182989853Y-96101426D01*
X182881680Y-95840273D01*
X182724637Y-95605241D01*
X182524759Y-95405363D01*
X182289727Y-95248320D01*
X182028574Y-95140147D01*
X181751335Y-95085000D01*
X181468665Y-95085000D01*
X181191426Y-95140147D01*
X180930273Y-95248320D01*
X180695241Y-95405363D01*
X180495363Y-95605241D01*
X180338320Y-95840273D01*
X180230147Y-96101426D01*
X180175000Y-96378665D01*
X176695000Y-96378665D01*
X176639853Y-96101426D01*
X176531680Y-95840273D01*
X176374637Y-95605241D01*
X176174759Y-95405363D01*
X175939727Y-95248320D01*
X175678574Y-95140147D01*
X175401335Y-95085000D01*
X175118665Y-95085000D01*
X174841426Y-95140147D01*
X174580273Y-95248320D01*
X174345241Y-95405363D01*
X174145363Y-95605241D01*
X173988320Y-95840273D01*
X173880147Y-96101426D01*
X173825000Y-96378665D01*
X170345000Y-96378665D01*
X170289853Y-96101426D01*
X170181680Y-95840273D01*
X170024637Y-95605241D01*
X169824759Y-95405363D01*
X169589727Y-95248320D01*
X169328574Y-95140147D01*
X169051335Y-95085000D01*
X168768665Y-95085000D01*
X168491426Y-95140147D01*
X168230273Y-95248320D01*
X167995241Y-95405363D01*
X167795363Y-95605241D01*
X167638320Y-95840273D01*
X167530147Y-96101426D01*
X167475000Y-96378665D01*
X165760000Y-96378665D01*
X165760000Y-91298665D01*
X186525000Y-91298665D01*
X186525000Y-91581335D01*
X186580147Y-91858574D01*
X186688320Y-92119727D01*
X186845363Y-92354759D01*
X187045241Y-92554637D01*
X187280273Y-92711680D01*
X187541426Y-92819853D01*
X187818665Y-92875000D01*
X188101335Y-92875000D01*
X188378574Y-92819853D01*
X188639727Y-92711680D01*
X188874759Y-92554637D01*
X189074637Y-92354759D01*
X189231680Y-92119727D01*
X189339853Y-91858574D01*
X189395000Y-91581335D01*
X189395000Y-91298665D01*
X189339853Y-91021426D01*
X189231680Y-90760273D01*
X189074637Y-90525241D01*
X188874759Y-90325363D01*
X188639727Y-90168320D01*
X188378574Y-90060147D01*
X188101335Y-90005000D01*
X187818665Y-90005000D01*
X187541426Y-90060147D01*
X187280273Y-90168320D01*
X187045241Y-90325363D01*
X186845363Y-90525241D01*
X186688320Y-90760273D01*
X186580147Y-91021426D01*
X186525000Y-91298665D01*
X165760000Y-91298665D01*
X165760000Y-86218665D01*
X167475000Y-86218665D01*
X167475000Y-86501335D01*
X167530147Y-86778574D01*
X167638320Y-87039727D01*
X167795363Y-87274759D01*
X167995241Y-87474637D01*
X168230273Y-87631680D01*
X168491426Y-87739853D01*
X168768665Y-87795000D01*
X169051335Y-87795000D01*
X169328574Y-87739853D01*
X169589727Y-87631680D01*
X169824759Y-87474637D01*
X170024637Y-87274759D01*
X170181680Y-87039727D01*
X170289853Y-86778574D01*
X170345000Y-86501335D01*
X170345000Y-86218665D01*
X173825000Y-86218665D01*
X173825000Y-86501335D01*
X173880147Y-86778574D01*
X173988320Y-87039727D01*
X174145363Y-87274759D01*
X174345241Y-87474637D01*
X174580273Y-87631680D01*
X174841426Y-87739853D01*
X175118665Y-87795000D01*
X175401335Y-87795000D01*
X175678574Y-87739853D01*
X175939727Y-87631680D01*
X176174759Y-87474637D01*
X176374637Y-87274759D01*
X176531680Y-87039727D01*
X176639853Y-86778574D01*
X176695000Y-86501335D01*
X176695000Y-86218665D01*
X180175000Y-86218665D01*
X180175000Y-86501335D01*
X180230147Y-86778574D01*
X180338320Y-87039727D01*
X180495363Y-87274759D01*
X180695241Y-87474637D01*
X180930273Y-87631680D01*
X181191426Y-87739853D01*
X181468665Y-87795000D01*
X181751335Y-87795000D01*
X182028574Y-87739853D01*
X182289727Y-87631680D01*
X182524759Y-87474637D01*
X182566694Y-87432702D01*
X187146903Y-87432702D01*
X187218486Y-87676671D01*
X187473996Y-87797571D01*
X187748184Y-87866300D01*
X188030512Y-87880217D01*
X188310130Y-87838787D01*
X188576292Y-87743603D01*
X188701514Y-87676671D01*
X188773097Y-87432702D01*
X187960000Y-86619605D01*
X187146903Y-87432702D01*
X182566694Y-87432702D01*
X182724637Y-87274759D01*
X182881680Y-87039727D01*
X182989853Y-86778574D01*
X183043174Y-86510512D01*
X186519783Y-86510512D01*
X186561213Y-86790130D01*
X186656397Y-87056292D01*
X186723329Y-87181514D01*
X186967298Y-87253097D01*
X187780395Y-86440000D01*
X188139605Y-86440000D01*
X188952702Y-87253097D01*
X189196671Y-87181514D01*
X189317571Y-86926004D01*
X189386300Y-86651816D01*
X189400217Y-86369488D01*
X189358787Y-86089870D01*
X189263603Y-85823708D01*
X189196671Y-85698486D01*
X188952702Y-85626903D01*
X188139605Y-86440000D01*
X187780395Y-86440000D01*
X186967298Y-85626903D01*
X186723329Y-85698486D01*
X186602429Y-85953996D01*
X186533700Y-86228184D01*
X186519783Y-86510512D01*
X183043174Y-86510512D01*
X183045000Y-86501335D01*
X183045000Y-86218665D01*
X182989853Y-85941426D01*
X182881680Y-85680273D01*
X182726012Y-85447298D01*
X187146903Y-85447298D01*
X187960000Y-86260395D01*
X188773097Y-85447298D01*
X188701514Y-85203329D01*
X188446004Y-85082429D01*
X188171816Y-85013700D01*
X187889488Y-84999783D01*
X187609870Y-85041213D01*
X187343708Y-85136397D01*
X187218486Y-85203329D01*
X187146903Y-85447298D01*
X182726012Y-85447298D01*
X182724637Y-85445241D01*
X182524759Y-85245363D01*
X182289727Y-85088320D01*
X182028574Y-84980147D01*
X181751335Y-84925000D01*
X181468665Y-84925000D01*
X181191426Y-84980147D01*
X180930273Y-85088320D01*
X180695241Y-85245363D01*
X180495363Y-85445241D01*
X180338320Y-85680273D01*
X180230147Y-85941426D01*
X180175000Y-86218665D01*
X176695000Y-86218665D01*
X176639853Y-85941426D01*
X176531680Y-85680273D01*
X176374637Y-85445241D01*
X176174759Y-85245363D01*
X175939727Y-85088320D01*
X175678574Y-84980147D01*
X175401335Y-84925000D01*
X175118665Y-84925000D01*
X174841426Y-84980147D01*
X174580273Y-85088320D01*
X174345241Y-85245363D01*
X174145363Y-85445241D01*
X173988320Y-85680273D01*
X173880147Y-85941426D01*
X173825000Y-86218665D01*
X170345000Y-86218665D01*
X170289853Y-85941426D01*
X170181680Y-85680273D01*
X170024637Y-85445241D01*
X169824759Y-85245363D01*
X169589727Y-85088320D01*
X169328574Y-84980147D01*
X169051335Y-84925000D01*
X168768665Y-84925000D01*
X168491426Y-84980147D01*
X168230273Y-85088320D01*
X167995241Y-85245363D01*
X167795363Y-85445241D01*
X167638320Y-85680273D01*
X167530147Y-85941426D01*
X167475000Y-86218665D01*
X165760000Y-86218665D01*
X165760000Y-81750000D01*
X172551928Y-81750000D01*
X172551928Y-83350000D01*
X172564188Y-83474482D01*
X172600498Y-83594180D01*
X172659463Y-83704494D01*
X172738815Y-83801185D01*
X172835506Y-83880537D01*
X172945820Y-83939502D01*
X173065518Y-83975812D01*
X173190000Y-83988072D01*
X174790000Y-83988072D01*
X174914482Y-83975812D01*
X175034180Y-83939502D01*
X175144494Y-83880537D01*
X175241185Y-83801185D01*
X175320537Y-83704494D01*
X175379502Y-83594180D01*
X175415812Y-83474482D01*
X175428072Y-83350000D01*
X175428072Y-82408665D01*
X180175000Y-82408665D01*
X180175000Y-82691335D01*
X180230147Y-82968574D01*
X180338320Y-83229727D01*
X180495363Y-83464759D01*
X180695241Y-83664637D01*
X180930273Y-83821680D01*
X181191426Y-83929853D01*
X181468665Y-83985000D01*
X181751335Y-83985000D01*
X182028574Y-83929853D01*
X182289727Y-83821680D01*
X182524759Y-83664637D01*
X182724637Y-83464759D01*
X182881680Y-83229727D01*
X182989853Y-82968574D01*
X183045000Y-82691335D01*
X183045000Y-82408665D01*
X182989853Y-82131426D01*
X182881680Y-81870273D01*
X182724637Y-81635241D01*
X182524759Y-81435363D01*
X182289727Y-81278320D01*
X182028574Y-81170147D01*
X181751335Y-81115000D01*
X181468665Y-81115000D01*
X181191426Y-81170147D01*
X180930273Y-81278320D01*
X180695241Y-81435363D01*
X180495363Y-81635241D01*
X180338320Y-81870273D01*
X180230147Y-82131426D01*
X180175000Y-82408665D01*
X175428072Y-82408665D01*
X175428072Y-81750000D01*
X175415812Y-81625518D01*
X175379502Y-81505820D01*
X175320537Y-81395506D01*
X175241185Y-81298815D01*
X175144494Y-81219463D01*
X175034180Y-81160498D01*
X174914482Y-81124188D01*
X174790000Y-81111928D01*
X173190000Y-81111928D01*
X173065518Y-81124188D01*
X172945820Y-81160498D01*
X172835506Y-81219463D01*
X172738815Y-81298815D01*
X172659463Y-81395506D01*
X172600498Y-81505820D01*
X172564188Y-81625518D01*
X172551928Y-81750000D01*
X165760000Y-81750000D01*
X165760000Y-64496740D01*
X166155000Y-64496740D01*
X166155000Y-64789260D01*
X166212068Y-65076158D01*
X166324010Y-65346411D01*
X166486525Y-65589632D01*
X166693368Y-65796475D01*
X166936589Y-65958990D01*
X167206842Y-66070932D01*
X167493740Y-66128000D01*
X167786260Y-66128000D01*
X168073158Y-66070932D01*
X168343411Y-65958990D01*
X168586632Y-65796475D01*
X168793475Y-65589632D01*
X168910000Y-65415240D01*
X169026525Y-65589632D01*
X169233368Y-65796475D01*
X169476589Y-65958990D01*
X169746842Y-66070932D01*
X170033740Y-66128000D01*
X170326260Y-66128000D01*
X170516918Y-66090076D01*
X170665001Y-66238159D01*
X170665000Y-69767662D01*
X170598574Y-69740147D01*
X170321335Y-69685000D01*
X170038665Y-69685000D01*
X169761426Y-69740147D01*
X169695000Y-69767662D01*
X169695000Y-67988711D01*
X169713937Y-67969774D01*
X169827205Y-67800256D01*
X169905226Y-67611898D01*
X169945000Y-67411939D01*
X169945000Y-67208061D01*
X169905226Y-67008102D01*
X169827205Y-66819744D01*
X169713937Y-66650226D01*
X169569774Y-66506063D01*
X169400256Y-66392795D01*
X169211898Y-66314774D01*
X169011939Y-66275000D01*
X168808061Y-66275000D01*
X168608102Y-66314774D01*
X168419744Y-66392795D01*
X168250226Y-66506063D01*
X168106063Y-66650226D01*
X167992795Y-66819744D01*
X167914774Y-67008102D01*
X167875000Y-67208061D01*
X167875000Y-67411939D01*
X167914774Y-67611898D01*
X167992795Y-67800256D01*
X168106063Y-67969774D01*
X168125000Y-67988711D01*
X168125001Y-69767662D01*
X168058574Y-69740147D01*
X167781335Y-69685000D01*
X167498665Y-69685000D01*
X167221426Y-69740147D01*
X166960273Y-69848320D01*
X166725241Y-70005363D01*
X166525363Y-70205241D01*
X166368320Y-70440273D01*
X166260147Y-70701426D01*
X166205000Y-70978665D01*
X166205000Y-71261335D01*
X166260147Y-71538574D01*
X166368320Y-71799727D01*
X166525363Y-72034759D01*
X166725241Y-72234637D01*
X166960273Y-72391680D01*
X167221426Y-72499853D01*
X167498665Y-72555000D01*
X167781335Y-72555000D01*
X168058574Y-72499853D01*
X168125000Y-72472338D01*
X168125001Y-72981288D01*
X168106063Y-73000226D01*
X167992795Y-73169744D01*
X167914774Y-73358102D01*
X167875000Y-73558061D01*
X167875000Y-73761939D01*
X167914774Y-73961898D01*
X167992795Y-74150256D01*
X168106063Y-74319774D01*
X168250226Y-74463937D01*
X168419744Y-74577205D01*
X168608102Y-74655226D01*
X168808061Y-74695000D01*
X169011939Y-74695000D01*
X169211898Y-74655226D01*
X169395001Y-74579382D01*
X169395000Y-77538661D01*
X169265241Y-77625363D01*
X169066643Y-77823961D01*
X169065812Y-77815518D01*
X169029502Y-77695820D01*
X168970537Y-77585506D01*
X168891185Y-77488815D01*
X168794494Y-77409463D01*
X168684180Y-77350498D01*
X168564482Y-77314188D01*
X168440000Y-77301928D01*
X166840000Y-77301928D01*
X166715518Y-77314188D01*
X166595820Y-77350498D01*
X166485506Y-77409463D01*
X166388815Y-77488815D01*
X166309463Y-77585506D01*
X166250498Y-77695820D01*
X166214188Y-77815518D01*
X166201928Y-77940000D01*
X166201928Y-79540000D01*
X166214188Y-79664482D01*
X166250498Y-79784180D01*
X166309463Y-79894494D01*
X166388815Y-79991185D01*
X166485506Y-80070537D01*
X166595820Y-80129502D01*
X166715518Y-80165812D01*
X166840000Y-80178072D01*
X168440000Y-80178072D01*
X168564482Y-80165812D01*
X168684180Y-80129502D01*
X168794494Y-80070537D01*
X168891185Y-79991185D01*
X168970537Y-79894494D01*
X169029502Y-79784180D01*
X169065812Y-79664482D01*
X169066643Y-79656039D01*
X169265241Y-79854637D01*
X169500273Y-80011680D01*
X169761426Y-80119853D01*
X170038665Y-80175000D01*
X170321335Y-80175000D01*
X170598574Y-80119853D01*
X170859727Y-80011680D01*
X171094759Y-79854637D01*
X171294637Y-79654759D01*
X171450000Y-79422241D01*
X171605363Y-79654759D01*
X171805241Y-79854637D01*
X172040273Y-80011680D01*
X172301426Y-80119853D01*
X172578665Y-80175000D01*
X172861335Y-80175000D01*
X173138574Y-80119853D01*
X173399727Y-80011680D01*
X173634759Y-79854637D01*
X173834637Y-79654759D01*
X173990000Y-79422241D01*
X174145363Y-79654759D01*
X174345241Y-79854637D01*
X174580273Y-80011680D01*
X174841426Y-80119853D01*
X175118665Y-80175000D01*
X175401335Y-80175000D01*
X175678574Y-80119853D01*
X175939727Y-80011680D01*
X176174759Y-79854637D01*
X176374637Y-79654759D01*
X176530000Y-79422241D01*
X176685363Y-79654759D01*
X176885241Y-79854637D01*
X177120273Y-80011680D01*
X177381426Y-80119853D01*
X177658665Y-80175000D01*
X177941335Y-80175000D01*
X178218574Y-80119853D01*
X178479727Y-80011680D01*
X178714759Y-79854637D01*
X178914637Y-79654759D01*
X179070000Y-79422241D01*
X179225363Y-79654759D01*
X179425241Y-79854637D01*
X179660273Y-80011680D01*
X179921426Y-80119853D01*
X180198665Y-80175000D01*
X180481335Y-80175000D01*
X180758574Y-80119853D01*
X181019727Y-80011680D01*
X181254759Y-79854637D01*
X181454637Y-79654759D01*
X181611680Y-79419727D01*
X181616067Y-79409135D01*
X181727615Y-79595131D01*
X181916586Y-79803519D01*
X182142580Y-79971037D01*
X182396913Y-80091246D01*
X182530961Y-80131904D01*
X182753000Y-80009915D01*
X182753000Y-78867000D01*
X183007000Y-78867000D01*
X183007000Y-80009915D01*
X183229039Y-80131904D01*
X183363087Y-80091246D01*
X183617420Y-79971037D01*
X183843414Y-79803519D01*
X184032385Y-79595131D01*
X184177070Y-79353881D01*
X184271909Y-79089040D01*
X184150624Y-78867000D01*
X183007000Y-78867000D01*
X182753000Y-78867000D01*
X182733000Y-78867000D01*
X182733000Y-78613000D01*
X182753000Y-78613000D01*
X182753000Y-77470085D01*
X183007000Y-77470085D01*
X183007000Y-78613000D01*
X184150624Y-78613000D01*
X184271909Y-78390960D01*
X184177070Y-78126119D01*
X184032385Y-77884869D01*
X183843414Y-77676481D01*
X183617420Y-77508963D01*
X183363087Y-77388754D01*
X183229039Y-77348096D01*
X183007000Y-77470085D01*
X182753000Y-77470085D01*
X182530961Y-77348096D01*
X182396913Y-77388754D01*
X182142580Y-77508963D01*
X181916586Y-77676481D01*
X181727615Y-77884869D01*
X181616067Y-78070865D01*
X181611680Y-78060273D01*
X181454637Y-77825241D01*
X181254759Y-77625363D01*
X181019727Y-77468320D01*
X180758574Y-77360147D01*
X180481335Y-77305000D01*
X180198665Y-77305000D01*
X179921426Y-77360147D01*
X179660273Y-77468320D01*
X179425241Y-77625363D01*
X179225363Y-77825241D01*
X179070000Y-78057759D01*
X178914637Y-77825241D01*
X178714759Y-77625363D01*
X178585000Y-77538661D01*
X178585000Y-75400558D01*
X178588797Y-75362002D01*
X178585000Y-75323442D01*
X178585000Y-75323441D01*
X178581020Y-75283028D01*
X178573642Y-75208115D01*
X178528754Y-75060142D01*
X178455862Y-74923769D01*
X178357764Y-74804238D01*
X178327811Y-74779656D01*
X175939792Y-72391637D01*
X176174759Y-72234637D01*
X176374637Y-72034759D01*
X176530000Y-71802241D01*
X176685363Y-72034759D01*
X176885241Y-72234637D01*
X177120273Y-72391680D01*
X177381426Y-72499853D01*
X177658665Y-72555000D01*
X177941335Y-72555000D01*
X178218574Y-72499853D01*
X178479727Y-72391680D01*
X178714759Y-72234637D01*
X178914637Y-72034759D01*
X179070000Y-71802241D01*
X179225363Y-72034759D01*
X179425241Y-72234637D01*
X179660273Y-72391680D01*
X179921426Y-72499853D01*
X180198665Y-72555000D01*
X180481335Y-72555000D01*
X180758574Y-72499853D01*
X181019727Y-72391680D01*
X181254759Y-72234637D01*
X181454637Y-72034759D01*
X181610000Y-71802241D01*
X181765363Y-72034759D01*
X181965241Y-72234637D01*
X182200273Y-72391680D01*
X182461426Y-72499853D01*
X182738665Y-72555000D01*
X183021335Y-72555000D01*
X183298574Y-72499853D01*
X183559727Y-72391680D01*
X183794759Y-72234637D01*
X183994637Y-72034759D01*
X184151680Y-71799727D01*
X184259853Y-71538574D01*
X184315000Y-71261335D01*
X184315000Y-70978665D01*
X184259853Y-70701426D01*
X184151680Y-70440273D01*
X183994637Y-70205241D01*
X183794759Y-70005363D01*
X183559727Y-69848320D01*
X183298574Y-69740147D01*
X183021335Y-69685000D01*
X182738665Y-69685000D01*
X182461426Y-69740147D01*
X182200273Y-69848320D01*
X181965241Y-70005363D01*
X181765363Y-70205241D01*
X181610000Y-70437759D01*
X181454637Y-70205241D01*
X181254759Y-70005363D01*
X181019727Y-69848320D01*
X180758574Y-69740147D01*
X180481335Y-69685000D01*
X180198665Y-69685000D01*
X179921426Y-69740147D01*
X179660273Y-69848320D01*
X179425241Y-70005363D01*
X179225363Y-70205241D01*
X179070000Y-70437759D01*
X178914637Y-70205241D01*
X178714759Y-70005363D01*
X178479727Y-69848320D01*
X178218574Y-69740147D01*
X177941335Y-69685000D01*
X177658665Y-69685000D01*
X177381426Y-69740147D01*
X177120273Y-69848320D01*
X176885241Y-70005363D01*
X176685363Y-70205241D01*
X176530000Y-70437759D01*
X176374637Y-70205241D01*
X176174759Y-70005363D01*
X175939727Y-69848320D01*
X175678574Y-69740147D01*
X175401335Y-69685000D01*
X175118665Y-69685000D01*
X174841426Y-69740147D01*
X174775000Y-69767662D01*
X174775000Y-66045618D01*
X174903110Y-66084476D01*
X175133000Y-65963155D01*
X175133000Y-64770000D01*
X175113000Y-64770000D01*
X175113000Y-64516000D01*
X175133000Y-64516000D01*
X175133000Y-63322845D01*
X175387000Y-63322845D01*
X175387000Y-64516000D01*
X175407000Y-64516000D01*
X175407000Y-64770000D01*
X175387000Y-64770000D01*
X175387000Y-65963155D01*
X175616890Y-66084476D01*
X175764099Y-66039825D01*
X176026920Y-65914641D01*
X176260269Y-65740588D01*
X176336034Y-65656534D01*
X176360498Y-65737180D01*
X176419463Y-65847494D01*
X176498815Y-65944185D01*
X176595506Y-66023537D01*
X176705820Y-66082502D01*
X176825518Y-66118812D01*
X176950000Y-66131072D01*
X178650000Y-66131072D01*
X178774482Y-66118812D01*
X178894180Y-66082502D01*
X179004494Y-66023537D01*
X179101185Y-65944185D01*
X179180537Y-65847494D01*
X179239502Y-65737180D01*
X179275812Y-65617482D01*
X179288072Y-65493000D01*
X179288072Y-63793000D01*
X179275812Y-63668518D01*
X179239502Y-63548820D01*
X179180537Y-63438506D01*
X179101185Y-63341815D01*
X179004494Y-63262463D01*
X178894180Y-63203498D01*
X178774482Y-63167188D01*
X178650000Y-63154928D01*
X176950000Y-63154928D01*
X176825518Y-63167188D01*
X176705820Y-63203498D01*
X176595506Y-63262463D01*
X176498815Y-63341815D01*
X176419463Y-63438506D01*
X176360498Y-63548820D01*
X176336034Y-63629466D01*
X176260269Y-63545412D01*
X176026920Y-63371359D01*
X175764099Y-63246175D01*
X175616890Y-63201524D01*
X175387000Y-63322845D01*
X175133000Y-63322845D01*
X174903110Y-63201524D01*
X174755901Y-63246175D01*
X174493080Y-63371359D01*
X174259731Y-63545412D01*
X174064822Y-63761645D01*
X173995195Y-63878534D01*
X173873475Y-63696368D01*
X173666632Y-63489525D01*
X173423411Y-63327010D01*
X173153158Y-63215068D01*
X172866260Y-63158000D01*
X172573740Y-63158000D01*
X172286842Y-63215068D01*
X172016589Y-63327010D01*
X171773368Y-63489525D01*
X171566525Y-63696368D01*
X171450000Y-63870760D01*
X171333475Y-63696368D01*
X171126632Y-63489525D01*
X170883411Y-63327010D01*
X170613158Y-63215068D01*
X170326260Y-63158000D01*
X170033740Y-63158000D01*
X169746842Y-63215068D01*
X169476589Y-63327010D01*
X169233368Y-63489525D01*
X169026525Y-63696368D01*
X168910000Y-63870760D01*
X168793475Y-63696368D01*
X168586632Y-63489525D01*
X168343411Y-63327010D01*
X168073158Y-63215068D01*
X167786260Y-63158000D01*
X167493740Y-63158000D01*
X167206842Y-63215068D01*
X166936589Y-63327010D01*
X166693368Y-63489525D01*
X166486525Y-63696368D01*
X166324010Y-63939589D01*
X166212068Y-64209842D01*
X166155000Y-64496740D01*
X165760000Y-64496740D01*
X165760000Y-54389872D01*
X166675000Y-54389872D01*
X166675000Y-54830128D01*
X166760890Y-55261925D01*
X166929369Y-55668669D01*
X167173962Y-56034729D01*
X167485271Y-56346038D01*
X167851331Y-56590631D01*
X168258075Y-56759110D01*
X168689872Y-56845000D01*
X169130128Y-56845000D01*
X169561925Y-56759110D01*
X169968669Y-56590631D01*
X170334729Y-56346038D01*
X170646038Y-56034729D01*
X170890631Y-55668669D01*
X171059110Y-55261925D01*
X171145000Y-54830128D01*
X171145000Y-54389872D01*
X171059110Y-53958075D01*
X170890631Y-53551331D01*
X170646038Y-53185271D01*
X170334729Y-52873962D01*
X169968669Y-52629369D01*
X169561925Y-52460890D01*
X169130128Y-52375000D01*
X168689872Y-52375000D01*
X168258075Y-52460890D01*
X167851331Y-52629369D01*
X167485271Y-52873962D01*
X167173962Y-53185271D01*
X166929369Y-53551331D01*
X166760890Y-53958075D01*
X166675000Y-54389872D01*
X165760000Y-54389872D01*
X165760000Y-51460000D01*
X189738000Y-51460000D01*
X189738000Y-112370000D01*
G36*
X177015000Y-75687159D02*
G01*
X177015001Y-77538661D01*
X176885241Y-77625363D01*
X176685363Y-77825241D01*
X176530000Y-78057759D01*
X176374637Y-77825241D01*
X176174759Y-77625363D01*
X175939727Y-77468320D01*
X175678574Y-77360147D01*
X175401335Y-77305000D01*
X175118665Y-77305000D01*
X174841426Y-77360147D01*
X174580273Y-77468320D01*
X174345241Y-77625363D01*
X174145363Y-77825241D01*
X173990000Y-78057759D01*
X173834637Y-77825241D01*
X173634759Y-77625363D01*
X173399727Y-77468320D01*
X173138574Y-77360147D01*
X172861335Y-77305000D01*
X172578665Y-77305000D01*
X172301426Y-77360147D01*
X172040273Y-77468320D01*
X171805241Y-77625363D01*
X171605363Y-77825241D01*
X171450000Y-78057759D01*
X171294637Y-77825241D01*
X171094759Y-77625363D01*
X170965000Y-77538661D01*
X170965000Y-73147159D01*
X171848571Y-72263589D01*
X172040273Y-72391680D01*
X172301426Y-72499853D01*
X172578665Y-72555000D01*
X172861335Y-72555000D01*
X173138574Y-72499853D01*
X173399727Y-72391680D01*
X173591430Y-72263589D01*
X177015000Y-75687159D01*
G37*
X177015000Y-75687159D02*
X177015001Y-77538661D01*
X176885241Y-77625363D01*
X176685363Y-77825241D01*
X176530000Y-78057759D01*
X176374637Y-77825241D01*
X176174759Y-77625363D01*
X175939727Y-77468320D01*
X175678574Y-77360147D01*
X175401335Y-77305000D01*
X175118665Y-77305000D01*
X174841426Y-77360147D01*
X174580273Y-77468320D01*
X174345241Y-77625363D01*
X174145363Y-77825241D01*
X173990000Y-78057759D01*
X173834637Y-77825241D01*
X173634759Y-77625363D01*
X173399727Y-77468320D01*
X173138574Y-77360147D01*
X172861335Y-77305000D01*
X172578665Y-77305000D01*
X172301426Y-77360147D01*
X172040273Y-77468320D01*
X171805241Y-77625363D01*
X171605363Y-77825241D01*
X171450000Y-78057759D01*
X171294637Y-77825241D01*
X171094759Y-77625363D01*
X170965000Y-77538661D01*
X170965000Y-73147159D01*
X171848571Y-72263589D01*
X172040273Y-72391680D01*
X172301426Y-72499853D01*
X172578665Y-72555000D01*
X172861335Y-72555000D01*
X173138574Y-72499853D01*
X173399727Y-72391680D01*
X173591430Y-72263589D01*
X177015000Y-75687159D01*
G36*
X172286842Y-66070932D02*
G01*
X172573740Y-66128000D01*
X172866260Y-66128000D01*
X173056918Y-66090076D01*
X173205001Y-66238159D01*
X173205000Y-69767662D01*
X173138574Y-69740147D01*
X172861335Y-69685000D01*
X172578665Y-69685000D01*
X172301426Y-69740147D01*
X172235000Y-69767662D01*
X172235000Y-66049458D01*
X172286842Y-66070932D01*
G37*
X172286842Y-66070932D02*
X172573740Y-66128000D01*
X172866260Y-66128000D01*
X173056918Y-66090076D01*
X173205001Y-66238159D01*
X173205000Y-69767662D01*
X173138574Y-69740147D01*
X172861335Y-69685000D01*
X172578665Y-69685000D01*
X172301426Y-69740147D01*
X172235000Y-69767662D01*
X172235000Y-66049458D01*
X172286842Y-66070932D01*
%TD*%
M02*
