%TF.GenerationSoftware,KiCad,Pcbnew,5.1.6+dfsg1-1~bpo10+1*%
%TF.CreationDate,2020-05-25T22:11:19+02:00*%
%TF.ProjectId,rs232 uart programmer,72733233-3220-4756-9172-742070726f67,rev?*%
%TF.SameCoordinates,Original*%
%TF.FileFunction,Legend,Bot*%
%TF.FilePolarity,Positive*%
%FSLAX46Y46*%
G04 Gerber Fmt 4.6, Leading zero omitted, Abs format (unit mm)*
G04 Created by KiCad (PCBNEW 5.1.6+dfsg1-1~bpo10+1) date 2020-05-25 22:11:19*
%MOMM*%
%LPD*%
G01*
G04 APERTURE LIST*
%ADD10C,0.150000*%
G04 APERTURE END LIST*
D10*
X227177619Y-52967380D02*
X227177619Y-51967380D01*
X226749047Y-52919761D02*
X226653809Y-52967380D01*
X226463333Y-52967380D01*
X226368095Y-52919761D01*
X226320476Y-52824523D01*
X226320476Y-52776904D01*
X226368095Y-52681666D01*
X226463333Y-52634047D01*
X226606190Y-52634047D01*
X226701428Y-52586428D01*
X226749047Y-52491190D01*
X226749047Y-52443571D01*
X226701428Y-52348333D01*
X226606190Y-52300714D01*
X226463333Y-52300714D01*
X226368095Y-52348333D01*
X225749047Y-52967380D02*
X225844285Y-52919761D01*
X225891904Y-52872142D01*
X225939523Y-52776904D01*
X225939523Y-52491190D01*
X225891904Y-52395952D01*
X225844285Y-52348333D01*
X225749047Y-52300714D01*
X225606190Y-52300714D01*
X225510952Y-52348333D01*
X225463333Y-52395952D01*
X225415714Y-52491190D01*
X225415714Y-52776904D01*
X225463333Y-52872142D01*
X225510952Y-52919761D01*
X225606190Y-52967380D01*
X225749047Y-52967380D01*
X224844285Y-52967380D02*
X224939523Y-52919761D01*
X224987142Y-52824523D01*
X224987142Y-51967380D01*
X224034761Y-52967380D02*
X224034761Y-52443571D01*
X224082380Y-52348333D01*
X224177619Y-52300714D01*
X224368095Y-52300714D01*
X224463333Y-52348333D01*
X224034761Y-52919761D02*
X224130000Y-52967380D01*
X224368095Y-52967380D01*
X224463333Y-52919761D01*
X224510952Y-52824523D01*
X224510952Y-52729285D01*
X224463333Y-52634047D01*
X224368095Y-52586428D01*
X224130000Y-52586428D01*
X224034761Y-52538809D01*
X223701428Y-52300714D02*
X223320476Y-52300714D01*
X223558571Y-51967380D02*
X223558571Y-52824523D01*
X223510952Y-52919761D01*
X223415714Y-52967380D01*
X223320476Y-52967380D01*
X222606190Y-52919761D02*
X222701428Y-52967380D01*
X222891904Y-52967380D01*
X222987142Y-52919761D01*
X223034761Y-52824523D01*
X223034761Y-52443571D01*
X222987142Y-52348333D01*
X222891904Y-52300714D01*
X222701428Y-52300714D01*
X222606190Y-52348333D01*
X222558571Y-52443571D01*
X222558571Y-52538809D01*
X223034761Y-52634047D01*
X221701428Y-52967380D02*
X221701428Y-51967380D01*
X221701428Y-52919761D02*
X221796666Y-52967380D01*
X221987142Y-52967380D01*
X222082380Y-52919761D01*
X222130000Y-52872142D01*
X222177619Y-52776904D01*
X222177619Y-52491190D01*
X222130000Y-52395952D01*
X222082380Y-52348333D01*
X221987142Y-52300714D01*
X221796666Y-52300714D01*
X221701428Y-52348333D01*
X219891904Y-52967380D02*
X220225238Y-52491190D01*
X220463333Y-52967380D02*
X220463333Y-51967380D01*
X220082380Y-51967380D01*
X219987142Y-52015000D01*
X219939523Y-52062619D01*
X219891904Y-52157857D01*
X219891904Y-52300714D01*
X219939523Y-52395952D01*
X219987142Y-52443571D01*
X220082380Y-52491190D01*
X220463333Y-52491190D01*
X219510952Y-52919761D02*
X219368095Y-52967380D01*
X219130000Y-52967380D01*
X219034761Y-52919761D01*
X218987142Y-52872142D01*
X218939523Y-52776904D01*
X218939523Y-52681666D01*
X218987142Y-52586428D01*
X219034761Y-52538809D01*
X219130000Y-52491190D01*
X219320476Y-52443571D01*
X219415714Y-52395952D01*
X219463333Y-52348333D01*
X219510952Y-52253095D01*
X219510952Y-52157857D01*
X219463333Y-52062619D01*
X219415714Y-52015000D01*
X219320476Y-51967380D01*
X219082380Y-51967380D01*
X218939523Y-52015000D01*
X218558571Y-52062619D02*
X218510952Y-52015000D01*
X218415714Y-51967380D01*
X218177619Y-51967380D01*
X218082380Y-52015000D01*
X218034761Y-52062619D01*
X217987142Y-52157857D01*
X217987142Y-52253095D01*
X218034761Y-52395952D01*
X218606190Y-52967380D01*
X217987142Y-52967380D01*
X217653809Y-51967380D02*
X217034761Y-51967380D01*
X217368095Y-52348333D01*
X217225238Y-52348333D01*
X217130000Y-52395952D01*
X217082380Y-52443571D01*
X217034761Y-52538809D01*
X217034761Y-52776904D01*
X217082380Y-52872142D01*
X217130000Y-52919761D01*
X217225238Y-52967380D01*
X217510952Y-52967380D01*
X217606190Y-52919761D01*
X217653809Y-52872142D01*
X216653809Y-52062619D02*
X216606190Y-52015000D01*
X216510952Y-51967380D01*
X216272857Y-51967380D01*
X216177619Y-52015000D01*
X216130000Y-52062619D01*
X216082380Y-52157857D01*
X216082380Y-52253095D01*
X216130000Y-52395952D01*
X216701428Y-52967380D01*
X216082380Y-52967380D01*
X215034761Y-52300714D02*
X214653809Y-52300714D01*
X214891904Y-51967380D02*
X214891904Y-52824523D01*
X214844285Y-52919761D01*
X214749047Y-52967380D01*
X214653809Y-52967380D01*
X214177619Y-52967380D02*
X214272857Y-52919761D01*
X214320476Y-52872142D01*
X214368095Y-52776904D01*
X214368095Y-52491190D01*
X214320476Y-52395952D01*
X214272857Y-52348333D01*
X214177619Y-52300714D01*
X214034761Y-52300714D01*
X213939523Y-52348333D01*
X213891904Y-52395952D01*
X213844285Y-52491190D01*
X213844285Y-52776904D01*
X213891904Y-52872142D01*
X213939523Y-52919761D01*
X214034761Y-52967380D01*
X214177619Y-52967380D01*
X212653809Y-51967380D02*
X212653809Y-52776904D01*
X212606190Y-52872142D01*
X212558571Y-52919761D01*
X212463333Y-52967380D01*
X212272857Y-52967380D01*
X212177619Y-52919761D01*
X212130000Y-52872142D01*
X212082380Y-52776904D01*
X212082380Y-51967380D01*
X211653809Y-52681666D02*
X211177619Y-52681666D01*
X211749047Y-52967380D02*
X211415714Y-51967380D01*
X211082380Y-52967380D01*
X210177619Y-52967380D02*
X210510952Y-52491190D01*
X210749047Y-52967380D02*
X210749047Y-51967380D01*
X210368095Y-51967380D01*
X210272857Y-52015000D01*
X210225238Y-52062619D01*
X210177619Y-52157857D01*
X210177619Y-52300714D01*
X210225238Y-52395952D01*
X210272857Y-52443571D01*
X210368095Y-52491190D01*
X210749047Y-52491190D01*
X209891904Y-51967380D02*
X209320476Y-51967380D01*
X209606190Y-52967380D02*
X209606190Y-51967380D01*
X208225238Y-52967380D02*
X208225238Y-52300714D01*
X208225238Y-51967380D02*
X208272857Y-52015000D01*
X208225238Y-52062619D01*
X208177619Y-52015000D01*
X208225238Y-51967380D01*
X208225238Y-52062619D01*
X207749047Y-52300714D02*
X207749047Y-52967380D01*
X207749047Y-52395952D02*
X207701428Y-52348333D01*
X207606190Y-52300714D01*
X207463333Y-52300714D01*
X207368095Y-52348333D01*
X207320476Y-52443571D01*
X207320476Y-52967380D01*
X206987142Y-52300714D02*
X206606190Y-52300714D01*
X206844285Y-51967380D02*
X206844285Y-52824523D01*
X206796666Y-52919761D01*
X206701428Y-52967380D01*
X206606190Y-52967380D01*
X205891904Y-52919761D02*
X205987142Y-52967380D01*
X206177619Y-52967380D01*
X206272857Y-52919761D01*
X206320476Y-52824523D01*
X206320476Y-52443571D01*
X206272857Y-52348333D01*
X206177619Y-52300714D01*
X205987142Y-52300714D01*
X205891904Y-52348333D01*
X205844285Y-52443571D01*
X205844285Y-52538809D01*
X206320476Y-52634047D01*
X205415714Y-52967380D02*
X205415714Y-52300714D01*
X205415714Y-52491190D02*
X205368095Y-52395952D01*
X205320476Y-52348333D01*
X205225238Y-52300714D01*
X205130000Y-52300714D01*
X204939523Y-52300714D02*
X204558571Y-52300714D01*
X204796666Y-52967380D02*
X204796666Y-52110238D01*
X204749047Y-52015000D01*
X204653809Y-51967380D01*
X204558571Y-51967380D01*
X203796666Y-52967380D02*
X203796666Y-52443571D01*
X203844285Y-52348333D01*
X203939523Y-52300714D01*
X204130000Y-52300714D01*
X204225238Y-52348333D01*
X203796666Y-52919761D02*
X203891904Y-52967380D01*
X204130000Y-52967380D01*
X204225238Y-52919761D01*
X204272857Y-52824523D01*
X204272857Y-52729285D01*
X204225238Y-52634047D01*
X204130000Y-52586428D01*
X203891904Y-52586428D01*
X203796666Y-52538809D01*
X202891904Y-52919761D02*
X202987142Y-52967380D01*
X203177619Y-52967380D01*
X203272857Y-52919761D01*
X203320476Y-52872142D01*
X203368095Y-52776904D01*
X203368095Y-52491190D01*
X203320476Y-52395952D01*
X203272857Y-52348333D01*
X203177619Y-52300714D01*
X202987142Y-52300714D01*
X202891904Y-52348333D01*
X202082380Y-52919761D02*
X202177619Y-52967380D01*
X202368095Y-52967380D01*
X202463333Y-52919761D01*
X202510952Y-52824523D01*
X202510952Y-52443571D01*
X202463333Y-52348333D01*
X202368095Y-52300714D01*
X202177619Y-52300714D01*
X202082380Y-52348333D01*
X202034761Y-52443571D01*
X202034761Y-52538809D01*
X202510952Y-52634047D01*
X223344285Y-54617380D02*
X223344285Y-53617380D01*
X223106190Y-53617380D01*
X222963333Y-53665000D01*
X222868095Y-53760238D01*
X222820476Y-53855476D01*
X222772857Y-54045952D01*
X222772857Y-54188809D01*
X222820476Y-54379285D01*
X222868095Y-54474523D01*
X222963333Y-54569761D01*
X223106190Y-54617380D01*
X223344285Y-54617380D01*
X221963333Y-54569761D02*
X222058571Y-54617380D01*
X222249047Y-54617380D01*
X222344285Y-54569761D01*
X222391904Y-54474523D01*
X222391904Y-54093571D01*
X222344285Y-53998333D01*
X222249047Y-53950714D01*
X222058571Y-53950714D01*
X221963333Y-53998333D01*
X221915714Y-54093571D01*
X221915714Y-54188809D01*
X222391904Y-54284047D01*
X221534761Y-54569761D02*
X221439523Y-54617380D01*
X221249047Y-54617380D01*
X221153809Y-54569761D01*
X221106190Y-54474523D01*
X221106190Y-54426904D01*
X221153809Y-54331666D01*
X221249047Y-54284047D01*
X221391904Y-54284047D01*
X221487142Y-54236428D01*
X221534761Y-54141190D01*
X221534761Y-54093571D01*
X221487142Y-53998333D01*
X221391904Y-53950714D01*
X221249047Y-53950714D01*
X221153809Y-53998333D01*
X220677619Y-54617380D02*
X220677619Y-53950714D01*
X220677619Y-53617380D02*
X220725238Y-53665000D01*
X220677619Y-53712619D01*
X220630000Y-53665000D01*
X220677619Y-53617380D01*
X220677619Y-53712619D01*
X219772857Y-53950714D02*
X219772857Y-54760238D01*
X219820476Y-54855476D01*
X219868095Y-54903095D01*
X219963333Y-54950714D01*
X220106190Y-54950714D01*
X220201428Y-54903095D01*
X219772857Y-54569761D02*
X219868095Y-54617380D01*
X220058571Y-54617380D01*
X220153809Y-54569761D01*
X220201428Y-54522142D01*
X220249047Y-54426904D01*
X220249047Y-54141190D01*
X220201428Y-54045952D01*
X220153809Y-53998333D01*
X220058571Y-53950714D01*
X219868095Y-53950714D01*
X219772857Y-53998333D01*
X219296666Y-53950714D02*
X219296666Y-54617380D01*
X219296666Y-54045952D02*
X219249047Y-53998333D01*
X219153809Y-53950714D01*
X219010952Y-53950714D01*
X218915714Y-53998333D01*
X218868095Y-54093571D01*
X218868095Y-54617380D01*
X218010952Y-54569761D02*
X218106190Y-54617380D01*
X218296666Y-54617380D01*
X218391904Y-54569761D01*
X218439523Y-54474523D01*
X218439523Y-54093571D01*
X218391904Y-53998333D01*
X218296666Y-53950714D01*
X218106190Y-53950714D01*
X218010952Y-53998333D01*
X217963333Y-54093571D01*
X217963333Y-54188809D01*
X218439523Y-54284047D01*
X217106190Y-54617380D02*
X217106190Y-53617380D01*
X217106190Y-54569761D02*
X217201428Y-54617380D01*
X217391904Y-54617380D01*
X217487142Y-54569761D01*
X217534761Y-54522142D01*
X217582380Y-54426904D01*
X217582380Y-54141190D01*
X217534761Y-54045952D01*
X217487142Y-53998333D01*
X217391904Y-53950714D01*
X217201428Y-53950714D01*
X217106190Y-53998333D01*
X215868095Y-54617380D02*
X215868095Y-53617380D01*
X215868095Y-53998333D02*
X215772857Y-53950714D01*
X215582380Y-53950714D01*
X215487142Y-53998333D01*
X215439523Y-54045952D01*
X215391904Y-54141190D01*
X215391904Y-54426904D01*
X215439523Y-54522142D01*
X215487142Y-54569761D01*
X215582380Y-54617380D01*
X215772857Y-54617380D01*
X215868095Y-54569761D01*
X215058571Y-53950714D02*
X214820476Y-54617380D01*
X214582380Y-53950714D02*
X214820476Y-54617380D01*
X214915714Y-54855476D01*
X214963333Y-54903095D01*
X215058571Y-54950714D01*
X213439523Y-54617380D02*
X213439523Y-53617380D01*
X213201428Y-53617380D01*
X213058571Y-53665000D01*
X212963333Y-53760238D01*
X212915714Y-53855476D01*
X212868095Y-54045952D01*
X212868095Y-54188809D01*
X212915714Y-54379285D01*
X212963333Y-54474523D01*
X213058571Y-54569761D01*
X213201428Y-54617380D01*
X213439523Y-54617380D01*
X212010952Y-54617380D02*
X212010952Y-54093571D01*
X212058571Y-53998333D01*
X212153809Y-53950714D01*
X212344285Y-53950714D01*
X212439523Y-53998333D01*
X212010952Y-54569761D02*
X212106190Y-54617380D01*
X212344285Y-54617380D01*
X212439523Y-54569761D01*
X212487142Y-54474523D01*
X212487142Y-54379285D01*
X212439523Y-54284047D01*
X212344285Y-54236428D01*
X212106190Y-54236428D01*
X212010952Y-54188809D01*
X211534761Y-54617380D02*
X211534761Y-53950714D01*
X211534761Y-54141190D02*
X211487142Y-54045952D01*
X211439523Y-53998333D01*
X211344285Y-53950714D01*
X211249047Y-53950714D01*
X210915714Y-54617380D02*
X210915714Y-53617380D01*
X210820476Y-54236428D02*
X210534761Y-54617380D01*
X210534761Y-53950714D02*
X210915714Y-54331666D01*
X210106190Y-54617380D02*
X210106190Y-53617380D01*
X209772857Y-54331666D01*
X209439523Y-53617380D01*
X209439523Y-54617380D01*
X208534761Y-54617380D02*
X208534761Y-54093571D01*
X208582380Y-53998333D01*
X208677619Y-53950714D01*
X208868095Y-53950714D01*
X208963333Y-53998333D01*
X208534761Y-54569761D02*
X208630000Y-54617380D01*
X208868095Y-54617380D01*
X208963333Y-54569761D01*
X209010952Y-54474523D01*
X209010952Y-54379285D01*
X208963333Y-54284047D01*
X208868095Y-54236428D01*
X208630000Y-54236428D01*
X208534761Y-54188809D01*
X207630000Y-53950714D02*
X207630000Y-54760238D01*
X207677619Y-54855476D01*
X207725238Y-54903095D01*
X207820476Y-54950714D01*
X207963333Y-54950714D01*
X208058571Y-54903095D01*
X207630000Y-54569761D02*
X207725238Y-54617380D01*
X207915714Y-54617380D01*
X208010952Y-54569761D01*
X208058571Y-54522142D01*
X208106190Y-54426904D01*
X208106190Y-54141190D01*
X208058571Y-54045952D01*
X208010952Y-53998333D01*
X207915714Y-53950714D01*
X207725238Y-53950714D01*
X207630000Y-53998333D01*
X206725238Y-53950714D02*
X206725238Y-54617380D01*
X207153809Y-53950714D02*
X207153809Y-54474523D01*
X207106190Y-54569761D01*
X207010952Y-54617380D01*
X206868095Y-54617380D01*
X206772857Y-54569761D01*
X206725238Y-54522142D01*
X206296666Y-54569761D02*
X206201428Y-54617380D01*
X206010952Y-54617380D01*
X205915714Y-54569761D01*
X205868095Y-54474523D01*
X205868095Y-54426904D01*
X205915714Y-54331666D01*
X206010952Y-54284047D01*
X206153809Y-54284047D01*
X206249047Y-54236428D01*
X206296666Y-54141190D01*
X206296666Y-54093571D01*
X206249047Y-53998333D01*
X206153809Y-53950714D01*
X206010952Y-53950714D01*
X205915714Y-53998333D01*
M02*
